<?xml version="1.0" encoding="UTF-8"?>
<!DOCTYPE svg PUBLIC "-//W3C//DTD SVG 1.1//EN" "http://www.w3.org/Graphics/SVG/1.1/DTD/svg11.dtd">
<!-- Creator: CorelDRAW 2021 (64-Bit) -->
<svg xmlns="http://www.w3.org/2000/svg" xml:space="preserve" width="282px" height="48px" version="1.1" style="shape-rendering:geometricPrecision; text-rendering:geometricPrecision; image-rendering:optimizeQuality; fill-rule:evenodd; clip-rule:evenodd"
viewBox="0 0 131.3 22.36"
 xmlns:xlink="http://www.w3.org/1999/xlink"
 xmlns:xodm="http://www.corel.com/coreldraw/odm/2003">
 <defs>
  <style type="text/css">
   <![CDATA[
    .fil0 {fill:black;fill-rule:nonzero}
   ]]>
  </style>
 </defs>
 <g id="Layer_x0020_1">
  <metadata id="CorelCorpID_0Corel-Layer"/>
  <path class="fil0" d="M3.99 22.36l-0.15 -0.01c-0.2,-0.04 -0.4,-0.1 -0.6,-0.18 -0.13,-0.06 -0.32,-0.13 -0.58,-0.23 -0.19,-0.09 -0.32,-0.13 -0.39,-0.13l-0.1 0.01c-0.04,0 -0.05,-0.03 -0.05,-0.08l0.01 -0.05 -0.01 -0.05c0,-0.04 -0.03,-0.07 -0.08,-0.08 -0.03,0 -0.05,0 -0.07,0.01l-0.1 0c-0.02,-0.02 -0.03,-0.03 -0.04,-0.04 -0.01,0 -0.01,0 -0.01,-0.01 0.01,-0.02 0.01,-0.04 0.01,-0.08 0,-0.02 -0.02,-0.04 -0.07,-0.04l-0.04 0.01c-0.03,0 -0.05,-0.01 -0.07,-0.02 -0.06,-0.06 -0.12,-0.11 -0.18,-0.14 -0.1,-0.07 -0.15,-0.16 -0.15,-0.26 0,-0.11 0.04,-0.24 0.11,-0.36 0.22,-0.39 0.4,-0.79 0.54,-1.21 0.22,-0.62 0.41,-1.11 0.56,-1.46 0.38,-0.8 0.57,-1.21 0.57,-1.23l0 -0.02c0,-0.01 0,-0.01 0,-0.02 -0.01,0 -0.02,0 -0.03,0 -0.2,0.03 -0.39,0.08 -0.58,0.14 -0.66,0.22 -1.25,0.35 -1.78,0.41l-0.25 0.04c-0.04,0 -0.07,-0.02 -0.08,-0.05 -0.01,-0.03 -0.02,-0.06 -0.03,-0.09 -0.07,-0.24 -0.13,-0.49 -0.17,-0.74 -0.02,-0.21 -0.04,-0.42 -0.09,-0.63 -0.01,-0.07 -0.02,-0.12 -0.02,-0.16 0,-0.04 -0.02,-0.12 -0.07,-0.25 0.01,0 0.02,-0.01 0.02,-0.02 0.01,-0.01 0.03,-0.02 0.05,-0.04 0.02,-0.03 0.02,-0.05 0.02,-0.07l-0.07 -0.22c0,-0.02 0.01,-0.04 0.03,-0.06 0.01,-0.02 0.02,-0.03 0.02,-0.05l-0.01 -0.04c-0.03,-0.05 -0.04,-0.17 -0.04,-0.37 0.01,-0.17 0.06,-0.26 0.15,-0.28 0.04,-0.02 0.08,-0.03 0.12,-0.03 0.25,-0.02 0.59,-0.12 1.01,-0.29 0.26,-0.1 0.91,-0.27 1.95,-0.52 1.01,-0.24 1.53,-0.37 1.56,-0.38 0.02,-0.02 0.03,-0.04 0.03,-0.06l0.01 0c0.06,-0.12 0.16,-0.32 0.31,-0.58 0.27,-0.53 0.55,-1.18 0.85,-1.94 0.13,-0.37 0.39,-1 0.8,-1.88l0.06 -0.14 0.61 -1.38c0.4,-0.78 0.8,-1.66 1.22,-2.63 0.08,-0.21 0.17,-0.43 0.25,-0.65l0.32 -0.86c0.03,-0.04 0.07,-0.14 0.13,-0.3 0.08,-0.21 0.16,-0.4 0.25,-0.58 0.22,-0.4 0.36,-0.76 0.42,-1.1 0.03,-0.15 0.11,-0.23 0.25,-0.24 0.38,0 0.7,0.06 0.97,0.19 0.12,0.06 0.24,0.11 0.37,0.13 0.13,0.03 0.25,0.06 0.36,0.1l0.06 0.01c0.02,0 0.04,0 0.05,-0.01 0.02,-0.02 0.04,-0.03 0.05,-0.03 0.05,-0.02 0.1,-0.05 0.16,-0.09 0.06,-0.03 0.15,-0.05 0.25,-0.05 0.16,0.01 0.28,0.03 0.35,0.06 0.02,0 0.09,0.01 0.18,0.04 0.11,0.03 0.21,0.06 0.3,0.08 0.06,0.01 0.09,0.03 0.09,0.06 -0.01,0.03 -0.02,0.04 -0.02,0.06 -0.01,0.01 -0.01,0.02 -0.02,0.03 -0.06,0.14 -0.09,0.23 -0.09,0.29l0.02 0.09 -0.02 0.1 -0.02 0.3c0,0.19 0.02,0.55 0.07,1.08 0.04,0.33 0.05,0.57 0.05,0.74l0 0.1 -0.08 3.53c-0.01,0.63 -0.04,1.16 -0.09,1.58 -0.01,0.22 -0.03,0.52 -0.03,0.89 0,0.48 0.01,0.82 0.05,1.03 0,0.16 0,0.24 0.02,0.26 0.02,0.01 0.05,0.02 0.09,0.02 0.32,0 0.58,-0.04 0.78,-0.12 0.01,0 0.02,0 0.04,-0.01 0.02,-0.01 0.04,-0.01 0.06,-0.01 0.1,0 0.16,0.05 0.19,0.16 0.1,0.26 0.15,0.55 0.15,0.86l0 0.11c0,0.14 0.01,0.29 0.04,0.43 0.01,0.06 0.01,0.12 0.01,0.18 0,0.03 0,0.08 0,0.15 0,0.06 0.04,0.13 0.11,0.18 0.07,0.06 0.11,0.14 0.13,0.23 0.03,0.22 0.05,0.36 0.05,0.42l0.02 0.48 -0.01 0.04c-0.01,0.02 -0.11,0.03 -0.29,0.03 -0.05,0 -0.08,-0.02 -0.11,-0.07l-0.01 -0.05 -0.01 0.03 -0.01 0.06c-0.01,0.01 -0.01,0.01 -0.01,0.01 0,0.01 -0.01,0.02 -0.03,0.02 -0.01,0.01 -0.03,0.02 -0.06,0.02l-0.02 -0.02 -0.04 0.02 -0.01 -0.03c-0.01,-0.01 -0.01,-0.02 -0.01,-0.03 0,-0.01 -0.01,-0.02 -0.01,-0.03 0,-0.01 0,-0.02 0,-0.02l-0.05 0c-0.02,0 -0.03,0.02 -0.03,0.04 -0.01,0.02 -0.01,0.05 -0.03,0.08 -0.01,0.03 -0.04,0.04 -0.1,0.04 -0.03,0 -0.06,0 -0.09,-0.01 -0.11,-0.05 -0.17,-0.08 -0.18,-0.09 -0.01,0 -0.03,0 -0.04,0 -0.03,0.02 -0.06,0.07 -0.1,0.15 -0.01,0.01 -0.02,0.02 -0.04,0.02 -0.01,0 -0.03,0.01 -0.04,0.01l0 -0.01 -0.03 0c-0.01,-0.01 -0.01,-0.02 -0.02,-0.03 -0.01,-0.02 -0.03,-0.02 -0.05,-0.02 -0.03,0 -0.05,0 -0.07,0.02 -0.01,-0.02 -0.03,-0.03 -0.05,-0.04 -0.01,-0.01 -0.03,-0.02 -0.05,-0.04 -0.02,-0.01 -0.04,-0.01 -0.05,-0.01 -0.01,0 -0.02,0.04 -0.02,0.1l0 0.99c0,0.4 0.02,0.76 0.07,1.06l0.07 0.6c0.02,0.17 0.04,0.34 0.06,0.52 0.02,0.18 0.03,0.36 0.03,0.56l0 0.07c0,0.26 0.04,0.49 0.12,0.69 0.03,0.03 0.04,0.07 0.04,0.12 0,0.09 -0.06,0.14 -0.16,0.18 -0.32,0.18 -0.62,0.27 -0.89,0.27 -0.03,0 -0.19,0.03 -0.47,0.09 -0.12,0.04 -0.22,0.07 -0.32,0.09 -0.1,0.02 -0.17,0.08 -0.2,0.17 -0.05,0.13 -0.12,0.18 -0.2,0.18 -0.17,0.08 -0.3,0.13 -0.39,0.15l-0.38 0.11 -0.08 0.01 -0.01 0.01c-0.04,0 -0.07,-0.01 -0.09,-0.05l0 -0.01c-0.01,-0.09 -0.03,-0.22 -0.05,-0.4l-0.01 -0.07c0.01,-0.06 0.04,-0.09 0.09,-0.11l0.01 -0.01c0.01,0 0.01,0 0.01,-0.01l0 -0.04 -0.01 -0.02 -0.02 0.01c-0.06,0 -0.09,-0.01 -0.1,-0.04l0 -0.07 0.03 -0.06 0.02 -0.01c0,0.01 -0.01,0.01 -0.02,0.01 -0.03,0 -0.06,-0.01 -0.06,-0.02 -0.01,-0.02 -0.01,-0.03 -0.01,-0.04 0,-0.01 0.02,-0.02 0.04,-0.04l0.02 -0.01 0.01 0c0.04,0 0.05,-0.03 0.05,-0.08 0,-0.03 0,-0.05 -0.02,-0.05 -0.02,0 -0.03,0 -0.04,-0.01l-0.06 -0.01c-0.04,-0.02 -0.06,-0.07 -0.06,-0.16l0 -0.05c0,-0.08 0.02,-0.15 0.05,-0.21 0.03,-0.1 0.05,-0.16 0.05,-0.17 0,-0.03 -0.01,-0.04 -0.04,-0.06 -0.02,-0.01 -0.05,-0.04 -0.09,-0.07 -0.04,-0.03 -0.05,-0.06 -0.05,-0.09l0 -0.03c0,-0.03 0.01,-0.06 0.03,-0.09 0.03,-0.03 0.04,-0.06 0.04,-0.07l-0.02 -0.1c0,-0.02 0.01,-0.05 0.04,-0.09 0.05,-0.07 0.07,-0.12 0.07,-0.14 0,-0.05 0.02,-0.07 0.07,-0.08l0.03 -0.03c0.03,-0.01 0.04,-0.03 0.05,-0.06 -0.01,-0.02 -0.03,-0.05 -0.04,-0.07 -0.01,-0.02 -0.03,-0.04 -0.04,-0.06 0,-0.04 0,-0.07 0.01,-0.08 0.01,-0.01 0.01,-0.02 0.01,-0.03l-0.01 -0.02 -0.07 0.03 -0.03 0c0,0 -0.01,0 -0.01,-0.01 -0.02,-0.03 -0.06,-0.13 -0.1,-0.29 -0.05,-0.16 -0.08,-0.29 -0.12,-0.39 -0.01,-0.03 -0.02,-0.08 -0.02,-0.13 0,-0.09 0.03,-0.17 0.1,-0.24 0,0 0,-0.01 0.01,-0.02 0,-0.01 0.01,-0.03 0.02,-0.05 0.01,-0.03 0.01,-0.06 0.01,-0.07 0,-0.02 0,-0.03 -0.01,-0.04 -0.01,-0.02 -0.02,-0.02 -0.03,-0.03 -0.01,-0.01 -0.03,-0.02 -0.05,-0.04l0 -0.01 -0.01 0c0,-0.01 0,-0.02 0.02,-0.03 0.02,-0.01 0.03,-0.03 0.05,-0.05 0.01,-0.02 0.02,-0.04 0.02,-0.05 0,-0.02 0,-0.03 -0.01,-0.04 -0.08,-0.08 -0.12,-0.17 -0.12,-0.25 0.01,-0.09 0.04,-0.16 0.09,-0.21l0.05 -0.13 -0.03 -0.06c0,-0.02 0,-0.04 0.02,-0.07 0.02,-0.03 0.03,-0.06 0.03,-0.1 0,-0.05 -0.02,-0.09 -0.05,-0.13l-0.04 0c-0.03,0.02 -0.05,0.03 -0.07,0.04 -0.03,0 -0.05,0 -0.07,-0.01 -0.01,-0.01 -0.02,-0.02 -0.03,-0.03 0,-0.01 -0.01,-0.02 -0.02,-0.04l-0.02 -0.01 -0.03 0c-0.02,0.01 -0.03,0.02 -0.05,0.02 -0.02,0.01 -0.05,0.02 -0.09,0.02 -0.03,0 -0.06,0.01 -0.07,0.03 -0.01,0.02 -0.02,0.06 -0.03,0.09 -0.01,0.04 -0.03,0.06 -0.07,0.06 -0.05,-0.01 -0.1,-0.03 -0.15,-0.05 -0.05,-0.01 -0.09,-0.04 -0.13,-0.06 -0.04,-0.02 -0.07,-0.04 -0.1,-0.04 -0.02,0 -0.04,0.01 -0.05,0.01 -0.1,0 -0.16,0.01 -0.17,0.02 -0.01,0.01 -0.01,0.04 -0.01,0.07 0,0.09 -0.03,0.13 -0.09,0.13 -0.02,0 -0.05,-0.02 -0.08,-0.06 -0.02,-0.01 -0.06,-0.02 -0.11,-0.02l-0.05 -0.01c-0.04,0 -0.1,0.05 -0.18,0.15 -0.06,0.07 -0.11,0.1 -0.16,0.1 -0.02,0 -0.05,-0.02 -0.07,-0.04 -0.02,0.01 -0.03,0.02 -0.04,0.02 -0.01,0 -0.03,0.01 -0.05,0.03 -0.13,0.09 -0.29,0.13 -0.45,0.13l-0.2 -0.01c-0.05,0 -0.08,-0.03 -0.09,-0.08l-0.04 -0.03c-0.06,0 -0.09,0.01 -0.09,0.03 0,0.09 -0.05,0.14 -0.18,0.15l-0.05 0.01c-0.09,0 -0.14,0.05 -0.16,0.14 -0.21,0.48 -0.38,0.86 -0.52,1.13 -0.11,0.21 -0.21,0.42 -0.29,0.63 -0.15,0.42 -0.33,0.82 -0.54,1.23 -0.16,0.29 -0.3,0.59 -0.41,0.89 -0.11,0.3 -0.23,0.59 -0.35,0.87l-0.11 0.25c-0.14,0.32 -0.29,0.63 -0.45,0.95l-0.3 0.56c-0.01,0.03 -0.03,0.04 -0.04,0.04zm123.54 -1.25l-0.05 0c-0.01,-0.02 -0.03,-0.03 -0.03,-0.04 -0.01,0 -0.02,-0.02 -0.03,-0.03 -0.05,-0.08 -0.1,-0.14 -0.16,-0.21l-0.01 -0.06c0,-0.02 0.01,-0.04 0.01,-0.05 0.01,-0.02 0.02,-0.02 0.03,-0.03l0 -0.04 -0.03 -0.01c0,0.01 -0.01,0.01 -0.02,0.02 0,0.01 0,0.02 -0.01,0.02 -0.01,0 -0.02,0.01 -0.04,0.01l-0.05 -0.01 -0.01 -0.04 0.01 -0.03 -0.01 -0.01 0.01 0.01c0,0 -0.01,-0.01 -0.03,-0.01 -0.01,-0.01 -0.02,-0.01 -0.03,-0.02 0,0 -0.01,-0.01 -0.01,-0.02 0,-0.02 0.01,-0.04 0.04,-0.07l0.01 0 0.02 -0.03c0,-0.04 -0.01,-0.06 -0.04,-0.06l-0.13 0.03c-0.08,0 -0.12,-0.06 -0.14,-0.2 -0.01,-0.02 -0.01,-0.07 -0.02,-0.13 0,-0.06 -0.03,-0.09 -0.09,-0.09l-0.1 0c-0.06,0 -0.09,-0.04 -0.09,-0.12 0,-0.04 -0.01,-0.07 -0.03,-0.08 -0.01,-0.02 -0.02,-0.04 -0.02,-0.08 0,-0.01 0,-0.02 0.01,-0.03 0,-0.07 -0.01,-0.13 -0.02,-0.16 0,-0.03 0.02,-0.07 0.06,-0.12l0 -0.04c-0.03,-0.03 -0.08,-0.04 -0.12,-0.04 -0.03,-0.02 -0.04,-0.04 -0.04,-0.06 0,-0.02 -0.01,-0.03 -0.02,-0.03 -0.02,0 -0.03,0.01 -0.03,0.02 0,0.01 0,0.03 -0.01,0.04 -0.01,0.02 -0.02,0.03 -0.02,0.03l-0.49 -0.29c-0.08,-0.05 -0.13,-0.14 -0.13,-0.25 0,-0.06 -0.01,-0.11 -0.05,-0.15 0,-0.01 -0.02,-0.02 -0.05,-0.02 0,0.01 -0.01,0.01 -0.02,0.01 -0.02,0 -0.03,0 -0.03,0.01l0 -0.01 -0.03 -0.01 0.01 -0.05c0,-0.04 0,-0.07 -0.01,-0.08 -0.01,-0.01 -0.04,-0.02 -0.09,-0.02 -0.09,0 -0.15,-0.05 -0.17,-0.14 0,-0.11 -0.01,-0.17 -0.01,-0.18 -0.01,-0.01 -0.02,-0.02 -0.03,-0.03 -0.04,0 -0.06,-0.03 -0.06,-0.07 -0.01,-0.06 -0.04,-0.1 -0.09,-0.12 -0.05,-0.02 -0.09,-0.05 -0.13,-0.11 0,-0.01 0,-0.01 -0.01,-0.02 0,0 -0.01,-0.01 -0.02,-0.01 0,-0.01 -0.01,-0.02 -0.03,-0.02 0,0 -0.02,0.01 -0.03,0.02 -0.02,0 -0.03,0.01 -0.03,0.01 -0.01,0 -0.01,0 -0.02,0l-0.01 0c-0.01,0 -0.02,-0.01 -0.02,-0.01 -0.01,-0.01 -0.01,-0.02 -0.02,-0.02 -0.05,-0.05 -0.07,-0.09 -0.07,-0.09 0,-0.01 -0.01,-0.05 -0.04,-0.12 -0.01,-0.05 -0.04,-0.09 -0.06,-0.11 -0.03,-0.03 -0.05,-0.05 -0.07,-0.07 0,-0.02 -0.02,-0.03 -0.02,-0.04 -0.02,0 -0.04,0.01 -0.05,0.02 -0.02,0.01 -0.04,0.02 -0.06,0.03 -0.02,0.01 -0.03,0.01 -0.04,0.01 -0.01,0 -0.03,0 -0.04,-0.01 -0.01,-0.01 -0.02,-0.03 -0.02,-0.05 0.01,-0.01 0.02,-0.02 0.03,-0.03 0.02,-0.01 0.02,-0.02 0.02,-0.03l-0.01 -0.02 -0.05 0c-0.01,0 -0.01,0.01 -0.02,0.01 -0.01,0.01 -0.02,0.01 -0.04,0.01l-0.01 0c-0.08,-0.04 -0.11,-0.08 -0.11,-0.11l0.02 -0.05 0 -0.03c0,-0.01 -0.02,-0.04 -0.07,-0.08 -0.02,-0.01 -0.04,-0.03 -0.05,-0.06 -0.01,-0.03 -0.02,-0.04 -0.05,-0.04l-0.01 0c-0.01,0 -0.02,0.01 -0.02,0.01 -0.01,0 -0.02,0 -0.04,0.01 -0.01,0.01 -0.04,0.01 -0.08,0.01 -0.04,-0.02 -0.07,-0.1 -0.1,-0.22 -0.02,-0.11 -0.04,-0.18 -0.04,-0.19 0,-0.01 -0.01,-0.03 -0.02,-0.04 -0.02,0 -0.03,-0.01 -0.04,-0.02 -0.01,-0.02 -0.03,-0.04 -0.04,-0.08 -0.01,-0.04 -0.03,-0.05 -0.06,-0.05 -0.04,0 -0.06,0.01 -0.08,0.03 -0.01,0.02 -0.05,0.03 -0.12,0.03 -0.03,-0.02 -0.05,-0.04 -0.05,-0.06l0 -0.01 0.02 -0.07c0,-0.03 -0.01,-0.04 -0.02,-0.05 -0.03,-0.08 -0.07,-0.12 -0.1,-0.13 -0.02,-0.01 -0.07,-0.02 -0.11,-0.02 -0.14,0 -0.23,-0.04 -0.27,-0.13 -0.01,-0.03 -0.03,-0.05 -0.06,-0.06 -0.2,-0.08 -0.35,-0.21 -0.47,-0.4 -0.01,-0.03 -0.03,-0.06 -0.04,-0.07 -0.01,-0.02 -0.02,-0.03 -0.02,-0.04 -0.01,-0.02 -0.01,-0.03 -0.01,-0.05 0,-0.01 0.01,-0.02 0.01,-0.04 0.01,-0.01 0.02,-0.02 0.02,-0.03l0.01 -0.03c0,-0.01 -0.01,-0.02 -0.02,-0.03 -0.01,-0.01 -0.03,-0.01 -0.04,-0.02l0 -0.01 -0.03 0c-0.01,0.02 -0.06,0.03 -0.13,0.03l-0.04 0.03c-0.05,0.23 -0.1,0.46 -0.18,0.68 -0.07,0.23 -0.14,0.46 -0.2,0.69 -0.22,0.75 -0.36,1.33 -0.41,1.74 -0.04,0.23 -0.09,0.46 -0.15,0.7l-0.07 0.34c-0.06,0.32 -0.11,0.49 -0.14,0.51 -0.11,0.31 -0.16,0.61 -0.17,0.88l0.01 0.03c0,0.13 -0.05,0.21 -0.15,0.25 -0.1,0.04 -0.25,0.05 -0.45,0.05 -0.22,0 -0.4,-0.02 -0.55,-0.07 -0.15,-0.05 -0.3,-0.08 -0.46,-0.08 -0.17,-0.03 -0.3,-0.03 -0.39,-0.03 -0.06,0 -0.12,0.01 -0.16,0.05 -0.01,0 -0.02,0.01 -0.02,0.03 -0.08,0.08 -0.19,0.12 -0.32,0.12 -0.23,0 -0.53,-0.03 -0.86,-0.07 -0.04,0 -0.05,-0.02 -0.05,-0.06l0 -0.02c0.01,-0.01 0.01,-0.02 0.01,-0.03 0.07,-0.33 0.14,-0.5 0.23,-0.51 0.01,0 0.02,-0.01 0.03,-0.03l0.01 0 0 -0.02 -0.01 0 0 0.02c-0.07,0 -0.1,-0.04 -0.1,-0.11 0,-0.03 0.01,-0.05 0.05,-0.07l0.01 0 0.01 -0.03c-0.01,0 -0.02,0 -0.02,-0.01 -0.01,-0.01 -0.02,-0.02 -0.03,-0.04l0 -0.02 0.01 -0.03 0.04 -0.01 0.03 0.01 0.04 0 0.05 -0.05c0,-0.04 0,-0.06 -0.01,-0.07 -0.05,-0.02 -0.08,-0.04 -0.1,-0.06 -0.01,-0.01 -0.02,-0.03 -0.02,-0.06 0.01,-0.1 0.06,-0.22 0.17,-0.35 0.01,-0.02 0.03,-0.04 0.05,-0.06 0.01,-0.02 0.03,-0.04 0.04,-0.05 0.01,-0.01 0.02,-0.03 0.02,-0.04 0,-0.02 -0.01,-0.04 -0.03,-0.06 -0.01,-0.02 -0.03,-0.04 -0.05,-0.07 -0.02,-0.03 -0.04,-0.05 -0.05,-0.06l0 -0.05c0,-0.03 0.03,-0.07 0.09,-0.12 0.03,-0.04 0.05,-0.06 0.05,-0.08 0,-0.05 0.01,-0.09 0.03,-0.1 0.02,-0.02 0.04,-0.04 0.05,-0.05 0.02,-0.02 0.04,-0.03 0.06,-0.04 0.02,-0.02 0.03,-0.04 0.05,-0.08 0.01,-0.03 0.05,-0.05 0.12,-0.05l0.02 0c0.02,-0.03 0.03,-0.04 0.03,-0.05 0,-0.06 0,-0.1 -0.01,-0.11 0,-0.02 0,-0.04 0,-0.06 0,-0.03 0.01,-0.06 0.04,-0.1 0.01,0 0.02,0 0.02,-0.01 0,-0.01 -0.01,-0.01 -0.02,-0.02l-0.01 0c-0.01,0.01 -0.03,0.02 -0.07,0.02l-0.02 -0.01 0 -0.76c0,-0.13 0.04,-0.22 0.13,-0.29 0.09,-0.06 0.14,-0.13 0.14,-0.2l0 -0.02 -0.01 0c-0.02,-0.03 -0.04,-0.05 -0.07,-0.08l0 -0.01c0.01,0 0.01,-0.01 0.01,-0.01l0 -0.02c0.08,-0.04 0.12,-0.06 0.12,-0.07 0,-0.04 0,-0.07 0,-0.07 -0.01,-0.02 -0.01,-0.03 -0.02,-0.04l0 -0.01c-0.03,-0.04 -0.04,-0.09 -0.04,-0.14 0,-0.07 0.06,-0.16 0.16,-0.25 0.01,-0.02 0.03,-0.04 0.04,-0.05 0.02,-0.01 0.02,-0.02 0.03,-0.03 0.01,-0.01 0.02,-0.02 0.03,-0.05 -0.01,-0.01 -0.02,-0.03 -0.02,-0.05 0,-0.01 0,-0.02 0.01,-0.03 0,0 0.02,-0.02 0.05,-0.05 0.03,-0.03 0.04,-0.1 0.04,-0.22 0,-0.03 0.01,-0.07 0.04,-0.1 0.02,-0.02 0.03,-0.05 0.04,-0.08 0,-0.02 0,-0.03 0,-0.04 0,-0.01 0,-0.02 0,-0.02 -0.01,-0.01 -0.02,-0.02 -0.03,-0.03 -0.03,0 -0.05,-0.02 -0.05,-0.06l0.02 -0.09c0,-0.05 0.02,-0.1 0.03,-0.12 0.02,-0.03 0.05,-0.07 0.07,-0.11 0.06,-0.06 0.1,-0.13 0.12,-0.21 0,-0.05 0.01,-0.08 0.03,-0.1 0.02,-0.02 0.03,-0.03 0.03,-0.04 0,0 -0.01,-0.01 -0.02,-0.01 0,-0.01 -0.02,-0.02 -0.06,-0.05 -0.04,-0.03 -0.06,-0.06 -0.06,-0.09 0,-0.04 0.01,-0.06 0.04,-0.06l0.05 0c0,0 0.01,0.01 0.02,0.01 0,-0.01 0.01,-0.01 0.01,-0.02 0.01,-0.01 0.02,-0.01 0.02,-0.01l0 -0.03 -0.03 -0.04c-0.04,0 -0.05,-0.05 -0.05,-0.13 0,-0.06 0.05,-0.11 0.12,-0.12l0.05 -0.02c0,-0.13 0.02,-0.21 0.08,-0.26l0.01 -0.02c0,-0.02 -0.01,-0.03 -0.03,-0.04 -0.03,-0.02 -0.05,-0.05 -0.08,-0.11 -0.01,-0.01 -0.01,-0.03 -0.01,-0.06 0.03,-0.08 0.09,-0.16 0.16,-0.21l0 -0.01 0.1 -0.1c0.01,0 0.04,-0.03 0.08,-0.08 0.01,-0.03 0.02,-0.06 0.02,-0.09 0,-0.03 0.01,-0.05 0.01,-0.07 0.01,-0.02 0.02,-0.03 0.03,-0.05l-0.06 -0.06c-0.14,-0.13 -0.27,-0.27 -0.4,-0.42 -0.42,-0.4 -0.75,-0.7 -1.01,-0.91 -0.11,-0.07 -0.22,-0.16 -0.32,-0.25l-0.18 -0.15c-0.23,-0.19 -0.54,-0.5 -0.93,-0.9l-0.05 -0.06 0 -0.05c0.04,-0.1 0.33,-0.46 0.88,-1.07 0.16,-0.16 0.26,-0.31 0.3,-0.44 0.01,-0.01 0.04,-0.02 0.08,-0.02 0.01,0.01 0.03,0.02 0.05,0.02 0.07,0 0.13,-0.06 0.16,-0.16 0.02,-0.06 0.04,-0.08 0.07,-0.08l0.04 0.01 0.06 0c0.01,0 0.01,-0.01 0.02,-0.04 0.01,-0.06 0.07,-0.13 0.17,-0.19l0.06 -0.05c0.08,-0.08 0.16,-0.12 0.24,-0.12 0.1,0 0.18,0.05 0.25,0.16 0.26,0.3 0.51,0.51 0.75,0.63 0.19,0.12 0.41,0.28 0.65,0.47 0.02,0.02 0.04,0.03 0.04,0.04 0.01,0 0.02,0 0.03,0 0,-0.02 0.01,-0.03 0.02,-0.05 0.01,-0.02 0.02,-0.04 0.03,-0.07 0.01,-0.02 0.01,-0.03 0.01,-0.04l-0.01 0c-0.01,-0.01 -0.01,-0.04 -0.01,-0.07 0,-0.04 0.02,-0.09 0.06,-0.14 0.02,-0.03 0.04,-0.06 0.04,-0.1 0.02,-0.28 0.07,-0.51 0.16,-0.7 0.04,-0.07 0.15,-0.47 0.35,-1.19 0.08,-0.27 0.14,-0.43 0.16,-0.46l-0.01 -0.03c0,0 0,0.01 0.01,0.01l-0.01 0c-0.04,0.01 -0.07,0.04 -0.11,0.07 -0.38,0.33 -0.74,0.69 -1.07,1.08l-0.15 0.17c-0.02,0.05 -0.06,0.08 -0.11,0.08 -0.03,0 -0.05,-0.01 -0.07,-0.03l-0.02 0c-0.31,-0.13 -0.59,-0.28 -0.85,-0.45l-0.46 -0.28c-0.06,-0.05 -0.13,-0.07 -0.2,-0.07l-0.14 0.02 0 -0.06c0,-0.02 0.02,-0.04 0.03,-0.07 0.01,-0.03 0.01,-0.07 0.01,-0.11 0,-0.07 -0.05,-0.1 -0.18,-0.1l-0.05 0.01c-0.03,0 -0.05,-0.01 -0.05,-0.03 0,-0.02 0,-0.03 0,-0.04l0.07 -0.12c0,-0.01 0,-0.02 -0.01,-0.02 0,-0.01 -0.02,-0.01 -0.05,-0.01l-0.08 0.01c-0.02,0 -0.03,-0.01 -0.04,-0.02 -0.01,-0.02 -0.01,-0.02 -0.01,-0.03 -0.03,-0.05 -0.07,-0.1 -0.13,-0.16 -0.05,-0.06 -0.08,-0.13 -0.08,-0.22 0,-0.09 0.04,-0.2 0.11,-0.32 0.07,-0.12 0.21,-0.28 0.41,-0.48 0.86,-0.89 1.52,-1.53 1.97,-1.91 0.69,-0.55 1.53,-1.04 2.55,-1.47l0.01 0c0.07,-0.02 0.13,-0.08 0.15,-0.19 0.02,-0.02 0.07,-0.04 0.14,-0.04 0.09,0.02 0.15,0.03 0.19,0.03l0.11 -0.01c0.17,-0.07 0.3,-0.11 0.41,-0.14 0.8,-0.25 1.6,-0.37 2.41,-0.37 1.56,0 2.9,0.47 3.99,1.42l0.06 0.06c0.47,0.41 0.83,0.93 1.08,1.57 0.25,0.64 0.38,1.37 0.4,2.18 -0.03,1.48 -0.56,2.86 -1.58,4.14 -0.38,0.49 -0.82,0.93 -1.31,1.32l-0.08 0.07c-0.34,0.28 -0.72,0.52 -1.14,0.72 -0.61,0.31 -1.3,0.57 -2.08,0.79 -0.02,0 -0.03,0 -0.05,0.01 -0.01,0.01 -0.02,0.01 -0.04,0.02l0.05 0.05c0.32,0.27 0.8,0.73 1.46,1.36l0.25 0.27c0.03,0.01 0.17,0.16 0.4,0.43 0.06,0.06 0.19,0.2 0.4,0.44 0.22,0.24 0.44,0.46 0.67,0.68 0.17,0.16 0.33,0.33 0.47,0.49l0.16 0.17c0.1,0.11 0.19,0.24 0.28,0.37 0.2,0.31 0.38,0.53 0.55,0.65 0.01,0 0.01,0 0.01,0.01 0.06,0.03 0.09,0.08 0.09,0.13 0,0.03 -0.02,0.08 -0.07,0.14 -0.17,0.26 -0.39,0.48 -0.64,0.66 -0.15,0.08 -0.28,0.18 -0.4,0.29 -0.11,0.11 -0.19,0.18 -0.24,0.21l-0.03 0.03c-0.05,0 -0.08,0.05 -0.08,0.16 -0.01,0.11 -0.04,0.19 -0.09,0.24 -0.05,0.05 -0.09,0.1 -0.13,0.15l-0.23 0.2c-0.19,0.16 -0.3,0.26 -0.32,0.28 -0.01,0.02 -0.04,0.03 -0.05,0.04zm-3.7 -10.31c0.03,-0.01 0.06,-0.02 0.08,-0.02 0.03,0 0.04,0 0.05,0 0,-0.01 0.01,-0.01 0.01,-0.02l0 -0.03c0.01,0 0.02,-0.01 0.02,-0.02 0,-0.01 0,-0.02 0,-0.04 0.01,-0.01 0.02,-0.02 0.03,-0.02 0.01,0 0.03,0.01 0.07,0.04 0.04,0.02 0.07,0.03 0.1,0.03 0.02,0 0.06,-0.03 0.14,-0.11 0.08,-0.08 0.18,-0.12 0.29,-0.12 0.11,0 0.21,0.01 0.3,0.03l0.04 0c0.03,0 0.05,-0.02 0.06,-0.04 0.02,-0.02 0.04,-0.03 0.06,-0.03l0.07 0c0.08,0 0.14,-0.02 0.2,-0.07l0.04 -0.02c0.04,-0.04 0.09,-0.07 0.13,-0.07 0.05,-0.01 0.08,-0.02 0.1,-0.02 0.03,-0.01 0.05,-0.03 0.07,-0.05l-0.02 -0.09c0,-0.02 0.02,-0.04 0.04,-0.05 0.02,0 0.05,-0.01 0.07,-0.01 0.02,0 0.02,-0.01 0.02,-0.02 0.03,-0.03 0.11,-0.05 0.24,-0.08 0.08,-0.01 0.16,-0.05 0.23,-0.1 0,-0.01 0.02,-0.02 0.04,-0.02 0.03,0 0.04,-0.02 0.04,-0.06l0 -0.07c0,-0.02 0.03,-0.08 0.08,-0.18 0.02,-0.03 0.04,-0.05 0.07,-0.05 0.01,0.01 0.02,0.02 0.02,0.04 0,0.02 0.01,0.02 0.05,0.02 0.03,0 0.05,0 0.05,-0.02l0 -0.01 -0.02 -0.09c0.06,-0.12 0.11,-0.18 0.17,-0.18l0.1 0.02 0.03 -0.01c0.01,0 0.01,0 0.01,-0.01 0.02,-0.01 0.03,-0.03 0.05,-0.05 0.01,-0.02 0.03,-0.04 0.05,-0.07 0.02,-0.02 0.06,-0.04 0.1,-0.06l0.03 -0.02 -0.03 -0.2c0,-0.06 0.06,-0.12 0.2,-0.18 0.07,-0.04 0.15,-0.08 0.23,-0.12 0.07,-0.04 0.12,-0.09 0.14,-0.14 0.01,-0.02 0.02,-0.04 0.04,-0.06 0.02,-0.02 0.03,-0.03 0.04,-0.05 0.01,-0.02 0.03,-0.03 0.05,-0.05 0.01,-0.02 0.02,-0.04 0.02,-0.07 -0.01,-0.02 -0.03,-0.03 -0.06,-0.05 -0.02,-0.02 -0.04,-0.05 -0.04,-0.11 0,-0.05 0.03,-0.09 0.08,-0.12 0.08,-0.04 0.13,-0.07 0.14,-0.09l0.03 -0.04c0.05,-0.05 0.08,-0.12 0.08,-0.18l-0.04 -0.15c0,-0.05 0,-0.09 -0.01,-0.13 0,-0.1 0.02,-0.17 0.06,-0.23 0.02,-0.01 0.03,-0.08 0.03,-0.22l0 -0.18c0,-0.36 0.03,-0.57 0.08,-0.63 0.01,-0.02 0.03,-0.03 0.06,-0.05 0.03,-0.01 0.05,-0.02 0.05,-0.05 0,-0.06 -0.03,-0.09 -0.09,-0.09 -0.05,0 -0.1,-0.07 -0.13,-0.22 0,-0.02 -0.02,-0.07 -0.05,-0.15 -0.03,-0.08 -0.06,-0.13 -0.11,-0.14l-0.02 -0.02 0.01 -0.02 0.01 -0.03c-0.01,-0.03 -0.04,-0.05 -0.09,-0.08 -0.05,-0.02 -0.1,-0.05 -0.15,-0.09 -0.01,0 -0.01,-0.01 -0.03,-0.01 -0.01,-0.01 -0.03,-0.02 -0.05,-0.04 -0.02,-0.01 -0.03,-0.01 -0.05,-0.01 -0.02,0 -0.04,-0.01 -0.05,-0.02 -0.02,0 -0.02,-0.01 -0.03,-0.01 -0.08,-0.07 -0.12,-0.11 -0.14,-0.12 -0.01,-0.01 -0.03,-0.01 -0.04,-0.01 -0.02,-0.01 -0.04,-0.02 -0.05,-0.02 -0.22,-0.07 -0.44,-0.14 -0.65,-0.22 -0.11,-0.05 -0.3,-0.08 -0.59,-0.1 -0.55,0 -0.88,0.02 -1,0.06 -0.04,0 -0.07,0.06 -0.09,0.19 -0.07,0.39 -0.17,0.75 -0.29,1.06 -0.34,1.11 -0.68,2.21 -1,3.31 -0.19,0.68 -0.36,1.19 -0.5,1.52l-0.03 0.08 0 0.01 0.03 0.02c0.05,-0.01 0.11,-0.03 0.16,-0.05 0.05,-0.02 0.11,-0.03 0.17,-0.03 0.09,0 0.17,0.02 0.26,0.05 0.03,0.02 0.06,0.03 0.09,0.03l0.04 0zm-27.95 8.56c-0.64,0 -1.24,-0.12 -1.8,-0.36 -0.9,-0.39 -1.59,-1.02 -2.09,-1.88 -0.56,-0.99 -0.84,-2.02 -0.84,-3.1 -0.02,-0.08 -0.03,-0.16 -0.03,-0.24 0.01,-0.5 0.06,-0.99 0.14,-1.44 0.36,-2.25 1.12,-3.94 2.27,-5.08 0.05,-0.05 0.09,-0.12 0.1,-0.19 0.24,-1 0.6,-1.7 1.08,-2.12l0.26 -0.22c0.08,-0.09 0.17,-0.18 0.26,-0.25 0.05,-0.03 0.08,-0.06 0.08,-0.1l0 -0.09c0.01,-0.08 0.09,-0.15 0.25,-0.19 0.1,-0.03 0.22,-0.11 0.37,-0.26 0.34,-0.41 0.83,-0.66 1.45,-0.72 0.1,0 0.23,-0.01 0.36,-0.03 0.04,0 0.07,-0.01 0.11,-0.05 0.04,-0.04 0.1,-0.05 0.17,-0.05l0.07 0.01c0.09,0.01 0.18,0.02 0.27,0.02 0.24,0 0.46,-0.01 0.65,-0.02l0.06 0c0.05,0 0.11,0.01 0.16,0.02 0.05,0.02 0.18,0.04 0.39,0.05 0.04,0 0.08,0.01 0.11,0.01l0 -0.02c0.01,-0.02 0.01,-0.03 0.01,-0.04 0,-0.01 0,-0.01 0,-0.02l0.11 -0.01c0.07,0 0.14,0.02 0.19,0.06l0.05 0.01 0.07 0c0.16,0 0.38,0.07 0.69,0.23l0.8 0.38c0.07,0.04 0.13,0.08 0.19,0.15 0.02,0.05 0.06,0.08 0.12,0.08l0.04 0 0 -0.01 0.01 0c0.03,-0.02 0.06,-0.02 0.09,-0.02 0.16,0 0.33,0.1 0.49,0.31l0 0.02 -0.08 -0.03c-0.02,0 -0.03,0 -0.03,0.02l0.16 0.21c0.02,0.01 0.04,0.02 0.05,0.02l0.09 -0.04 0.07 0.07c0.31,0.28 0.47,0.51 0.47,0.67l-0.01 0.07c0,0.03 0.01,0.06 0.03,0.09 0.21,0.33 0.32,0.57 0.33,0.74l0.01 0.04c0,0.07 0.03,0.13 0.08,0.18 0.16,0.16 0.24,0.27 0.25,0.34l0.02 0.16c0.03,0.14 0.04,0.28 0.04,0.4 -0.02,0.31 -0.06,0.6 -0.12,0.9l-0.03 0.1c0,0.04 0.01,0.07 0.02,0.11 0,0.04 0.01,0.09 0.01,0.14l-0.01 0.15c-0.04,0.11 -0.06,0.22 -0.07,0.34 0,0.11 0.02,0.17 0.05,0.17l0.02 0 0.04 0.04c0.03,0.04 0.04,0.15 0.04,0.31 -0.02,0.13 -0.08,0.24 -0.18,0.35l-0.03 0.04 0.02 0.06c0,0.04 -0.01,0.07 -0.03,0.1 -0.09,0.18 -0.13,0.37 -0.13,0.58l-0.01 0.36c0,0.15 -0.02,0.31 -0.06,0.46 -0.02,0.04 -0.03,0.08 -0.04,0.13 -0.01,0.05 -0.04,0.1 -0.1,0.15 0,0.01 -0.01,0.01 -0.01,0.03 -0.01,0.01 -0.01,0.02 -0.02,0.02 0,0.01 -0.01,0.1 -0.04,0.27 -0.17,0.71 -0.45,1.42 -0.86,2.12l-0.07 0.09c-0.01,0.02 -0.03,0.03 -0.05,0.03l-0.07 -0.01c-0.02,0 -0.04,0.02 -0.04,0.05 -0.1,0.17 -0.15,0.26 -0.15,0.27 0,0 0,0.01 0,0.03 0,0.03 0.01,0.05 0.04,0.07l-0.04 0.11c-0.09,0.28 -0.33,0.68 -0.71,1.18l-0.26 0.34c-0.04,0.06 -0.09,0.13 -0.12,0.2 -0.06,0.17 -0.15,0.24 -0.28,0.24l-0.03 0c-0.03,0 -0.05,0.02 -0.07,0.04l-0.02 0.04c0,0.01 0,0.03 0.01,0.04 0.02,0.01 0.03,0.02 0.03,0.03l-0.1 0.08 -0.27 0.29c-0.13,0.19 -0.3,0.35 -0.48,0.48 -0.04,0.03 -0.07,0.07 -0.1,0.13l-0.05 0.05 -0.01 0c-0.11,0.12 -0.23,0.21 -0.37,0.28 -0.09,0.04 -0.17,0.09 -0.25,0.16 -0.72,0.57 -1.5,0.9 -2.35,1 -0.33,0.05 -0.61,0.07 -0.84,0.07zm0.09 -3.17c0.28,0 0.58,-0.08 0.93,-0.24 0.26,-0.13 0.51,-0.28 0.74,-0.46 0.95,-0.7 1.66,-1.63 2.14,-2.81 0.51,-1.23 0.86,-2.43 1.05,-3.61 0.05,-0.3 0.07,-0.6 0.08,-0.91l0 -0.09c0,-0.4 -0.05,-0.74 -0.17,-1.02 -0.11,-0.28 -0.34,-0.53 -0.7,-0.72 -0.38,-0.2 -0.87,-0.3 -1.45,-0.3 -0.16,0 -0.3,0.02 -0.42,0.05 -0.26,0.09 -0.39,0.16 -0.39,0.23 0,0.03 0,0.05 0.01,0.06l0.01 0.26c0,0.27 -0.13,0.61 -0.38,1.02 -0.13,0.25 -0.2,0.45 -0.21,0.59l0 0.01 -0.02 0 -0.05 -0.03c-0.03,-0.06 -0.08,-0.09 -0.13,-0.09 -0.03,0.01 -0.05,0.03 -0.06,0.05l0 0.07c-0.01,0.02 -0.01,0.07 -0.01,0.14 0,0.01 -0.02,0.02 -0.04,0.02 -0.01,0 -0.02,0 -0.03,0 0,0 -0.01,0 -0.01,-0.01 -0.01,0 -0.01,-0.01 -0.02,-0.01 -0.01,-0.01 -0.02,-0.02 -0.03,-0.02 -0.01,0 -0.02,0.02 -0.02,0.04l0 0.05c0,0.03 -0.04,0.1 -0.12,0.21 0,0.03 -0.03,0.07 -0.08,0.11 -0.06,0.11 -0.11,0.17 -0.14,0.19 -0.04,0.02 -0.06,0.07 -0.06,0.14 -0.01,0.14 -0.03,0.42 -0.03,0.86l0 0.13c0,0.72 0.14,1.35 0.42,1.88l0.05 0.08c0.03,0.08 0.04,0.16 0.04,0.24l0 0.05c0,0.09 -0.01,0.16 -0.03,0.2 -0.08,0.14 -0.18,0.28 -0.3,0.41 -0.11,0.14 -0.27,0.23 -0.45,0.27 -0.14,0.03 -0.27,0.12 -0.38,0.26 -0.08,0.07 -0.16,0.14 -0.25,0.19 -0.05,0.02 -0.08,0.06 -0.08,0.13l0 0.03c0,0.11 0.02,0.23 0.07,0.38l0.01 0.13c0,0.19 -0.1,0.38 -0.28,0.57 -0.03,0.03 -0.06,0.05 -0.1,0.08l-0.25 0.29c-0.01,0.01 -0.03,0.02 -0.05,0.02 -0.03,0 -0.06,-0.03 -0.1,-0.08 -0.01,-0.01 -0.01,-0.02 -0.02,-0.04 -0.01,-0.01 -0.02,-0.03 -0.03,-0.06 -0.01,-0.02 -0.04,-0.05 -0.07,-0.07l-0.01 0 0 0.01c0.18,0.59 0.54,0.95 1.08,1.09 0.12,0.02 0.23,0.03 0.34,0.03zm12.61 3.17c-0.64,0 -1.24,-0.12 -1.8,-0.36 -0.9,-0.39 -1.59,-1.02 -2.09,-1.88 -0.56,-0.99 -0.84,-2.02 -0.84,-3.1 -0.02,-0.08 -0.02,-0.16 -0.02,-0.24 0,-0.5 0.05,-0.99 0.13,-1.44 0.36,-2.25 1.12,-3.94 2.28,-5.08 0.04,-0.05 0.08,-0.12 0.09,-0.19 0.24,-1 0.6,-1.7 1.08,-2.12l0.26 -0.22c0.08,-0.09 0.17,-0.18 0.26,-0.25 0.05,-0.03 0.08,-0.06 0.08,-0.1l0 -0.09c0.01,-0.08 0.09,-0.15 0.25,-0.19 0.1,-0.03 0.22,-0.11 0.37,-0.26 0.34,-0.41 0.83,-0.66 1.45,-0.72 0.1,0 0.23,-0.01 0.36,-0.03 0.04,0 0.07,-0.01 0.11,-0.05 0.04,-0.04 0.1,-0.05 0.17,-0.05l0.07 0.01c0.09,0.01 0.18,0.02 0.27,0.02 0.24,0 0.46,-0.01 0.65,-0.02l0.06 0c0.05,0 0.11,0.01 0.16,0.02 0.05,0.02 0.18,0.04 0.39,0.05 0.04,0 0.08,0.01 0.11,0.01l0 -0.02c0.01,-0.02 0.01,-0.03 0.01,-0.04 0,-0.01 0,-0.01 0,-0.02l0.11 -0.01c0.07,0 0.14,0.02 0.19,0.06l0.05 0.01 0.08 0c0.15,0 0.37,0.07 0.68,0.23l0.8 0.38c0.07,0.04 0.13,0.08 0.19,0.15 0.02,0.05 0.07,0.08 0.12,0.08l0.04 0 0 -0.01 0.01 0c0.03,-0.02 0.06,-0.02 0.09,-0.02 0.16,0 0.33,0.1 0.49,0.31l0 0.02 -0.08 -0.03c-0.02,0 -0.03,0 -0.03,0.02l0.17 0.21c0.01,0.01 0.03,0.02 0.04,0.02l0.09 -0.04 0.07 0.07c0.31,0.28 0.47,0.51 0.47,0.67l-0.01 0.07c0,0.03 0.01,0.06 0.03,0.09 0.21,0.33 0.32,0.57 0.33,0.74l0.01 0.04c0,0.07 0.03,0.13 0.08,0.18 0.16,0.16 0.24,0.27 0.25,0.34l0.02 0.16c0.03,0.14 0.04,0.28 0.04,0.4 -0.02,0.31 -0.06,0.6 -0.12,0.9l-0.03 0.1c0,0.04 0.01,0.07 0.02,0.11 0,0.04 0.01,0.09 0.01,0.14l-0.01 0.15c-0.04,0.11 -0.06,0.22 -0.06,0.34 0,0.11 0.01,0.17 0.04,0.17l0.02 0 0.04 0.04c0.03,0.04 0.04,0.15 0.04,0.31 -0.02,0.13 -0.08,0.24 -0.18,0.35l-0.03 0.04 0.02 0.06c0,0.04 -0.01,0.07 -0.03,0.1 -0.09,0.18 -0.13,0.37 -0.13,0.58l-0.01 0.36c0,0.15 -0.02,0.31 -0.06,0.46 -0.02,0.04 -0.03,0.08 -0.04,0.13 -0.01,0.05 -0.04,0.1 -0.1,0.15 0,0.01 -0.01,0.01 -0.01,0.03 -0.01,0.01 -0.01,0.02 -0.01,0.02 -0.01,0.01 -0.02,0.1 -0.05,0.27 -0.16,0.71 -0.45,1.42 -0.86,2.12l-0.07 0.09c-0.01,0.02 -0.03,0.03 -0.05,0.03l-0.06 -0.01c-0.03,0 -0.05,0.02 -0.05,0.05 -0.1,0.17 -0.15,0.26 -0.15,0.27 0,0 0,0.01 0,0.03 0,0.03 0.01,0.05 0.04,0.07l-0.04 0.11c-0.09,0.28 -0.33,0.68 -0.71,1.18l-0.26 0.34c-0.04,0.06 -0.09,0.13 -0.12,0.2 -0.06,0.17 -0.15,0.24 -0.28,0.24l-0.03 0c-0.03,0 -0.05,0.02 -0.07,0.04l-0.02 0.04c0,0.01 0,0.03 0.02,0.04 0.01,0.01 0.02,0.02 0.02,0.03l-0.1 0.08 -0.27 0.29c-0.13,0.19 -0.3,0.35 -0.48,0.48 -0.04,0.03 -0.07,0.07 -0.1,0.13l-0.05 0.05 -0.01 0c-0.11,0.12 -0.23,0.21 -0.37,0.28 -0.09,0.04 -0.17,0.09 -0.25,0.16 -0.72,0.57 -1.5,0.9 -2.35,1 -0.33,0.05 -0.61,0.07 -0.84,0.07zm0.09 -3.17c0.28,0 0.58,-0.08 0.93,-0.24 0.26,-0.13 0.51,-0.28 0.74,-0.46 0.95,-0.7 1.66,-1.63 2.14,-2.81 0.51,-1.23 0.86,-2.43 1.05,-3.61 0.05,-0.3 0.07,-0.6 0.08,-0.91l0 -0.09c0,-0.4 -0.05,-0.74 -0.17,-1.02 -0.11,-0.28 -0.34,-0.53 -0.7,-0.72 -0.38,-0.2 -0.87,-0.3 -1.45,-0.3 -0.16,0 -0.3,0.02 -0.42,0.05 -0.26,0.09 -0.39,0.16 -0.39,0.23 0,0.03 0,0.05 0.01,0.06l0.01 0.26c0,0.27 -0.13,0.61 -0.38,1.02 -0.13,0.25 -0.2,0.45 -0.21,0.59l0 0.01 -0.02 0 -0.05 -0.03c-0.03,-0.06 -0.08,-0.09 -0.13,-0.09 -0.03,0.01 -0.05,0.03 -0.06,0.05l0 0.07c-0.01,0.02 -0.01,0.07 -0.01,0.14 0,0.01 -0.02,0.02 -0.04,0.02 -0.01,0 -0.02,0 -0.03,0 0,0 -0.01,0 -0.01,-0.01 -0.01,0 -0.01,-0.01 -0.02,-0.01 -0.01,-0.01 -0.02,-0.02 -0.03,-0.02 -0.01,0 -0.02,0.02 -0.02,0.04l0 0.05c0,0.03 -0.04,0.1 -0.12,0.21 0,0.03 -0.03,0.07 -0.08,0.11 -0.06,0.11 -0.11,0.17 -0.14,0.19 -0.04,0.02 -0.06,0.07 -0.06,0.14 -0.01,0.14 -0.03,0.42 -0.03,0.86l0 0.13c0,0.72 0.14,1.35 0.42,1.88l0.05 0.08c0.03,0.08 0.04,0.16 0.04,0.24l0 0.05c0,0.09 -0.01,0.16 -0.03,0.2 -0.08,0.14 -0.18,0.28 -0.3,0.41 -0.11,0.14 -0.27,0.23 -0.45,0.27 -0.14,0.03 -0.27,0.12 -0.38,0.26 -0.08,0.07 -0.16,0.14 -0.25,0.19 -0.05,0.02 -0.08,0.06 -0.08,0.13l0 0.03c0,0.11 0.02,0.23 0.07,0.38l0.01 0.13c0,0.19 -0.1,0.38 -0.28,0.57 -0.03,0.03 -0.06,0.05 -0.1,0.08l-0.25 0.29c-0.01,0.01 -0.03,0.02 -0.05,0.02 -0.03,0 -0.06,-0.03 -0.1,-0.08 -0.01,-0.01 -0.01,-0.02 -0.02,-0.04 -0.01,-0.01 -0.02,-0.03 -0.03,-0.06 -0.01,-0.02 -0.04,-0.05 -0.07,-0.07l-0.01 0 0 0.01c0.18,0.59 0.54,0.95 1.08,1.09 0.12,0.02 0.23,0.03 0.34,0.03zm-42.62 5.32c-0.22,0 -0.43,-0.04 -0.65,-0.11 -0.13,-0.04 -0.26,-0.07 -0.39,-0.08 -0.13,-0.01 -0.26,-0.03 -0.38,-0.06 -0.08,0 -0.14,0.02 -0.19,0.06l-0.02 0c-0.08,0.09 -0.16,0.12 -0.25,0.12 -0.18,0 -0.31,0 -0.4,-0.01 -0.09,-0.01 -0.18,-0.02 -0.27,-0.03 -0.09,-0.01 -0.18,-0.03 -0.26,-0.05 -0.04,0 -0.06,-0.02 -0.06,-0.06 0,-0.02 0.01,-0.04 0.03,-0.08 0.05,-0.22 0.09,-0.34 0.1,-0.35l0 -0.02c0.02,-0.04 0.05,-0.06 0.1,-0.06l0.05 -0.02 0 -0.04c-0.06,0 -0.1,-0.03 -0.1,-0.09l0.06 -0.1 -0.01 0 -0.01 -0.05 0.01 -0.02 0.06 -0.02 0.01 0.02c0.06,0 0.09,-0.04 0.09,-0.1l-0.08 -0.05c-0.03,-0.04 -0.05,-0.08 -0.05,-0.1 0,-0.12 0.07,-0.24 0.21,-0.38 0.04,-0.02 0.06,-0.05 0.06,-0.07 0,-0.01 0,-0.02 -0.01,-0.03 -0.01,-0.01 -0.02,-0.03 -0.02,-0.04 -0.01,-0.02 -0.03,-0.03 -0.04,-0.05 -0.01,-0.02 -0.03,-0.04 -0.03,-0.06 -0.01,-0.03 -0.02,-0.04 -0.02,-0.05 0,-0.02 0.01,-0.04 0.03,-0.06 0.01,-0.02 0.02,-0.03 0.06,-0.05 0.03,-0.02 0.04,-0.07 0.04,-0.13 0,-0.01 0,-0.02 0.01,-0.03 0,0 0.01,-0.01 0.02,-0.01 0.03,-0.03 0.06,-0.06 0.09,-0.08 0.04,-0.02 0.06,-0.05 0.08,-0.08 0.01,-0.04 0.04,-0.06 0.07,-0.06l0.02 0.02 0.04 0c0.04,-0.02 0.06,-0.05 0.06,-0.09 -0.02,-0.03 -0.03,-0.06 -0.03,-0.08 -0.01,-0.03 -0.01,-0.04 -0.01,-0.05 0,-0.03 0.02,-0.06 0.05,-0.07l0 -0.03c0,0 0,-0.01 -0.01,-0.01l-0.04 0 -0.02 0.01c-0.01,0 -0.01,0 -0.01,-0.01l-0.03 0 0 -0.71c0,-0.11 0.05,-0.2 0.14,-0.28 0.01,-0.01 0.03,-0.02 0.04,-0.03 0.06,-0.03 0.09,-0.08 0.1,-0.17 0,-0.01 0.25,-0.83 0.76,-2.47 -0.02,0 -0.03,-0.01 -0.03,-0.04 0,0 0,-0.01 0,-0.02 0,-0.01 0.01,-0.02 0.03,-0.03 0.07,0 0.11,-0.03 0.11,-0.08 0,-0.01 -0.01,-0.03 -0.03,-0.06 -0.02,-0.02 -0.03,-0.07 -0.03,-0.14 0,-0.08 0.04,-0.15 0.12,-0.23l0.01 -0.03 0.1 -0.08 0 -0.07c0,-0.02 0.01,-0.04 0.03,-0.06 0.03,0 0.06,-0.04 0.08,-0.13l0 -0.09c0,-0.04 0,-0.08 0.02,-0.12 0.02,-0.04 0.04,-0.07 0.04,-0.09 0,0 -0.01,-0.02 -0.01,-0.03 -0.01,-0.02 -0.02,-0.03 -0.04,-0.03 -0.03,-0.01 -0.04,-0.03 -0.04,-0.07 0.02,-0.03 0.03,-0.06 0.04,-0.09 0.01,-0.03 0.01,-0.05 0.01,-0.06 0.01,-0.01 0.02,-0.02 0.02,-0.04 0.11,-0.13 0.17,-0.23 0.17,-0.3 0.01,-0.03 0.03,-0.06 0.05,-0.09 0,-0.03 -0.01,-0.05 -0.02,-0.06 -0.02,-0.02 -0.04,-0.03 -0.07,-0.05 -0.03,-0.02 -0.04,-0.04 -0.04,-0.07 0.01,-0.04 0.03,-0.06 0.06,-0.06l0.05 0.02c0.03,0 0.04,-0.02 0.04,-0.05 0,-0.01 -0.01,-0.02 -0.01,-0.02 -0.01,-0.01 -0.02,-0.01 -0.02,-0.02 -0.01,0 -0.02,0 -0.03,0 -0.01,-0.01 -0.02,-0.04 -0.02,-0.11 0,-0.05 0.01,-0.09 0.03,-0.11l0.01 0c0.02,-0.01 0.05,-0.03 0.08,-0.03 0.03,-0.01 0.05,-0.05 0.05,-0.11 0,-0.06 0.02,-0.12 0.07,-0.16 0,-0.02 0,-0.04 -0.01,-0.05 -0.01,-0.01 -0.02,-0.03 -0.04,-0.04 -0.01,-0.01 -0.03,-0.03 -0.04,-0.06 -0.01,0 -0.02,-0.02 -0.02,-0.05 0.02,-0.06 0.09,-0.15 0.21,-0.27l0.11 -0.1c0.01,-0.01 0.02,-0.04 0.03,-0.08 0,-0.04 0.02,-0.08 0.06,-0.13l0.04 -0.07c0,-0.01 -0.01,-0.02 -0.01,-0.04 -0.01,-0.02 -0.02,-0.03 -0.04,-0.03 -0.06,-0.01 -0.1,-0.05 -0.1,-0.13 0,-0.05 0.03,-0.08 0.08,-0.09 0.01,-0.01 0.04,-0.03 0.08,-0.08 0,-0.01 0,-0.02 0.01,-0.03 0.03,-0.05 0.05,-0.1 0.05,-0.15l0 -0.02c0,-0.03 -0.01,-0.08 -0.03,-0.14 -0.02,-0.07 -0.03,-0.11 -0.03,-0.14 0,-0.05 0.02,-0.09 0.05,-0.13 0.03,-0.04 0.05,-0.1 0.05,-0.17 0.01,-0.21 0.05,-0.39 0.12,-0.55l0.1 -0.22c0.01,-0.02 0.02,-0.04 0.04,-0.06 0.02,-0.02 0.05,-0.03 0.09,-0.03 0.05,0 0.08,-0.04 0.09,-0.1 0,-0.03 0,-0.04 -0.01,-0.04 -0.04,-0.01 -0.06,-0.06 -0.06,-0.14 0,-0.1 0.02,-0.19 0.07,-0.28 0.04,-0.08 0.07,-0.15 0.09,-0.21l0.01 -0.21c0.02,-0.03 0.05,-0.05 0.1,-0.05l0.02 -0.01c-0.01,-0.01 -0.01,-0.02 -0.02,-0.03 0,-0.01 0,-0.03 0,-0.05l0.01 -0.04 0.02 -0.17c0,-0.05 0.01,-0.09 0.03,-0.11 0.01,-0.03 0.02,-0.05 0.02,-0.06 0,-0.01 0,-0.02 -0.01,-0.03 -0.01,-0.02 -0.01,-0.04 -0.01,-0.07 0,-0.02 0,-0.04 0.01,-0.06 0.05,-0.08 0.08,-0.18 0.08,-0.27 0.03,-0.18 0.07,-0.35 0.12,-0.51 0.05,-0.11 0.1,-0.29 0.16,-0.53 0.05,-0.25 0.12,-0.49 0.2,-0.72 0.14,-0.4 0.22,-0.69 0.25,-0.86 0.06,-0.32 0.15,-0.64 0.26,-0.95 0.02,-0.05 0.04,-0.09 0.04,-0.13l0.01 -0.01c0,-0.01 -0.01,-0.02 -0.01,-0.02l0 -0.02 -0.22 -0.04c-0.18,0.07 -0.38,0.1 -0.6,0.1 -0.21,0 -0.36,0 -0.44,0.01 -0.56,0.06 -0.99,0.09 -1.29,0.09l-0.33 0.03 -0.1 0.02c-0.31,0.04 -0.53,0.08 -0.64,0.09 0.03,0.02 0.05,0.06 0.05,0.12 0,0.11 -0.04,0.17 -0.12,0.19l-0.04 0.03 0 0.02c0.01,0.01 0.02,0.01 0.04,0.01l0 0.02 0.04 0 0.02 0.01c0,0.05 -0.02,0.1 -0.06,0.14 0,0.01 -0.01,0.02 -0.04,0.02l-0.06 -0.03c-0.01,0.03 -0.02,0.05 -0.03,0.07 -0.02,0.03 -0.03,0.05 -0.05,0.08 -0.01,0.03 -0.01,0.05 -0.01,0.06 0,0.04 0.01,0.07 0.05,0.09 0,0.01 0.01,0.01 0.02,0.01 0.02,0.03 0.03,0.07 0.03,0.12l0 0.01c0,0.16 -0.06,0.35 -0.19,0.58 -0.09,0.2 -0.17,0.33 -0.21,0.39 -0.03,0.03 -0.04,0.06 -0.04,0.1l0.01 0.06c0.04,0.1 0.06,0.2 0.06,0.29 0,0.09 -0.04,0.18 -0.11,0.27 -0.08,0.08 -0.12,0.19 -0.12,0.33l-0.14 0.21 -0.09 0.09 -0.07 0.18c0,0.01 -0.01,0.02 -0.02,0.03 0,0 -0.01,0.01 -0.04,0.01 -0.1,0 -0.15,0.08 -0.15,0.24l0 0.19c0,0.07 -0.04,0.13 -0.12,0.17 0,0 0,0 0,0.01 0,0.01 0,0.02 0,0.03 0,0 0,0.01 0,0.02 0,0.01 0,0.01 0,0.01l0.03 0c0.01,0 0.03,-0.02 0.07,-0.06l0.03 0 0 0.12c-0.2,1 -0.3,1.53 -0.33,1.6 -0.06,0.16 -0.15,0.3 -0.28,0.44 -0.02,0.02 -0.03,0.05 -0.04,0.09 -0.02,0.07 -0.05,0.13 -0.09,0.19l-0.01 0.05c0,0.02 0.01,0.04 0.02,0.05 0.02,0.01 0.03,0.03 0.05,0.04 0.01,0.02 0.02,0.04 0.02,0.06 -0.01,0.04 -0.06,0.08 -0.14,0.12 -0.06,0.05 -0.09,0.12 -0.09,0.22l0 0.07c0,0.04 0.01,0.08 0.01,0.12 -0.01,0.15 -0.06,0.3 -0.13,0.45l-0.17 0.24c-0.11,0.14 -0.16,0.22 -0.17,0.24l0.02 0.1c0,0.01 0,0.03 -0.02,0.05 -0.11,0.12 -0.17,0.25 -0.19,0.39l-0.07 0.24c-0.07,0.13 -0.12,0.27 -0.16,0.42l0.01 0c0.01,0 0.03,0.01 0.04,0.01 0.01,0 0.02,0.01 0.03,0.03 0,0.07 -0.02,0.11 -0.06,0.14 -0.03,0.02 -0.05,0.06 -0.05,0.11 0,0.04 -0.01,0.07 -0.02,0.1 -0.02,0.02 -0.03,0.05 -0.05,0.09 -0.02,0.04 -0.04,0.08 -0.06,0.13 -0.19,0.27 -0.29,0.47 -0.33,0.61 -0.01,0.06 -0.05,0.1 -0.09,0.13l-0.04 0.05 0 0.01c0,0.02 0.01,0.03 0.01,0.04l0.02 0.01c0.03,0.03 0.05,0.08 0.05,0.16l0 0.03c0,0.07 -0.03,0.13 -0.07,0.17 0,0.02 0,0.02 -0.02,0.02l-0.02 -0.04c-0.03,0 -0.04,0 -0.04,0.01 -0.03,0.03 -0.06,0.07 -0.08,0.12l0.02 0.05c0.01,0 0.01,0 0.02,0.01 0.01,0.01 0.01,0.02 0.01,0.04l-0.09 0.28c-0.03,0.11 -0.08,0.17 -0.17,0.19 -0.02,0.01 -0.04,0.01 -0.06,0.02 -0.03,0.05 -0.08,0.15 -0.13,0.29 -0.01,0.03 -0.04,0.08 -0.08,0.13 -0.01,0.04 -0.05,0.08 -0.12,0.13l-0.05 0.07 0.02 0.05c0,0.06 0,0.12 0.01,0.18 0,0.14 -0.14,0.34 -0.43,0.6l-0.4 0.3c-0.1,0.05 -0.17,0.13 -0.23,0.23 -0.03,0.06 -0.07,0.1 -0.12,0.14 -0.01,0 -0.04,0.03 -0.1,0.08 -0.08,0.05 -0.14,0.12 -0.19,0.2 -0.01,0.01 -0.01,0.02 -0.01,0.05 0,0 0.01,0.03 0.04,0.06 -0.1,0.25 -0.26,0.38 -0.46,0.39l-0.06 0.02c0,0 -0.01,0.01 -0.01,0.01 -0.04,0.05 -0.07,0.08 -0.1,0.1 -0.27,0.13 -0.46,0.28 -0.55,0.44l-0.13 0.14c-0.1,0.13 -0.23,0.23 -0.38,0.31l-0.12 0.08c-0.01,0.01 -0.02,0.02 -0.04,0.03 -0.02,0 -0.05,0.01 -0.09,0.01 -0.04,0 -0.08,0.01 -0.11,0.05 -0.77,0.55 -1.68,0.83 -2.73,0.83 -0.09,0 -0.15,-0.02 -0.16,-0.06 -0.01,-0.04 -0.05,-0.06 -0.11,-0.06 -0.21,0 -0.34,-0.01 -0.39,-0.01 -0.01,-0.01 -0.01,0 -0.02,0.01 0,0 -0.01,0.01 -0.01,0.02l0 0.01c0,0.01 -0.01,0.02 -0.01,0.02 -0.01,0.01 -0.03,0.01 -0.07,0.01 -0.78,0 -1.52,-0.31 -2.22,-0.93l-0.15 -0.13c-0.12,-0.06 -0.21,-0.15 -0.26,-0.27l0 -0.08 0.02 -0.04c0,-0.03 -0.03,-0.06 -0.07,-0.1 0,0 -0.01,-0.01 -0.02,-0.01l0 0.01 -0.05 -0.01c-0.01,-0.01 -0.02,-0.02 -0.04,-0.04 -0.01,-0.02 -0.03,-0.05 -0.05,-0.09l-0.23 -0.36c-0.12,-0.17 -0.2,-0.35 -0.24,-0.54 -0.01,-0.05 -0.03,-0.09 -0.06,-0.11 -0.03,-0.02 -0.06,-0.05 -0.07,-0.09 -0.06,-0.13 -0.09,-0.27 -0.09,-0.4 0,-0.07 -0.01,-0.13 -0.03,-0.2 -0.12,-0.4 -0.17,-0.82 -0.17,-1.26l0 -0.09c0,-0.21 0.01,-0.41 0.04,-0.6 0,-0.14 0.02,-0.34 0.05,-0.61 0,-0.14 0.03,-0.35 0.08,-0.64 0.11,-0.87 0.25,-1.61 0.44,-2.23l0.17 -0.79c0.13,-0.66 0.29,-1.33 0.5,-1.98l0.42 -1.34c0.2,-0.77 0.44,-1.59 0.72,-2.45l0 -0.02c0.27,-0.8 0.57,-1.59 0.89,-2.36l0.04 -0.11c0.02,-0.07 0.05,-0.14 0.08,-0.2 0.03,-0.07 0.08,-0.1 0.16,-0.1 0.33,0 0.6,0.02 0.82,0.07l0.65 0.16 0.14 0.01c0.08,0 0.16,-0.03 0.23,-0.08l0.06 -0.02 0 0.05c0,0.02 0,0.05 -0.01,0.08 -0.01,0.03 -0.01,0.08 -0.01,0.15 0,0.05 0.01,0.08 0.03,0.09 0.02,0.01 0.04,0.02 0.07,0.02l0.14 -0.09 0.05 0c0.02,0 0.03,0.01 0.03,0.04 -0.01,0.01 -0.01,0.03 -0.02,0.06l0 0.04 -0.04 0.02c0,0.03 0,0.05 0.01,0.06l0 0.01c0.03,0 0.05,0 0.07,-0.01 0.02,-0.01 0.04,-0.02 0.05,-0.03 0.02,0 0.03,-0.01 0.04,-0.01 0.01,0.01 0.02,0.02 0.04,0.03l0.01 0c0.04,0.05 0.09,0.09 0.14,0.12 0.11,0.05 0.16,0.14 0.17,0.25 -0.01,0.2 -0.07,0.45 -0.2,0.75 -0.37,0.86 -0.68,1.83 -0.93,2.9 -0.11,0.41 -0.22,0.82 -0.34,1.23l-0.32 1.05c-0.49,1.71 -0.84,3.13 -1.04,4.27l-0.04 0.21c-0.06,0.41 -0.11,0.79 -0.15,1.15 -0.03,0.26 -0.04,0.59 -0.05,1 0,0.49 0.1,0.96 0.3,1.41 0.11,0.26 0.3,0.4 0.57,0.43 0.24,0 0.43,-0.02 0.58,-0.05 0.5,-0.13 1.05,-0.41 1.65,-0.86 0.79,-0.6 1.38,-1.26 1.77,-1.99 0.15,-0.27 0.29,-0.54 0.41,-0.82l0.13 -0.29c0.46,-1.04 0.87,-2.09 1.24,-3.15l0.01 -0.03c0.3,-0.81 0.55,-1.58 0.75,-2.33l0.56 -1.94c0.1,-0.4 0.25,-0.88 0.44,-1.43 0.09,-0.27 0.16,-0.52 0.21,-0.77l-0.05 0.01 -0.05 -0.01c-0.07,0 -0.16,-0.29 -0.27,-0.86l-0.03 -0.24c-0.03,-0.15 -0.05,-0.29 -0.07,-0.42 -0.02,-0.14 -0.07,-0.26 -0.14,-0.35 0.01,-0.03 0.02,-0.05 0.02,-0.05 0.01,0 0.01,0 0.03,-0.02 0.02,-0.01 0.03,-0.03 0.05,-0.04 0.02,-0.01 0.03,-0.03 0.03,-0.05 0,-0.05 -0.01,-0.1 -0.04,-0.13l-0.05 -0.1c0,-0.04 0.01,-0.06 0.02,-0.06 0.02,-0.01 0.03,-0.01 0.04,-0.02 0.02,0 0.02,-0.01 0.02,-0.02 0,-0.01 0,-0.02 0,-0.04 -0.01,-0.01 -0.02,-0.03 -0.03,-0.05 -0.01,-0.01 -0.02,-0.04 -0.02,-0.08l0 -0.09 0.03 -0.22c0.01,-0.14 0.11,-0.23 0.32,-0.26l0.17 -0.01c0.29,-0.03 0.85,-0.13 1.69,-0.32 0.22,-0.04 0.44,-0.08 0.66,-0.09 0.19,-0.01 0.37,-0.02 0.56,-0.05l1.28 -0.11c0.11,-0.02 0.22,-0.03 0.33,-0.04l1.53 -0.1 0.39 -0.02c0.16,0 0.41,-0.01 0.74,-0.01 0.45,0 0.83,-0.01 1.13,-0.04 0.31,-0.03 0.62,-0.06 0.92,-0.09l0.59 -0.06c0.54,-0.03 1.08,-0.06 1.62,-0.07l0.24 -0.01c0.27,-0.02 0.55,-0.03 0.83,-0.03 1.18,0 1.98,-0.02 2.4,-0.07 0.03,-0.02 0.2,-0.03 0.49,-0.05 0.05,0 0.09,0 0.13,-0.01 0.14,-0.01 0.28,-0.02 0.41,-0.03 0.14,0 0.28,-0.01 0.42,-0.01l0.52 0.01c0.19,0 0.37,-0.02 0.56,-0.08l0.07 -0.01c0.14,0 0.23,0.16 0.29,0.49 0.04,0.13 0.06,0.31 0.06,0.53l0 0.17c0,0.15 0.01,0.29 0.03,0.4 0.01,0.1 0.02,0.19 0.02,0.28 0,0.1 0.03,0.16 0.1,0.2l0.01 0c0.01,0.01 0.01,0.02 0.01,0.02 0.15,0.09 0.23,0.32 0.24,0.68l0 0.1c0,0.05 0.01,0.09 0.04,0.13l-0.02 0.27 -0.03 0.02 -0.35 0c-0.07,0 -0.12,-0.01 -0.14,-0.02 -0.02,-0.01 -0.03,-0.03 -0.03,-0.07 -0.01,0 -0.01,0 -0.01,0 0,-0.01 -0.01,-0.01 -0.02,-0.02l-0.03 0 -0.01 0.01 0.01 0.04c-0.01,0.05 -0.04,0.08 -0.1,0.08 -0.01,0 -0.01,0 -0.02,-0.01 -0.01,-0.01 -0.02,-0.02 -0.03,-0.03 -0.01,0 -0.03,-0.01 -0.04,-0.01l-0.03 0.05 -0.05 -0.01c-0.01,-0.02 -0.01,-0.04 -0.01,-0.07 -0.01,-0.03 -0.03,-0.05 -0.06,-0.05 -0.03,0 -0.05,0 -0.05,0.02 -0.01,0.01 -0.01,0.02 -0.02,0.05 -0.01,0.02 -0.02,0.03 -0.04,0.05 0,0.03 -0.05,0.05 -0.15,0.05 -0.05,0 -0.09,-0.01 -0.13,-0.03 -0.04,-0.02 -0.08,-0.04 -0.11,-0.05 -0.04,-0.01 -0.06,-0.02 -0.06,-0.03 -0.01,-0.01 -0.02,-0.01 -0.03,-0.01 -0.01,0 -0.01,-0.01 -0.02,-0.01 0,-0.01 -0.01,-0.02 -0.02,-0.02 -0.01,0 -0.01,0 -0.03,0.01 -0.01,0 -0.02,0.01 -0.03,0.02 -0.01,0.02 -0.03,0.03 -0.04,0.05 -0.02,0.02 -0.04,0.04 -0.06,0.07 -0.02,0.02 -0.04,0.03 -0.06,0.03 -0.07,0 -0.11,-0.01 -0.13,-0.04l-0.01 0c-0.02,-0.02 -0.05,-0.03 -0.08,-0.03l-0.04 0.01c-0.03,0 -0.06,-0.01 -0.09,-0.05 -0.04,-0.04 -0.08,-0.06 -0.15,-0.08 -0.02,-0.01 -0.04,-0.02 -0.05,-0.05l0 -0.01c-0.01,-0.05 -0.03,-0.07 -0.05,-0.08 -0.03,0 -0.06,0.01 -0.1,0.03 -0.04,0.02 -0.07,0.03 -0.09,0.03 -0.02,0 -0.04,-0.01 -0.07,-0.03l-0.02 0 0.02 0.09 0.01 0.01 -0.01 0.02c-0.03,0.02 -0.13,0.05 -0.3,0.1l-0.35 0.1c-0.05,0.01 -0.1,0.02 -0.15,0.02 -0.07,0 -0.14,-0.02 -0.2,-0.07 -0.06,-0.04 -0.11,-0.07 -0.17,-0.08 -0.04,0 -0.07,0.02 -0.08,0.07l-0.03 0.04c-0.01,0 -0.01,-0.01 -0.02,-0.01 -0.01,0 -0.03,-0.01 -0.06,-0.04 -0.02,-0.03 -0.04,-0.04 -0.05,-0.05 -0.01,0 -0.02,-0.01 -0.02,-0.01 -0.04,0.04 -0.06,0.06 -0.06,0.06 -0.01,0.01 -0.03,0.01 -0.05,0.03 -0.05,0.04 -0.1,0.06 -0.15,0.06 -0.06,0 -0.16,-0.04 -0.27,-0.13l-0.07 -0.02 -0.04 0.04 -0.04 -0.01c-0.03,-0.03 -0.08,-0.05 -0.15,-0.05 -0.02,0.01 -0.04,0.02 -0.06,0.02 -0.02,0.01 -0.05,0.02 -0.08,0.02l-0.08 0c-0.02,-0.01 -0.04,-0.02 -0.06,-0.02 -0.02,0 -0.03,0.01 -0.04,0.02 -0.02,0 -0.03,0.01 -0.03,0.02 0,0.05 -0.01,0.07 -0.03,0.08 -0.02,0 -0.04,0.01 -0.06,0.01l-0.05 -0.02c-0.02,0.01 -0.06,0.02 -0.11,0.02 -0.01,-0.01 -0.03,-0.02 -0.06,-0.03 -0.03,-0.01 -0.06,-0.02 -0.11,-0.03 -0.03,-0.02 -0.09,-0.03 -0.15,-0.03 -0.06,0 -0.11,0 -0.13,-0.01l-0.03 0c0,0.01 0,0.03 -0.01,0.04 -0.02,0.09 -0.06,0.13 -0.11,0.13 -0.02,0 -0.04,0 -0.04,-0.01 0,0 -0.01,-0.01 -0.01,-0.03 0,-0.02 0,-0.04 -0.02,-0.05l-0.01 -0.01 -0.02 0c0,0 -0.02,0.01 -0.03,0.01 0,0.05 -0.02,0.08 -0.06,0.1l-0.01 0c-0.02,0.01 -0.05,0.01 -0.09,0.01 -0.03,0 -0.06,-0.01 -0.08,-0.05l-0.01 -0.02c-0.02,-0.02 -0.05,-0.04 -0.07,-0.04 -0.04,0.02 -0.09,0.03 -0.14,0.03 -0.02,0 -0.03,-0.01 -0.05,-0.02 -0.01,-0.01 -0.02,-0.02 -0.03,-0.02l-0.01 0c-0.02,0.01 -0.03,0.02 -0.03,0.03 -0.05,0.09 -0.09,0.14 -0.13,0.14 -0.09,0 -0.21,-0.05 -0.35,-0.14 -0.05,-0.03 -0.08,-0.05 -0.1,-0.06l-0.12 0.01c-0.04,0 -0.07,-0.01 -0.1,-0.03 -0.06,0 -0.1,0.02 -0.1,0.07 -0.01,0.04 -0.03,0.08 -0.06,0.1 -0.03,0.03 -0.05,0.04 -0.07,0.04 -0.02,0 -0.03,-0.01 -0.04,-0.01 -0.01,-0.01 -0.02,-0.02 -0.03,-0.02 -0.01,0 -0.01,0 -0.02,-0.01l-0.02 0 -0.04 0.1c-0.05,0.25 -0.25,0.99 -0.59,2.22 -0.08,0.29 -0.18,0.63 -0.3,1.02 -0.24,0.9 -0.45,1.59 -0.61,2.07 -0.16,0.41 -0.3,0.84 -0.39,1.27l-0.18 0.83c-0.08,0.37 -0.17,0.74 -0.27,1.11 -0.12,0.4 -0.26,0.92 -0.43,1.54 -0.03,0.13 -0.07,0.25 -0.11,0.37 -0.87,2.75 -1.36,4.37 -1.46,4.86 -0.01,0.11 -0.06,0.35 -0.15,0.71l-0.02 0.1 -0.05 0.19c-0.04,0.22 -0.09,0.41 -0.15,0.55 -0.11,0.29 -0.16,0.57 -0.17,0.83 0,0.13 -0.06,0.2 -0.18,0.22 -0.12,0.02 -0.24,0.03 -0.35,0.03zm-1.56 -17.5l-0.03 0 0 0.01 0.03 0 0 -0.01zm11.98 17.03c-0.2,0 -0.39,-0.01 -0.59,-0.02 -0.91,-0.03 -1.75,-0.24 -2.52,-0.62 -0.34,-0.19 -0.65,-0.43 -0.92,-0.72 -0.55,-0.59 -0.91,-1.25 -1.08,-1.97 -0.05,-0.19 -0.08,-0.39 -0.08,-0.59 0.01,-0.32 0.07,-0.56 0.21,-0.75 0.23,-0.32 0.46,-0.48 0.68,-0.48 0.09,0 0.18,0.04 0.27,0.11 0.07,0.09 0.16,0.13 0.26,0.13l0.22 -0.01c0.05,0 0.15,0.02 0.3,0.07 0.03,0 0.09,-0.03 0.17,-0.08l0 -0.01 0.07 -0.04c0.07,-0.07 0.14,-0.1 0.22,-0.11 0.2,0 0.42,0.26 0.67,0.78l-0.01 0.1c0,0.05 -0.02,0.09 -0.05,0.12l0.03 0c0,0.01 0.02,0.02 0.03,0.02 0.02,0 0.03,0 0.03,0.03 0,0.01 -0.02,0.02 -0.06,0.04 -0.03,0.01 -0.05,0.03 -0.05,0.06 0,0.01 0,0.03 0,0.04 0.01,0.02 0.01,0.03 0.02,0.04 0,0 0.01,0.01 0.04,0.02 0.01,0 0.01,0 0.03,-0.01 0.01,-0.01 0.03,-0.01 0.04,-0.01 0.05,0 0.09,0.03 0.13,0.1 0.04,0.06 0.08,0.14 0.11,0.22 0.03,0.09 0.08,0.14 0.14,0.14 0.04,0 0.07,-0.01 0.1,-0.02 0.04,-0.01 0.06,-0.02 0.1,-0.03 0.03,0 0.06,0 0.1,-0.01 0.12,0 0.24,0.04 0.33,0.12 0.05,0.04 0.11,0.06 0.17,0.06l0.08 -0.01c0.05,0 0.15,0.04 0.33,0.13 0.06,0.03 0.1,0.05 0.14,0.05 0.11,0 0.17,0.01 0.17,0.03 0.01,0.02 0.02,0.03 0.03,0.04 0.02,0.06 0.07,0.1 0.15,0.1 0.08,0 0.23,-0.03 0.45,-0.09 0.05,0 0.09,0.02 0.13,0.05 0.01,0.01 0.02,0.01 0.04,0.01 0.02,0 0.04,0 0.05,-0.01 0.01,-0.02 0.01,-0.03 0.02,-0.03 -0.01,-0.02 -0.02,-0.03 -0.05,-0.04 -0.03,-0.01 -0.05,-0.02 -0.07,-0.04 0.02,-0.02 0.07,-0.04 0.17,-0.06 0.39,-0.05 0.9,-0.16 1.55,-0.35 0.25,-0.06 0.48,-0.09 0.72,-0.09l0.24 0.01 0.09 -0.01c0.09,-0.03 0.18,-0.04 0.27,-0.05 0.05,0 0.08,-0.03 0.11,-0.09 0.02,-0.07 0.06,-0.09 0.12,-0.09 0.01,0 0.03,0 0.06,0.01 0.03,0.01 0.06,0.01 0.08,0.02 0.02,0.01 0.05,0.02 0.09,0.02 0.07,0 0.16,-0.04 0.23,-0.12 0.34,-0.24 0.76,-0.37 1.25,-0.37 0.07,-0.02 0.11,-0.04 0.12,-0.06 0.04,-0.05 0.1,-0.08 0.17,-0.08 0.14,-0.01 0.33,-0.09 0.59,-0.25 0.08,-0.06 0.16,-0.1 0.23,-0.12 0.07,-0.02 0.18,-0.08 0.34,-0.17l-0.03 -0.08 0.01 -0.01c0.04,-0.06 0.08,-0.1 0.16,-0.11 0.04,0 0.07,-0.02 0.09,-0.05 0.03,-0.04 0.07,-0.07 0.11,-0.09 0.39,-0.18 0.64,-0.33 0.75,-0.47 0,-0.02 -0.02,-0.04 -0.05,-0.08 -0.03,-0.03 -0.05,-0.06 -0.05,-0.08 0,-0.02 0.01,-0.03 0.03,-0.04 0.02,0 0.03,-0.01 0.05,-0.02 0.02,0 0.03,-0.03 0.03,-0.06l0 -0.08c0.17,-0.06 0.33,-0.16 0.47,-0.3 0.01,-0.01 0.03,-0.02 0.06,-0.02 -0.02,0.03 -0.04,0.06 -0.04,0.09l0.08 -0.04c0.07,-0.05 0.11,-0.08 0.11,-0.1 0,-0.04 -0.02,-0.07 -0.05,-0.07l0 -0.01 0.18 -0.23c0.06,-0.15 0.17,-0.23 0.35,-0.23 0,-0.01 0.02,-0.04 0.06,-0.09 0.04,-0.05 0.08,-0.1 0.11,-0.15 0.08,-0.13 0.18,-0.23 0.3,-0.31l0.02 -0.03c0.01,-0.09 0.02,-0.18 0.03,-0.27 0,-0.09 0.11,-0.24 0.31,-0.44 0.42,-0.41 0.63,-0.65 0.64,-0.7 0.05,-0.11 0.1,-0.21 0.17,-0.31 0.09,-0.12 0.15,-0.23 0.15,-0.32 0,-0.04 0,-0.05 -0.02,-0.06 -0.02,0 -0.02,-0.01 -0.02,-0.03 0,-0.25 0.1,-0.44 0.31,-0.55 0,-0.08 0.02,-0.14 0.06,-0.19 0.1,-0.18 0.16,-0.46 0.18,-0.83 0.01,-0.2 0.03,-0.37 0.07,-0.52l0.02 -0.09c0.04,-0.04 0.05,-0.1 0.05,-0.19l-0.01 -1.17c-0.01,-0.26 -0.04,-0.53 -0.11,-0.79 0,-0.05 0.02,-0.07 0.04,-0.08 0.03,-0.02 0.03,-0.03 0.03,-0.05 -0.01,-0.08 -0.04,-0.15 -0.08,-0.21l-0.06 0.01c-0.03,0 -0.11,-0.09 -0.25,-0.25l-0.22 -0.22c-0.19,-0.22 -0.38,-0.33 -0.57,-0.33 -0.07,-0.01 -0.13,-0.06 -0.15,-0.15 0,-0.01 -0.01,-0.03 -0.04,-0.05l-0.06 0c0,0.02 -0.02,0.03 -0.03,0.03 -0.11,-0.05 -0.37,-0.09 -0.78,-0.13 -0.11,0 -0.17,0.01 -0.19,0.01 -0.01,0.01 -0.07,0.02 -0.15,0.02l-0.4 -0.05c-0.11,0 -0.73,0.08 -1.88,0.24 -1.09,0.23 -2.32,0.67 -3.7,1.32 -0.31,0.15 -0.48,0.24 -0.52,0.28 0.01,0.04 0.04,0.06 0.09,0.06 0.04,0.03 0.08,0.04 0.13,0.04l0.02 0.02c0.04,0.1 0.09,0.15 0.17,0.15 0.07,0 0.12,0.03 0.16,0.08 0.01,0.02 0.02,0.04 0.03,0.04 0.08,0.01 0.17,0.06 0.29,0.14 0.15,0.06 0.22,0.12 0.22,0.19l0 0.02 -0.04 0.1c-0.07,0.13 -0.11,0.28 -0.13,0.44 -0.02,0.23 -0.05,0.43 -0.08,0.58 -0.01,0.02 -0.01,0.03 -0.01,0.06 0,0.02 0.01,0.03 0.03,0.03l1.34 -0.15c0.05,0 0.1,0.03 0.14,0.08 0.18,0.28 0.32,0.67 0.41,1.18 0.08,0.29 0.15,0.45 0.22,0.48 0.07,0.03 0.11,0.05 0.16,0.08 -0.03,0.02 -0.12,0.06 -0.29,0.12 -0.05,0.02 -0.09,0.03 -0.12,0.06 -0.03,0 -0.04,0.01 -0.04,0.05l0.01 0.04 0.02 0c0.05,0.05 0.11,0.07 0.17,0.1 0.02,0.02 0.03,0.03 0.03,0.05 0,0.01 -0.01,0.02 -0.03,0.03 -0.02,0.01 -0.05,0.02 -0.08,0.02 -0.03,0.01 -0.07,0.01 -0.11,0.02 -0.04,0.01 -0.06,0.02 -0.06,0.03 -0.01,0.01 -0.01,0.02 -0.02,0.03l0.01 0.01c0.1,0.04 0.14,0.08 0.14,0.11 0,0.02 -0.01,0.05 -0.03,0.07 -0.02,0.03 -0.04,0.07 -0.04,0.11 -0.04,0.33 -0.62,0.53 -1.73,0.59 -0.73,0.05 -1.1,0.09 -1.12,0.12 -0.01,0.04 -0.02,0.08 -0.03,0.13 -0.03,0.26 -0.11,0.65 -0.24,1.15 -0.25,0.87 -0.41,1.42 -0.49,1.66 -0.05,0.16 -0.08,0.31 -0.1,0.47 -0.04,0.37 -0.1,0.65 -0.19,0.84 -0.09,0.19 -0.13,0.34 -0.13,0.44l0.01 0.12c0,0.09 -0.05,0.13 -0.15,0.13 -0.3,-0.02 -0.6,-0.09 -0.9,-0.21 -0.2,-0.08 -0.46,-0.16 -0.77,-0.24 -0.04,0 -0.08,0 -0.13,0.02 -0.04,0.02 -0.09,0.02 -0.14,0.02 -0.08,0 -0.34,-0.07 -0.77,-0.23 -0.04,0 -0.07,-0.01 -0.09,-0.02 -0.02,-0.01 -0.03,-0.01 -0.04,-0.01 -0.01,0 -0.01,-0.02 -0.01,-0.05l0.03 -0.17c0.03,-0.02 0.04,-0.03 0.05,-0.03 0.01,0 0.01,-0.02 0.01,-0.04l-0.01 -0.05c0,-0.05 0.02,-0.08 0.06,-0.08 0.01,0.01 0.03,0.01 0.05,0.01l0.02 -0.02c-0.01,-0.02 -0.01,-0.03 -0.01,-0.03 0,-0.01 -0.01,-0.02 -0.04,-0.04 -0.03,-0.01 -0.04,-0.04 -0.04,-0.07 0,-0.04 0.05,-0.09 0.14,-0.15 0.03,-0.01 0.04,-0.03 0.04,-0.06 -0.07,-0.05 -0.1,-0.09 -0.1,-0.12 0,-0.02 0.02,-0.04 0.05,-0.05 0,-0.01 0,-0.02 0.01,-0.02 0.01,0 0.01,0 0.02,-0.02 0,-0.02 0.04,-0.05 0.1,-0.08 0.02,0 0.03,-0.01 0.05,-0.03 0.02,-0.01 0.03,-0.02 0.05,-0.02l0.06 0.01c0.03,0 0.05,-0.02 0.06,-0.06 0,-0.01 0,-0.02 -0.01,-0.03 -0.01,0 -0.01,-0.02 -0.01,-0.04 0,-0.03 -0.02,-0.04 -0.05,-0.05 -0.03,0 -0.06,-0.13 -0.1,-0.39 0,-0.07 0.05,-0.14 0.13,-0.18 0.04,0 0.06,-0.02 0.08,-0.06 0,-0.01 -0.01,-0.02 -0.02,-0.03 -0.01,-0.01 -0.02,-0.02 -0.03,-0.04 0,-0.01 0,-0.01 0.01,-0.02 0.01,0 0.03,-0.02 0.06,-0.04 0,-0.01 0,-0.02 -0.01,-0.03 -0.01,0 -0.02,-0.01 -0.02,-0.03 -0.01,-0.01 -0.01,-0.03 -0.03,-0.05 0,-0.05 0.01,-0.08 0.02,-0.09 0.02,-0.02 0.04,-0.03 0.06,-0.04 0.02,-0.01 0.04,-0.02 0.05,-0.04 0.03,0 0.04,-0.01 0.04,-0.03 0,-0.03 0.01,-0.05 0.02,-0.07 0.03,0 0.04,-0.03 0.04,-0.08 0.01,-0.05 0.02,-0.09 0.04,-0.13 0,-0.02 -0.01,-0.04 -0.03,-0.04 -0.01,0 -0.03,-0.01 -0.03,-0.01 -0.01,-0.01 -0.01,-0.01 -0.02,-0.02 0.02,-0.08 0.05,-0.14 0.1,-0.17 0.05,-0.03 0.07,-0.09 0.07,-0.17 -0.01,-0.01 -0.02,-0.02 -0.04,-0.03 -0.02,-0.01 -0.04,-0.03 -0.07,-0.05 0,-0.03 0.02,-0.04 0.04,-0.05l0.02 0.01c0.02,0 0.03,-0.01 0.03,-0.04 -0.04,-0.01 -0.05,-0.05 -0.05,-0.09 0,-0.03 0.03,-0.05 0.08,-0.05 0.03,-0.01 0.05,-0.07 0.07,-0.17 0,0 -0.02,-0.01 -0.05,-0.04 -0.03,-0.02 -0.04,-0.04 -0.04,-0.06 0,-0.02 0.04,-0.06 0.12,-0.13 0.05,-0.02 0.09,-0.04 0.13,-0.08l0.05 -0.13c-0.07,-0.06 -0.11,-0.1 -0.12,-0.11 0.01,-0.04 0.03,-0.05 0.06,-0.05 0.07,-0.06 0.11,-0.1 0.11,-0.14 0,-0.06 -0.05,-0.09 -0.16,-0.09 -0.8,-0.15 -1.44,-0.46 -1.91,-0.9 -0.52,-0.49 -0.77,-1.12 -0.77,-1.9l0 -0.03c0.01,-1.02 0.57,-2.04 1.67,-3.06 1.05,-0.97 2.34,-1.82 3.87,-2.55 2.29,-1.09 4.41,-1.63 6.35,-1.63 1.33,0 2.46,0.26 3.39,0.79 1.18,0.66 1.97,1.67 2.39,3.04 0.18,0.63 0.28,1.3 0.28,2.02l0 0.17c-0.01,0.46 -0.05,0.91 -0.13,1.35 -0.41,1.75 -1.26,3.53 -2.57,5.34 -1.23,1.55 -2.62,2.77 -4.18,3.66 -1.55,0.89 -3.1,1.51 -4.64,1.87 -1.09,0.27 -2.14,0.4 -3.16,0.4zm0.29 -11.65c0.01,-0.01 0.02,-0.02 0.04,-0.03 0.02,-0.01 0.04,-0.15 0.07,-0.42l-0.04 0 -0.01 0.01c-0.18,0.14 -0.26,0.25 -0.26,0.3 0,0.09 0.07,0.14 0.2,0.14zm-2.52 7.43c0,-0.01 0.01,-0.02 0.01,-0.02l-0.02 0 -0.01 0.02 0.02 0zm10.87 -2.21l-0.01 -0.01 0 0.01 0.01 0zm-44.23 4.75c-0.64,0 -1.23,-0.12 -1.8,-0.36 -0.9,-0.39 -1.59,-1.02 -2.08,-1.88 -0.56,-0.99 -0.84,-2.02 -0.84,-3.1 -0.02,-0.08 -0.03,-0.16 -0.03,-0.24 0.01,-0.5 0.05,-0.99 0.14,-1.44 0.36,-2.25 1.12,-3.94 2.27,-5.08 0.05,-0.05 0.08,-0.12 0.1,-0.19 0.24,-1 0.6,-1.7 1.07,-2.12l0.27 -0.22c0.08,-0.09 0.17,-0.18 0.26,-0.25 0.05,-0.03 0.07,-0.06 0.07,-0.1l0 -0.09c0.01,-0.08 0.1,-0.15 0.26,-0.19 0.09,-0.03 0.22,-0.11 0.37,-0.26 0.34,-0.41 0.82,-0.66 1.45,-0.72 0.1,0 0.22,-0.01 0.36,-0.03 0.03,0 0.06,-0.01 0.11,-0.05 0.04,-0.04 0.09,-0.05 0.16,-0.05l0.08 0.01c0.09,0.01 0.18,0.02 0.26,0.02 0.24,0 0.46,-0.01 0.66,-0.02l0.05 0c0.06,0 0.11,0.01 0.17,0.02 0.05,0.02 0.18,0.04 0.39,0.05 0.04,0 0.07,0.01 0.11,0.01l0 -0.02c0,-0.02 0.01,-0.03 0.01,-0.04 0,-0.01 0,-0.01 0,-0.02l0.11 -0.01c0.07,0 0.13,0.02 0.19,0.06l0.05 0.01 0.07 0c0.15,0 0.38,0.07 0.69,0.23l0.79 0.38c0.08,0.04 0.14,0.08 0.2,0.15 0.02,0.05 0.06,0.08 0.11,0.08l0.04 0 0 -0.01 0.01 0c0.04,-0.02 0.07,-0.02 0.1,-0.02 0.16,0 0.32,0.1 0.48,0.31l0 0.02 -0.07 -0.03c-0.02,0 -0.04,0 -0.04,0.02l0.17 0.21c0.02,0.01 0.03,0.02 0.05,0.02l0.08 -0.04 0.08 0.07c0.31,0.28 0.47,0.51 0.47,0.67l-0.02 0.07c0,0.03 0.02,0.06 0.04,0.09 0.21,0.33 0.32,0.57 0.33,0.74l0.01 0.04c0,0.07 0.02,0.13 0.07,0.18 0.16,0.16 0.24,0.27 0.25,0.34l0.03 0.16c0.02,0.14 0.03,0.28 0.03,0.4 -0.01,0.31 -0.05,0.6 -0.11,0.9l-0.03 0.1c0,0.04 0,0.07 0.01,0.11 0.01,0.04 0.02,0.09 0.02,0.14l-0.02 0.15c-0.03,0.11 -0.05,0.22 -0.06,0.34 0,0.11 0.02,0.17 0.05,0.17l0.01 0 0.05 0.04c0.02,0.04 0.04,0.15 0.04,0.31 -0.02,0.13 -0.08,0.24 -0.19,0.35l-0.02 0.04 0.01 0.06c0,0.04 -0.01,0.07 -0.02,0.1 -0.09,0.18 -0.13,0.37 -0.13,0.58l-0.02 0.36c0,0.15 -0.02,0.31 -0.05,0.46 -0.02,0.04 -0.03,0.08 -0.04,0.13 -0.01,0.05 -0.04,0.1 -0.1,0.15 0,0.01 -0.01,0.01 -0.02,0.03 0,0.01 0,0.02 -0.01,0.02 0,0.01 -0.02,0.1 -0.04,0.27 -0.17,0.71 -0.46,1.42 -0.87,2.12l-0.06 0.09c-0.02,0.02 -0.03,0.03 -0.06,0.03l-0.06 -0.01c-0.02,0 -0.04,0.02 -0.05,0.05 -0.09,0.17 -0.14,0.26 -0.14,0.27 0,0 0,0.01 0,0.03 0,0.03 0.01,0.05 0.04,0.07l-0.04 0.11c-0.1,0.28 -0.34,0.68 -0.71,1.18l-0.27 0.34c-0.04,0.06 -0.08,0.13 -0.12,0.2 -0.05,0.17 -0.15,0.24 -0.28,0.24l-0.02 0c-0.03,0 -0.05,0.02 -0.07,0.04l-0.02 0.04c0,0.01 0,0.03 0.01,0.04 0.01,0.01 0.02,0.02 0.02,0.03l-0.1 0.08 -0.26 0.29c-0.14,0.19 -0.3,0.35 -0.48,0.48 -0.04,0.03 -0.07,0.07 -0.1,0.13l-0.05 0.05 -0.01 0c-0.11,0.12 -0.24,0.21 -0.37,0.28 -0.09,0.04 -0.17,0.09 -0.26,0.16 -0.71,0.57 -1.49,0.9 -2.35,1 -0.32,0.05 -0.61,0.07 -0.84,0.07zm0.1 -3.17c0.27,0 0.58,-0.08 0.93,-0.24 0.26,-0.13 0.51,-0.28 0.74,-0.46 0.94,-0.7 1.65,-1.63 2.14,-2.81 0.51,-1.23 0.86,-2.43 1.04,-3.61 0.05,-0.3 0.08,-0.6 0.09,-0.91l0 -0.09c0,-0.4 -0.06,-0.74 -0.17,-1.02 -0.11,-0.28 -0.35,-0.53 -0.7,-0.72 -0.38,-0.2 -0.87,-0.3 -1.46,-0.3 -0.16,0 -0.29,0.02 -0.41,0.05 -0.26,0.09 -0.39,0.16 -0.39,0.23 0,0.03 0,0.05 0.01,0.06l0.01 0.26c0,0.27 -0.13,0.61 -0.39,1.02 -0.12,0.25 -0.19,0.45 -0.2,0.59l0 0.01 -0.03 0 -0.05 -0.03c-0.02,-0.06 -0.07,-0.09 -0.13,-0.09 -0.02,0.01 -0.04,0.03 -0.05,0.05l0 0.07c-0.01,0.02 -0.02,0.07 -0.02,0.14 0,0.01 -0.01,0.02 -0.03,0.02 -0.01,0 -0.02,0 -0.03,0 -0.01,0 -0.02,0 -0.02,-0.01 0,0 -0.01,-0.01 -0.02,-0.01 0,-0.01 -0.01,-0.02 -0.02,-0.02 -0.02,0 -0.02,0.02 -0.02,0.04l0 0.05c0,0.03 -0.04,0.1 -0.12,0.21 0,0.03 -0.03,0.07 -0.09,0.11 -0.05,0.11 -0.1,0.17 -0.14,0.19 -0.03,0.02 -0.05,0.07 -0.05,0.14 -0.02,0.14 -0.03,0.42 -0.04,0.86l0 0.13c0,0.72 0.14,1.35 0.42,1.88l0.05 0.08c0.03,0.08 0.05,0.16 0.05,0.24l0 0.05c0,0.09 -0.01,0.16 -0.04,0.2 -0.07,0.14 -0.17,0.28 -0.29,0.41 -0.12,0.14 -0.27,0.23 -0.45,0.27 -0.15,0.03 -0.28,0.12 -0.39,0.26 -0.07,0.07 -0.15,0.14 -0.24,0.19 -0.06,0.02 -0.08,0.06 -0.08,0.13l0 0.03c0,0.11 0.02,0.23 0.07,0.38l0.01 0.13c-0.01,0.19 -0.1,0.38 -0.29,0.57 -0.02,0.03 -0.05,0.05 -0.1,0.08l-0.25 0.29c-0.01,0.01 -0.02,0.02 -0.05,0.02 -0.02,0 -0.05,-0.03 -0.09,-0.08 -0.01,-0.01 -0.02,-0.02 -0.03,-0.04 0,-0.01 -0.02,-0.03 -0.02,-0.06 -0.02,-0.02 -0.04,-0.05 -0.07,-0.07l-0.02 0 0 0.01c0.19,0.59 0.55,0.95 1.09,1.09 0.11,0.02 0.23,0.03 0.34,0.03zm-32.2 -4.09l0.19 -0.04c0.14,-0.03 0.28,-0.05 0.42,-0.08 0.28,-0.07 0.56,-0.13 0.85,-0.17 0.01,0 0.02,-0.01 0.04,-0.03l0.01 -0.01c0,-0.04 -0.04,-0.11 -0.11,-0.22 -0.03,-0.05 -0.04,-0.09 -0.04,-0.13l0 -0.04c0,-0.05 0.01,-0.07 0.02,-0.09 0.02,-0.01 0.02,-0.03 0.02,-0.05l-0.01 -0.04c-0.04,-0.15 -0.06,-0.3 -0.06,-0.45 0.01,-0.36 0.06,-0.53 0.17,-0.53 0.03,-0.02 0.05,-0.04 0.06,-0.06 0,-0.02 0.01,-0.03 0.01,-0.04 -0.01,-0.01 -0.01,-0.03 -0.02,-0.04 0,-0.02 -0.02,-0.02 -0.03,-0.03 -0.06,-0.02 -0.1,-0.1 -0.1,-0.23 0,-0.07 0.01,-0.15 0.03,-0.22 0.01,-0.07 0.02,-0.14 0.02,-0.2 0,-0.04 -0.01,-0.07 -0.02,-0.11 -0.01,-0.03 -0.01,-0.06 -0.01,-0.07 0,-0.01 0,-0.02 0,-0.03 0,-0.01 0.02,-0.02 0.06,-0.05l0.02 0 0 -0.03 -0.02 -0.04c-0.03,-0.22 -0.04,-0.35 -0.04,-0.38 0,-0.03 0,-0.04 -0.01,-0.04l0 -0.01 -0.08 0c-0.02,0.05 -0.04,0.09 -0.05,0.13 0,0.01 -0.01,0.02 -0.01,0.05 -0.01,0.02 -0.04,0.06 -0.1,0.12l-0.02 0.02c0.01,0.01 0.02,0.03 0.03,0.04 0.01,0.02 0.02,0.05 0.04,0.08 0.01,0.03 0.02,0.05 0.02,0.08 0,0.05 -0.05,0.13 -0.14,0.23l-0.14 0.1 -0.01 0 -0.17 0.13c-0.01,0.09 -0.05,0.17 -0.11,0.25 -0.01,0.01 -0.03,0.04 -0.03,0.07 0,0.03 0.01,0.06 0.04,0.08 0.04,0.03 0.05,0.06 0.05,0.09 0,0.09 -0.03,0.14 -0.09,0.17l-0.1 0.08c-0.02,0.02 -0.04,0.03 -0.04,0.04 0,0.01 -0.01,0.01 -0.02,0.01 -0.05,0.06 -0.08,0.14 -0.08,0.22l0.01 0.21c-0.01,0.09 -0.04,0.18 -0.09,0.27 0,0.01 -0.01,0.02 -0.04,0.04 -0.03,0.01 -0.04,0.04 -0.04,0.09 -0.05,0.26 -0.16,0.53 -0.32,0.81l0 0.02 0.02 0.03 0.02 0zm7.93 10.26l-0.14 -0.01c-0.21,-0.04 -0.4,-0.1 -0.6,-0.18 -0.14,-0.06 -0.32,-0.13 -0.58,-0.23 -0.2,-0.09 -0.32,-0.13 -0.39,-0.13l-0.11 0.01c-0.03,0 -0.05,-0.03 -0.05,-0.08l0.02 -0.05 -0.02 -0.05c0,-0.04 -0.03,-0.07 -0.08,-0.08 -0.02,0 -0.04,0 -0.06,0.01l-0.11 0c-0.01,-0.02 -0.03,-0.03 -0.03,-0.04 -0.01,0 -0.02,0 -0.02,-0.01 0.01,-0.02 0.02,-0.04 0.02,-0.08 0,-0.02 -0.03,-0.04 -0.08,-0.04l-0.03 0.01c-0.03,0 -0.06,-0.01 -0.08,-0.02 -0.05,-0.06 -0.11,-0.11 -0.18,-0.14 -0.09,-0.07 -0.14,-0.16 -0.14,-0.26 0,-0.11 0.04,-0.24 0.11,-0.36 0.21,-0.39 0.4,-0.79 0.54,-1.21 0.22,-0.62 0.4,-1.11 0.55,-1.46 0.38,-0.8 0.57,-1.21 0.57,-1.23l0.01 -0.02c0,-0.01 0,-0.01 -0.01,-0.02 -0.01,0 -0.01,0 -0.02,0 -0.2,0.03 -0.4,0.08 -0.58,0.14 -0.66,0.22 -1.26,0.35 -1.79,0.41l-0.25 0.04c-0.04,0 -0.06,-0.02 -0.08,-0.05 -0.01,-0.03 -0.02,-0.06 -0.03,-0.09 -0.07,-0.24 -0.13,-0.49 -0.16,-0.74 -0.02,-0.21 -0.05,-0.42 -0.09,-0.63 -0.02,-0.07 -0.03,-0.12 -0.03,-0.16 0,-0.04 -0.02,-0.12 -0.06,-0.25 0,0 0.01,-0.01 0.02,-0.02 0,-0.01 0.02,-0.02 0.04,-0.04 0.02,-0.03 0.03,-0.05 0.03,-0.07l-0.07 -0.22c0,-0.02 0,-0.04 0.02,-0.06 0.02,-0.02 0.02,-0.03 0.02,-0.05l-0.01 -0.04c-0.02,-0.05 -0.03,-0.17 -0.03,-0.37 0,-0.17 0.05,-0.26 0.14,-0.28 0.04,-0.02 0.08,-0.03 0.12,-0.03 0.26,-0.02 0.6,-0.12 1.01,-0.29 0.26,-0.1 0.91,-0.27 1.96,-0.52 1.01,-0.24 1.53,-0.37 1.55,-0.38 0.02,-0.02 0.04,-0.04 0.04,-0.06l0.01 0c0.06,-0.12 0.15,-0.32 0.3,-0.58 0.27,-0.53 0.56,-1.18 0.85,-1.94 0.14,-0.37 0.4,-1 0.8,-1.88l0.06 -0.14 0.62 -1.38c0.39,-0.78 0.79,-1.66 1.21,-2.63 0.09,-0.21 0.18,-0.43 0.25,-0.65l0.33 -0.86c0.02,-0.04 0.07,-0.14 0.12,-0.3 0.08,-0.21 0.17,-0.4 0.25,-0.58 0.22,-0.4 0.36,-0.76 0.43,-1.1 0.02,-0.15 0.1,-0.23 0.25,-0.24 0.38,0 0.7,0.06 0.96,0.19 0.12,0.06 0.25,0.11 0.38,0.13 0.13,0.03 0.25,0.06 0.36,0.1l0.06 0.01c0.01,0 0.03,0 0.05,-0.01 0.01,-0.02 0.03,-0.03 0.04,-0.03 0.05,-0.02 0.11,-0.05 0.17,-0.09 0.06,-0.03 0.14,-0.05 0.24,-0.05 0.16,0.01 0.28,0.03 0.35,0.06 0.03,0 0.09,0.01 0.19,0.04 0.1,0.03 0.2,0.06 0.3,0.08 0.05,0.01 0.08,0.03 0.08,0.06 -0.01,0.03 -0.02,0.04 -0.02,0.06 0,0.01 -0.01,0.02 -0.02,0.03 -0.05,0.14 -0.08,0.23 -0.08,0.29l0.01 0.09 -0.01 0.1 -0.02 0.3c0,0.19 0.02,0.55 0.07,1.08 0.03,0.33 0.05,0.57 0.05,0.74l0 0.1 -0.09 3.53c-0.01,0.63 -0.03,1.16 -0.08,1.58 -0.02,0.22 -0.03,0.52 -0.04,0.89 0,0.48 0.02,0.82 0.05,1.03 0,0.16 0.01,0.24 0.03,0.26 0.01,0.01 0.04,0.02 0.09,0.02 0.31,0 0.57,-0.04 0.77,-0.12 0.01,0 0.02,0 0.04,-0.01 0.02,-0.01 0.05,-0.01 0.07,-0.01 0.09,0 0.16,0.05 0.18,0.16 0.1,0.26 0.16,0.55 0.16,0.86l0 0.11c0,0.14 0.01,0.29 0.03,0.43 0.01,0.06 0.02,0.12 0.02,0.18 0,0.03 0,0.08 0,0.15 0,0.06 0.03,0.13 0.1,0.18 0.08,0.06 0.12,0.14 0.14,0.23 0.03,0.22 0.04,0.36 0.04,0.42l0.03 0.48 -0.01 0.04c-0.02,0.02 -0.11,0.03 -0.29,0.03 -0.05,0 -0.09,-0.02 -0.11,-0.07l-0.01 -0.05 -0.02 0.03 -0.01 0.06c0,0.01 -0.01,0.01 -0.01,0.01 0,0.01 -0.01,0.02 -0.02,0.02 -0.02,0.01 -0.04,0.02 -0.06,0.02l-0.03 -0.02 -0.04 0.02 0 -0.03c-0.01,-0.01 -0.02,-0.02 -0.02,-0.03 0,-0.01 0,-0.02 0,-0.03 -0.01,-0.01 -0.01,-0.02 -0.01,-0.02l-0.05 0c-0.01,0 -0.02,0.02 -0.03,0.04 0,0.02 -0.01,0.05 -0.02,0.08 -0.01,0.03 -0.05,0.04 -0.1,0.04 -0.04,0 -0.07,0 -0.09,-0.01 -0.11,-0.05 -0.17,-0.08 -0.19,-0.09 -0.01,0 -0.02,0 -0.04,0 -0.02,0.02 -0.05,0.07 -0.1,0.15 0,0.01 -0.02,0.02 -0.03,0.02 -0.01,0 -0.03,0.01 -0.05,0.01l0 -0.01 -0.02 0c-0.01,-0.01 -0.02,-0.02 -0.03,-0.03 -0.01,-0.02 -0.02,-0.02 -0.05,-0.02 -0.02,0 -0.04,0 -0.07,0.02 0,-0.02 -0.02,-0.03 -0.04,-0.04 -0.02,-0.01 -0.04,-0.02 -0.06,-0.04 -0.02,-0.01 -0.04,-0.01 -0.04,-0.01 -0.02,0 -0.02,0.04 -0.02,0.1l0 0.99c0,0.4 0.02,0.76 0.07,1.06l0.07 0.6c0.02,0.17 0.03,0.34 0.05,0.52 0.02,0.18 0.03,0.36 0.03,0.56l0 0.07c0,0.26 0.04,0.49 0.12,0.69 0.03,0.03 0.05,0.07 0.05,0.12 -0.01,0.09 -0.06,0.14 -0.17,0.18 -0.32,0.18 -0.62,0.27 -0.89,0.27 -0.03,0 -0.19,0.03 -0.47,0.09 -0.11,0.04 -0.22,0.07 -0.32,0.09 -0.1,0.02 -0.17,0.08 -0.2,0.17 -0.04,0.13 -0.11,0.18 -0.2,0.18 -0.17,0.08 -0.3,0.13 -0.39,0.15l-0.37 0.11 -0.09 0.01 -0.01 0.01c-0.04,0 -0.07,-0.01 -0.08,-0.05l0 -0.01c-0.02,-0.09 -0.03,-0.22 -0.05,-0.4l-0.01 -0.07c0,-0.06 0.03,-0.09 0.08,-0.11l0.02 -0.01c0,0 0.01,0 0.01,-0.01l0 -0.04 -0.01 -0.02 -0.03 0.01c-0.06,0 -0.09,-0.01 -0.09,-0.04l0 -0.07 0.03 -0.06 0.01 -0.01c0,0.01 0,0.01 -0.01,0.01 -0.04,0 -0.06,-0.01 -0.07,-0.02 0,-0.02 0,-0.03 0,-0.04 0,-0.01 0.01,-0.02 0.04,-0.04l0.02 -0.01 0.01 0c0.03,0 0.05,-0.03 0.05,-0.08 0,-0.03 -0.01,-0.05 -0.03,-0.05 -0.01,0 -0.03,0 -0.03,-0.01l-0.06 -0.01c-0.04,-0.02 -0.06,-0.07 -0.06,-0.16l0 -0.05c0,-0.08 0.01,-0.15 0.05,-0.21 0.03,-0.1 0.05,-0.16 0.05,-0.17 0,-0.03 -0.02,-0.04 -0.04,-0.06 -0.03,-0.01 -0.06,-0.04 -0.1,-0.07 -0.03,-0.03 -0.04,-0.06 -0.04,-0.09l0 -0.03c0,-0.03 0,-0.06 0.03,-0.09 0.02,-0.03 0.04,-0.06 0.04,-0.07l-0.03 -0.1c0,-0.02 0.02,-0.05 0.05,-0.09 0.04,-0.07 0.06,-0.12 0.06,-0.14 0,-0.05 0.02,-0.07 0.07,-0.08l0.04 -0.03c0.02,-0.01 0.04,-0.03 0.05,-0.06 -0.02,-0.02 -0.04,-0.05 -0.05,-0.07 -0.01,-0.02 -0.02,-0.04 -0.04,-0.06 0,-0.04 0.01,-0.07 0.01,-0.08 0.01,-0.01 0.02,-0.02 0.02,-0.03l-0.02 -0.02 -0.07 0.03 -0.02 0c-0.01,0 -0.01,0 -0.01,-0.01 -0.03,-0.03 -0.06,-0.13 -0.11,-0.29 -0.04,-0.16 -0.08,-0.29 -0.11,-0.39 -0.02,-0.03 -0.03,-0.08 -0.03,-0.13 0,-0.09 0.04,-0.17 0.1,-0.24 0,0 0.01,-0.01 0.02,-0.02 0,-0.01 0.01,-0.03 0.02,-0.05 0,-0.03 0.01,-0.06 0.01,-0.07 0,-0.02 -0.01,-0.03 -0.01,-0.04 -0.01,-0.02 -0.02,-0.02 -0.03,-0.03 -0.02,-0.01 -0.03,-0.02 -0.06,-0.04l0 -0.01 -0.01 0c0,-0.01 0.01,-0.02 0.03,-0.03 0.01,-0.01 0.03,-0.03 0.05,-0.05 0.01,-0.02 0.02,-0.04 0.02,-0.05 0,-0.02 -0.01,-0.03 -0.02,-0.04 -0.07,-0.08 -0.12,-0.17 -0.12,-0.25 0.01,-0.09 0.04,-0.16 0.09,-0.21l0.06 -0.13 -0.03 -0.06c0,-0.02 0,-0.04 0.02,-0.07 0.01,-0.03 0.02,-0.06 0.02,-0.1 0,-0.05 -0.02,-0.09 -0.04,-0.13l-0.04 0c-0.03,0.02 -0.06,0.03 -0.08,0.04 -0.03,0 -0.05,0 -0.06,-0.01 -0.01,-0.01 -0.02,-0.02 -0.03,-0.03 -0.01,-0.01 -0.02,-0.02 -0.03,-0.04l-0.02 -0.01 -0.02 0c-0.02,0.01 -0.04,0.02 -0.06,0.02 -0.02,0.01 -0.05,0.02 -0.08,0.02 -0.04,0 -0.06,0.01 -0.07,0.03 -0.02,0.02 -0.02,0.06 -0.03,0.09 -0.01,0.04 -0.04,0.06 -0.08,0.06 -0.05,-0.01 -0.09,-0.03 -0.14,-0.05 -0.05,-0.01 -0.1,-0.04 -0.13,-0.06 -0.04,-0.02 -0.08,-0.04 -0.1,-0.04 -0.03,0 -0.05,0.01 -0.06,0.01 -0.1,0 -0.15,0.01 -0.16,0.02 -0.02,0.01 -0.02,0.04 -0.02,0.07 0,0.09 -0.03,0.13 -0.09,0.13 -0.01,0 -0.04,-0.02 -0.08,-0.06 -0.01,-0.01 -0.05,-0.02 -0.11,-0.02l-0.05 -0.01c-0.04,0 -0.1,0.05 -0.18,0.15 -0.05,0.07 -0.11,0.1 -0.16,0.1 -0.02,0 -0.04,-0.02 -0.07,-0.04 -0.01,0.01 -0.02,0.02 -0.04,0.02 -0.01,0 -0.03,0.01 -0.04,0.03 -0.14,0.09 -0.29,0.13 -0.46,0.13l-0.19 -0.01c-0.05,0 -0.08,-0.03 -0.1,-0.08l-0.03 -0.03c-0.06,0 -0.09,0.01 -0.09,0.03 0,0.09 -0.06,0.14 -0.18,0.15l-0.06 0.01c-0.08,0 -0.13,0.05 -0.16,0.14 -0.2,0.48 -0.38,0.86 -0.51,1.13 -0.12,0.21 -0.21,0.42 -0.3,0.63 -0.15,0.42 -0.33,0.82 -0.53,1.23 -0.16,0.29 -0.3,0.59 -0.42,0.89 -0.11,0.3 -0.23,0.59 -0.34,0.87l-0.11 0.25c-0.15,0.32 -0.3,0.63 -0.45,0.95l-0.3 0.56c-0.02,0.03 -0.03,0.04 -0.05,0.04zm4.8 -10.26l0.19 -0.04c0.13,-0.03 0.27,-0.05 0.41,-0.08 0.28,-0.07 0.57,-0.13 0.86,-0.17 0,0 0.02,-0.01 0.03,-0.03l0.02 -0.01c0,-0.04 -0.04,-0.11 -0.12,-0.22 -0.02,-0.05 -0.03,-0.09 -0.03,-0.13l0 -0.04c0,-0.05 0.01,-0.07 0.02,-0.09 0.01,-0.01 0.01,-0.03 0.01,-0.05l-0.01 -0.04c-0.04,-0.15 -0.06,-0.3 -0.06,-0.45 0.01,-0.36 0.07,-0.53 0.17,-0.53 0.03,-0.02 0.05,-0.04 0.06,-0.06 0.01,-0.02 0.01,-0.03 0.01,-0.04 -0.01,-0.01 -0.01,-0.03 -0.01,-0.04 -0.01,-0.02 -0.02,-0.02 -0.04,-0.03 -0.06,-0.02 -0.09,-0.1 -0.09,-0.23 0,-0.07 0.01,-0.15 0.02,-0.22 0.02,-0.07 0.03,-0.14 0.03,-0.2 0,-0.04 -0.01,-0.07 -0.02,-0.11 -0.01,-0.03 -0.02,-0.06 -0.02,-0.07 0,-0.01 0,-0.02 0,-0.03 0,-0.01 0.02,-0.02 0.06,-0.05l0.02 0 0 -0.03 -0.02 -0.04c-0.02,-0.22 -0.03,-0.35 -0.03,-0.38 0,-0.03 -0.01,-0.04 -0.02,-0.04l0 -0.01 -0.07 0c-0.03,0.05 -0.04,0.09 -0.06,0.13 0,0.01 0,0.02 -0.01,0.05 0,0.02 -0.03,0.06 -0.1,0.12l-0.01 0.02c0.01,0.01 0.02,0.03 0.02,0.04 0.01,0.02 0.02,0.05 0.04,0.08 0.02,0.03 0.02,0.05 0.02,0.08 0,0.05 -0.04,0.13 -0.14,0.23l-0.13 0.1 -0.01 0 -0.17 0.13c-0.02,0.09 -0.06,0.17 -0.11,0.25 -0.02,0.01 -0.03,0.04 -0.04,0.07 0,0.03 0.02,0.06 0.05,0.08 0.03,0.03 0.05,0.06 0.05,0.09 0,0.09 -0.03,0.14 -0.1,0.17l-0.09 0.08c-0.03,0.02 -0.04,0.03 -0.05,0.04 0,0.01 -0.01,0.01 -0.02,0.01 -0.05,0.06 -0.08,0.14 -0.08,0.22l0.01 0.21c0,0.09 -0.03,0.18 -0.08,0.27 0,0.01 -0.01,0.02 -0.04,0.04 -0.03,0.01 -0.04,0.04 -0.04,0.09 -0.05,0.26 -0.16,0.53 -0.33,0.81l0 0.02 0.02 0.03 0.03 0z"/>
 </g>
</svg>
