<svg width="24" height="24" viewBox="0 0 24 24" fill="none" xmlns="http://www.w3.org/2000/svg">
<path fill-rule="evenodd" clip-rule="evenodd" d="M15.9792 4.875C13.1602 4.875 10.875 7.16021 10.875 9.97917C10.875 12.7981 13.1602 15.0833 15.9792 15.0833C18.7981 15.0833 21.0833 12.7981 21.0833 9.97917C21.0833 7.16021 18.7981 4.875 15.9792 4.875ZM10 9.97917C10 6.67696 12.677 4 15.9792 4C19.2814 4 21.9583 6.67696 21.9583 9.97917C21.9583 11.4728 21.4107 12.8385 20.5052 13.8865L22.4135 15.7948C22.5844 15.9657 22.5844 16.2427 22.4135 16.4135C22.2427 16.5844 21.9657 16.5844 21.7948 16.4135L19.8865 14.5052C18.8385 15.4107 17.4728 15.9583 15.9792 15.9583C12.677 15.9583 10 13.2814 10 9.97917Z" fill="#00296B"/>
<path fill-rule="evenodd" clip-rule="evenodd" d="M19.8526 13.3034C19.9452 13.4281 20 13.5827 20 13.75V14.6187L19.8865 14.5052C18.8385 15.4107 17.4728 15.9583 15.9792 15.9583C15.8179 15.9583 15.6581 15.9519 15.5 15.9394V15.0611C15.6577 15.0758 15.8176 15.0833 15.9792 15.0833C17.5284 15.0833 18.9165 14.3931 19.8526 13.3034ZM19.434 13.0227C18.5903 13.9797 17.3552 14.5833 15.9792 14.5833C15.8174 14.5833 15.6575 14.575 15.5 14.5587V13.75C15.5 13.3358 15.8358 13 16.25 13H19.25C19.3135 13 19.3751 13.0079 19.434 13.0227ZM14 5.82091V14.1374C12.4477 13.3973 11.375 11.8135 11.375 9.97917C11.375 8.14485 12.4477 6.56106 14 5.82091ZM14 5.2729C12.164 6.04595 10.875 7.86203 10.875 9.97917C10.875 12.0963 12.164 13.9124 14 14.6854V15.623C11.6705 14.8061 10 12.5877 10 9.97917C10 7.37061 11.6705 5.15221 14 4.33534V5.2729ZM20 15.3258V20.5H21.5H21.75C22.1642 20.5 22.5 20.8358 22.5 21.25C22.5 21.6642 22.1642 22 21.75 22H1.75C1.33579 22 1 21.6642 1 21.25C1 20.8358 1.33579 20.5 1.75 20.5H2H3.5V8.75C3.5 8.33579 3.83579 8 4.25 8H7.25C7.66421 8 8 8.33579 8 8.75V20.5H9.5V9.97917C9.5 12.8673 11.3896 15.314 14 16.1505V20.5H15.5V16.4409C15.6582 16.4524 15.818 16.4583 15.9792 16.4583C17.4298 16.4583 18.7699 15.9811 19.8498 15.1756L20 15.3258ZM13.9993 3.80807C11.3893 4.64476 9.5 7.09132 9.5 9.97917V4.25C9.5 3.52169 9.50159 3.05091 9.54823 2.70403C9.59196 2.37872 9.66258 2.27676 9.71967 2.21967C9.77676 2.16258 9.87872 2.09197 10.204 2.04823C10.5509 2.00159 11.0217 2 11.75 2C12.4783 2 12.9491 2.00159 13.296 2.04823C13.6213 2.09197 13.7232 2.16258 13.7803 2.21967C13.8374 2.27676 13.908 2.37872 13.9518 2.70403C13.9882 2.97511 13.9972 3.32187 13.9993 3.80807Z" fill="#00296B"/>
</svg>
