<svg width="25" height="24" viewBox="0 0 25 24" fill="none" xmlns="http://www.w3.org/2000/svg">
<path fill-rule="evenodd" clip-rule="evenodd" d="M8.44513 4.25H13.5549C14.9225 4.24998 16.0248 4.24996 16.8918 4.36652C17.7919 4.48754 18.5497 4.74643 19.1517 5.34835C19.7061 5.90277 19.9695 6.58951 20.1022 7.39783C20.9106 7.53047 21.5974 7.79391 22.1519 8.3484C22.7538 8.95032 23.0127 9.70819 23.1337 10.6083C23.2503 11.4753 23.2503 12.5776 23.2503 13.9452V14.0549C23.2503 15.4225 23.2503 16.5248 23.1337 17.3918C23.0127 18.2919 22.7538 19.0498 22.1519 19.6517C21.55 20.2536 20.7921 20.5125 19.892 20.6335C19.025 20.7501 17.9227 20.7501 16.5551 20.7501H11.4454C10.0778 20.7501 8.97547 20.7501 8.1085 20.6335C7.2084 20.5125 6.45052 20.2536 5.8486 19.6517C5.29417 19.0973 5.03072 18.4105 4.89807 17.6022C4.08964 17.4695 3.40283 17.2061 2.84835 16.6517C2.24643 16.0497 1.98754 15.2919 1.86652 14.3918C1.74996 13.5248 1.74998 12.4225 1.75 11.0549V10.9451C1.74998 9.57754 1.74996 8.47522 1.86652 7.60825C1.98754 6.70814 2.24643 5.95027 2.84835 5.34835C3.45027 4.74643 4.20814 4.48754 5.10825 4.36652C5.97522 4.24996 7.07754 4.24998 8.44513 4.25ZM6.45571 17.7316C6.5606 18.1345 6.70999 18.3918 6.90926 18.591C7.18603 18.8678 7.5746 19.0483 8.30837 19.1469C9.06373 19.2485 10.0648 19.2501 11.5003 19.2501H16.5003C17.9357 19.2501 18.9368 19.2485 19.6921 19.1469C20.4259 19.0483 20.8145 18.8678 21.0912 18.591C21.368 18.3143 21.5485 17.9257 21.6471 17.1919C21.7487 16.4366 21.7503 15.4355 21.7503 14.0001C21.7503 12.5646 21.7487 11.5635 21.6471 10.8082C21.5485 10.0744 21.368 9.68583 21.0912 9.40906C20.8919 9.20976 20.6346 9.06034 20.2316 8.95545C20.25 9.54434 20.25 10.206 20.25 10.9451V11.0549C20.25 12.4225 20.25 13.5248 20.1335 14.3918C20.0125 15.2919 19.7536 16.0497 19.1517 16.6517C18.5497 17.2536 17.7919 17.5125 16.8918 17.6335C16.0248 17.75 14.9225 17.75 13.5549 17.75H8.44513C7.7061 17.75 7.04453 17.75 6.45571 17.7316ZM5.30812 5.85315C4.57435 5.9518 4.18577 6.13225 3.90901 6.40901C3.63225 6.68577 3.4518 7.07435 3.35315 7.80812C3.25159 8.56347 3.25 9.56459 3.25 11C3.25 12.4354 3.25159 13.4365 3.35315 14.1919C3.4518 14.9257 3.63225 15.3142 3.90901 15.591C4.18577 15.8678 4.57435 16.0482 5.30812 16.1469C6.06347 16.2484 7.06458 16.25 8.5 16.25H13.5C14.9354 16.25 15.9365 16.2484 16.6919 16.1469C17.4257 16.0482 17.8142 15.8678 18.091 15.591C18.3678 15.3142 18.5482 14.9257 18.6469 14.1919C18.7484 13.4365 18.75 12.4354 18.75 11C18.75 9.56459 18.7484 8.56347 18.6469 7.80812C18.5482 7.07435 18.3678 6.68577 18.091 6.40901C17.8142 6.13225 17.4257 5.9518 16.6919 5.85315C15.9365 5.75159 14.9354 5.75 13.5 5.75H8.5C7.06458 5.75 6.06347 5.75159 5.30812 5.85315ZM11 9.25C10.0335 9.25 9.25 10.0335 9.25 11C9.25 11.9665 10.0335 12.75 11 12.75C11.9665 12.75 12.75 11.9665 12.75 11C12.75 10.0335 11.9665 9.25 11 9.25ZM7.75 11C7.75 9.20508 9.20508 7.75 11 7.75C12.7949 7.75 14.25 9.20508 14.25 11C14.25 12.7949 12.7949 14.25 11 14.25C9.20508 14.25 7.75 12.7949 7.75 11ZM5.5 8.25C5.91421 8.25 6.25 8.58579 6.25 9V13C6.25 13.4142 5.91422 13.75 5.5 13.75C5.08579 13.75 4.75 13.4142 4.75 13L4.75 9C4.75 8.58579 5.08579 8.25 5.5 8.25ZM16.5 8.25C16.9142 8.25 17.25 8.58579 17.25 9V13C17.25 13.4142 16.9142 13.75 16.5 13.75C16.0858 13.75 15.75 13.4142 15.75 13V9C15.75 8.58579 16.0858 8.25 16.5 8.25Z" fill="#0C1F14"/>
</svg>
