<svg width="25" height="25" viewBox="0 0 25 25" fill="none" xmlns="http://www.w3.org/2000/svg">
<path d="M16.5303 10.5303C16.8232 10.2374 16.8232 9.76256 16.5303 9.46967C16.2374 9.17678 15.7626 9.17678 15.4697 9.46967L11 13.9393L9.53033 12.4697C9.23744 12.1768 8.76256 12.1768 8.46967 12.4697C8.17678 12.7626 8.17678 13.2374 8.46967 13.5303L10.4697 15.5303C10.7626 15.8232 11.2374 15.8232 11.5303 15.5303L16.5303 10.5303Z" fill="white"/>
<path fill-rule="evenodd" clip-rule="evenodd" d="M12.5574 1.75H12.4426C10.1342 1.74999 8.32519 1.74998 6.91371 1.93975C5.46897 2.13399 4.32895 2.53933 3.43414 3.43414C2.53933 4.32895 2.13399 5.46897 1.93975 6.91371C1.74998 8.32519 1.74999 10.1342 1.75 12.4426V12.5574C1.74999 14.8658 1.74998 16.6748 1.93975 18.0863C2.13399 19.531 2.53933 20.6711 3.43414 21.5659C4.32895 22.4607 5.46897 22.866 6.91371 23.0603C8.32519 23.25 10.1342 23.25 12.4426 23.25H12.5574C14.8658 23.25 16.6748 23.25 18.0863 23.0603C19.531 22.866 20.6711 22.4607 21.5659 21.5659C22.4607 20.6711 22.866 19.531 23.0603 18.0863C23.25 16.6748 23.25 14.8658 23.25 12.5574V12.4426C23.25 10.1342 23.25 8.32519 23.0603 6.91371C22.866 5.46897 22.4607 4.32895 21.5659 3.43414C20.6711 2.53933 19.531 2.13399 18.0863 1.93975C16.6748 1.74998 14.8658 1.74999 12.5574 1.75ZM4.4948 4.4948C5.06445 3.92514 5.83517 3.59825 7.11358 3.42637C8.41356 3.25159 10.1218 3.25 12.5 3.25C14.8782 3.25 16.5864 3.25159 17.8864 3.42637C19.1648 3.59825 19.9355 3.92514 20.5052 4.4948C21.0749 5.06445 21.4018 5.83517 21.5736 7.11358C21.7484 8.41356 21.75 10.1218 21.75 12.5C21.75 14.8782 21.7484 16.5864 21.5736 17.8864C21.4018 19.1648 21.0749 19.9355 20.5052 20.5052C19.9355 21.0749 19.1648 21.4018 17.8864 21.5736C16.5864 21.7484 14.8782 21.75 12.5 21.75C10.1218 21.75 8.41356 21.7484 7.11358 21.5736C5.83517 21.4018 5.06445 21.0749 4.4948 20.5052C3.92514 19.9355 3.59825 19.1648 3.42637 17.8864C3.25159 16.5864 3.25 14.8782 3.25 12.5C3.25 10.1218 3.25159 8.41356 3.42637 7.11358C3.59825 5.83517 3.92514 5.06445 4.4948 4.4948Z" fill="white"/>
</svg>
