<svg width="24" height="24" viewBox="0 0 24 24" fill="none" xmlns="http://www.w3.org/2000/svg">
<path fill-rule="evenodd" clip-rule="evenodd" d="M12.4835 3.18386C9.72487 3.18386 7.50661 5.37368 7.50661 8.0754C7.50661 8.53043 7.56349 8.98545 7.70569 9.41204C8.18915 9.55424 8.64418 9.75331 9.07077 10.0377C9.41204 10.2652 9.52579 10.7487 9.29828 11.0899C9.07077 11.4312 8.5873 11.5165 8.24603 11.289C7.87632 11.0331 7.44974 10.8624 6.96627 10.7771C6.73876 10.7202 6.51124 10.6918 6.28373 10.6918C4.32143 10.6918 2.75728 12.2844 2.75728 14.1898C2.75728 16.0952 4.32143 17.6594 6.28373 17.6594C6.71032 17.6594 7.02315 18.0007 7.02315 18.4273C7.02315 18.8254 6.71032 19.1667 6.28373 19.1667C3.52513 19.1667 1.25 16.9484 1.25 14.1898C1.25 11.4881 3.41138 9.29828 6.1131 9.21297C6.05622 8.84326 5.99934 8.44511 5.99934 8.0754C5.99934 4.52051 8.90013 1.67659 12.4835 1.67659C15.6402 1.67659 18.2566 3.92328 18.8254 6.90939C21.129 7.87633 22.75 10.123 22.75 12.7679C22.75 15.8393 20.5602 18.3988 17.6594 19.0245C17.2328 19.1098 16.8347 18.8538 16.7493 18.4557C16.664 18.0575 16.92 17.6594 17.3466 17.5741C19.5648 17.0906 21.2427 15.1283 21.2427 12.7679C21.2427 10.6349 19.8492 8.81482 17.9153 8.16072C17.4034 7.96164 16.8631 7.87633 16.2943 7.87633C15.6971 7.87633 15.1283 7.99008 14.6164 8.16072C14.2467 8.30291 13.8201 8.10384 13.6779 7.70569C13.5357 7.30754 13.7348 6.88095 14.1329 6.73876C14.8155 6.51125 15.5265 6.36905 16.2943 6.36905C16.5787 6.36905 16.8631 6.39749 17.1475 6.42593C16.4649 4.54894 14.6448 3.18386 12.4835 3.18386ZM8.41667 17.3466C8.81482 15.8393 10.3505 14.8439 12 14.8439C13.2798 14.8439 14.4458 15.4127 15.0999 16.3512C15.3558 16.6925 15.2705 17.1475 14.9292 17.4034C14.588 17.631 14.1329 17.5456 13.877 17.2044C13.5357 16.7209 12.8247 16.3228 12 16.3228C11.0331 16.3228 10.3221 16.8062 10.0093 17.4034C10.0946 17.4603 10.1799 17.5172 10.2368 17.6025C10.4927 17.9153 10.4643 18.3704 10.1515 18.6548L9.58267 19.1382C9.29828 19.3942 8.87169 19.3942 8.5873 19.1382L8.01852 18.6548C7.70569 18.3704 7.64881 17.9153 7.9332 17.6025C8.04696 17.4319 8.24603 17.3466 8.41667 17.3466ZM14.4173 18.0007C14.7017 17.7731 15.1283 17.7731 15.4127 18.0007L15.9815 18.5126C16.2943 18.7685 16.3228 19.252 16.0668 19.5648C15.9246 19.7355 15.754 19.8208 15.5549 19.8208C15.1852 21.328 13.6495 22.3234 12 22.3234C10.7202 22.3234 9.55423 21.7546 8.90013 20.8161C8.64418 20.4749 8.7295 20.0198 9.07077 19.7639C9.41204 19.5364 9.86706 19.5933 10.0946 19.9345C10.4643 20.4464 11.1468 20.8161 12 20.8161C12.9669 20.8161 13.6779 20.3611 13.9907 19.7639C13.9054 19.707 13.8201 19.6501 13.7632 19.5648C13.4788 19.252 13.5357 18.7685 13.8485 18.5126L14.4173 18.0007Z" fill="#2B6A46"/>
</svg>
