<svg width="24" height="24" viewBox="0 0 24 24" fill="none" xmlns="http://www.w3.org/2000/svg">
<path d="M12 9.38062C11.482 9.38082 10.9756 9.53461 10.545 9.82255C10.1144 10.1105 9.77882 10.5196 9.58071 10.9983C9.38261 11.4769 9.33088 12.0036 9.43206 12.5116C9.53324 13.0197 9.78279 13.4863 10.1492 13.8525C10.5155 14.2188 10.9822 14.4681 11.4903 14.5691C11.9984 14.6701 12.525 14.6182 13.0036 14.4199C13.4822 14.2216 13.8912 13.8859 14.179 13.4551C14.4668 13.0244 14.6204 12.518 14.6204 12C14.6198 11.3053 14.3436 10.6392 13.8522 10.148C13.3609 9.65691 12.6947 9.38089 12 9.38062ZM18.1242 7.36723C17.9908 7.0293 17.7894 6.72237 17.5326 6.46548C17.2757 6.20859 16.9687 6.00723 16.6308 5.87388C15.5996 5.46679 13.1442 5.55812 12 5.55812C10.8558 5.55812 8.4029 5.46335 7.36871 5.87388C7.03077 6.00723 6.72384 6.20859 6.46695 6.46548C6.21007 6.72237 6.0087 7.0293 5.87536 7.36723C5.46875 8.39848 5.5596 10.8563 5.5596 11.9995C5.5596 13.1427 5.46875 15.5976 5.87732 16.6323C6.01067 16.9702 6.21203 17.2771 6.46892 17.534C6.7258 17.7909 7.03273 17.9923 7.37067 18.1256C8.40192 18.5327 10.8573 18.4414 12.002 18.4414C13.1467 18.4414 15.5986 18.5362 16.6328 18.1256C16.9707 17.9923 17.2776 17.7909 17.5345 17.534C17.7914 17.2771 17.9928 16.9702 18.1261 16.6323C18.5362 15.601 18.4419 13.1432 18.4419 12C18.4419 10.8568 18.5362 8.40241 18.1261 7.36772L18.1242 7.36723ZM12 16.0268C11.2036 16.0268 10.425 15.7906 9.76284 15.3481C9.10064 14.9057 8.58451 14.2768 8.27974 13.541C7.97496 12.8052 7.89521 11.9955 8.05059 11.2144C8.20596 10.4333 8.58948 9.71579 9.15263 9.15263C9.71579 8.58948 10.4333 8.20596 11.2144 8.05059C11.9955 7.89521 12.8052 7.97496 13.541 8.27974C14.2768 8.58451 14.9057 9.10064 15.3481 9.76284C15.7906 10.425 16.0268 11.2036 16.0268 12C16.0274 12.529 15.9237 13.0529 15.7216 13.5417C15.5194 14.0306 15.2229 14.4748 14.8488 14.8488C14.4748 15.2229 14.0306 15.5194 13.5417 15.7216C13.0529 15.9237 12.529 16.0274 12 16.0268ZM16.1928 8.7442C16.0069 8.74429 15.8251 8.68925 15.6704 8.58603C15.5158 8.48281 15.3953 8.33605 15.3241 8.16431C15.2528 7.99258 15.2342 7.80358 15.2704 7.62122C15.3066 7.43886 15.3961 7.27134 15.5275 7.13984C15.6589 7.00834 15.8264 6.91878 16.0087 6.88247C16.1911 6.84616 16.3801 6.86475 16.5519 6.93587C16.7236 7.007 16.8704 7.12747 16.9737 7.28205C17.077 7.43663 17.1322 7.61837 17.1322 7.80429C17.1327 7.92775 17.1088 8.0501 17.062 8.16432C17.0151 8.27853 16.9461 8.38237 16.859 8.46988C16.7719 8.55739 16.6684 8.62684 16.5544 8.67425C16.4404 8.72166 16.3182 8.7461 16.1947 8.74616L16.1928 8.7442ZM20.6429 1H3.35714C2.73199 1 2.13244 1.24834 1.69039 1.69039C1.24834 2.13244 1 2.73199 1 3.35714L1 20.6429C1 21.268 1.24834 21.8676 1.69039 22.3096C2.13244 22.7517 2.73199 23 3.35714 23H20.6429C21.268 23 21.8676 22.7517 22.3096 22.3096C22.7517 21.8676 23 21.268 23 20.6429V3.35714C23 2.73199 22.7517 2.13244 22.3096 1.69039C21.8676 1.24834 21.268 1 20.6429 1ZM19.8021 15.2411C19.7388 16.4997 19.4515 17.6149 18.5327 18.5312C17.6139 19.4476 16.4997 19.7408 15.2425 19.8007C13.9456 19.8738 10.0573 19.8738 8.7604 19.8007C7.50179 19.7373 6.39049 19.4496 5.47022 18.5312C4.54996 17.6129 4.26071 16.4972 4.2008 15.2411C4.12763 13.9437 4.12763 10.0549 4.2008 8.75893C4.26415 7.50031 4.54799 6.38509 5.47022 5.46875C6.39246 4.55241 7.5067 4.26268 8.7604 4.20277C10.0573 4.1296 13.9456 4.1296 15.2425 4.20277C16.5012 4.26612 17.6159 4.55388 18.5327 5.47219C19.4496 6.39049 19.7422 7.50621 19.8021 8.76482C19.8753 10.0573 19.8753 13.9427 19.8021 15.2411Z" fill="black"/>
</svg>
