<?xml version="1.0" encoding="UTF-8"?>
<!DOCTYPE svg PUBLIC "-//W3C//DTD SVG 1.1//EN" "http://www.w3.org/Graphics/SVG/1.1/DTD/svg11.dtd">
<!-- Creator: CorelDRAW 2021 (64-Bit) -->
<svg xmlns="http://www.w3.org/2000/svg" xml:space="preserve" width="150px" height="26px" version="1.1" style="shape-rendering:geometricPrecision; text-rendering:geometricPrecision; image-rendering:optimizeQuality; fill-rule:evenodd; clip-rule:evenodd"
viewBox="0 0 1.43 0.24"
 xmlns:xlink="http://www.w3.org/1999/xlink"
 xmlns:xodm="http://www.corel.com/coreldraw/odm/2003">
 <defs>
  <style type="text/css">
   <![CDATA[
    .fil0 {fill:black;fill-rule:nonzero}
   ]]>
  </style>
 </defs>
 <g id="Layer_x0020_1">
  <metadata id="CorelCorpID_0Corel-Layer"/>
  <g id="_2272415184800">
   <path class="fil0" d="M0.04 0.24l0 0c0,0 0,0 0,0 -0.01,0 -0.01,0 -0.01,0 0,0 0,0 -0.01,0l0 0c0,0 0,0 0,0l0 0 0 0c0,0 0,0 0,0 0,0 0,0 0,0l0 0c0,0 0,0 0,0 0,0 0,0 0,0 0,-0.01 0,-0.01 0,-0.01 0,0 0,0 0,0l0 0c0,0 0,0 0,0 0,0 0,0 0,0 0,0 -0.01,0 -0.01,0 0,0 0,0 0.01,0 0,-0.01 0,-0.01 0,-0.02 0,0 0.01,-0.01 0.01,-0.01 0,-0.01 0,-0.02 0,-0.02l0 0c0,0 0,0 0,0 0,0 0,0 0,0 0,0 0,0 0,0 -0.01,0.01 -0.02,0.01 -0.02,0.01l-0.01 0c0,0 0,0 0,0 0,0 0,0 0,0 0,-0.01 0,-0.01 0,-0.01 0,0 0,-0.01 0,-0.01 0,0 0,0 0,0 0,0 0,0 0,0 0,0 0,0 0,0 0,0 0,0 0,0 0,0 0,0 0,0l0 -0.01c0,0 0,0 0,0 0,0 0,0 0,0l0 0c0,0 0,0 0,0 0,0 0,0 0,0 0,0 0,-0.01 0,-0.01 0.01,0 0.01,0 0.01,0 0.01,0 0.01,0 0.03,0 0.01,-0.01 0.01,-0.01 0.01,-0.01 0,0 0,0 0,0l0 0c0,0 0,0 0.01,-0.01 0,0 0,-0.01 0.01,-0.02 0,0 0,-0.01 0,-0.02l0.01 0 0 -0.01c0.01,-0.01 0.01,-0.02 0.02,-0.03 0,0 0,-0.01 0,-0.01l0 -0.01c0,0 0,0 0,0 0,0 0,-0.01 0.01,-0.01 0,0 0,-0.01 0,-0.01 0,0 0,0 0,0 0.01,0 0.01,0 0.01,0 0,0 0.01,0 0.01,0 0,0 0,0 0,0l0 0c0,0 0,0 0,0 0,0 0,0 0,0 0,0 0,0 0,0 0.01,0 0.01,0 0.01,0 0,0 0,0 0,0 0,0 0,0 0,0 0,0 0.01,0 0.01,0 0,0 0,0 0,0 0,0 0,0 0,0 0,0 0,0 0,0 0,0 0,0.01 0,0.01l0 0 0 0 0 0c0,0 0,0.01 0,0.01 0,0.01 0,0.01 0,0.01l0 0 0 0.04c0,0.01 0,0.01 0,0.02 0,0 0,0 0,0.01 0,0 0,0.01 0,0.01 0,0 0,0 0,0 0,0 0,0 0,0 0,0 0,0 0.01,0 0,0 0,0 0,0 0,0 0,0 0,0 0,0 0,0 0,0 0,0.01 0,0.01 0,0.01l0 0c0,0.01 0,0.01 0,0.01 0,0 0,0 0,0 0,0 0,0 0,0 0,0 0,0 0,0 0,0 0,0.01 0,0.01 0,0 0,0 0,0l0 0.01 0 0c0,0 0,0 0,0 0,0 0,0 0,0l0 0 0 0 0 0c0,0 0,0 0,0 0,0 0,0 0,0 0,0 0,0 0,0l0 0 0 0 0 0c0,0 0,0 0,0 0,0 0,0 0,0 0,0 0,0 0,0l0 0c0,0 0,0 0,0 0,0 0,0 0,0 0,0 0,0 -0.01,0 0,0 0,0 0,0 0,0 0,0 0,0 0,0 0,0 0,0 0,0 0,0 0,0 0,0 0,0 0,0 0,0 0,0 0,0l0 0 0 0c0,0 0,0 0,0 0,0 0,0 0,0 0,0 0,0 0,0 0,0 0,0 0,0 0,0 0,0 0,0 0,0 0,0 0,0 0,0 0,0 0,0l0 0.01c0,0 0,0.01 0,0.01l0 0.01c0,0 0,0 0,0 0,0 0,0.01 0,0.01l0 0c0,0 0,0.01 0,0.01 0,0 0,0 0,0 0,0 0,0 0,0 -0.01,0 -0.01,0 -0.01,0 0,0 0,0 -0.01,0 0,0.01 0,0.01 0,0.01 0,0 0,0 0,0 0,0 0,0 0,0 -0.01,0 -0.01,0 -0.01,0l0 0 0 0 0 0c0,0 0,0 0,0l0 0c0,0 -0.01,0 -0.01,0l0 0c0,0 0.01,0 0.01,0l0 0c0,0 0,0 0,0l0 -0.01 0 0 0 0c-0.01,0 -0.01,0 -0.01,0l0 0 0 0 0 0c0,0 0,0 0,0 0,0 0,0 0,0 0,0 0,0 0,0 0,0 0,0 0,0l0 0 0 0c0.01,0 0.01,0 0.01,0 0,0 0,0 0,0 -0.01,0 -0.01,0 -0.01,0l0 0c0,0 0,0 0,0l0 0c0,0 0,0 0,0 0,-0.01 0,-0.01 0,-0.01 0,0 0,0 0,0 0,0 0,0 0,0 0,0 0,0 0,0l0 0c0,0 0,0 0,0 0,0 0,0 0,0l0 0c0,0 0,0 0,0 0,0 0,0 0,0 0,-0.01 0,-0.01 0,-0.01l0.01 0c0,0 0,0 0,0 0,0 0,0 0,0 0,0 0,0 -0.01,0 0,0 0,0 0.01,0 0,0 0,0 0,0l0 0 -0.01 0 0 0c0,0 0,0 0,0 0,0 0,0 0,0 0,0 0,-0.01 0,-0.01 0,0 0,0 0,0 0,0 0,0 0,0 0,0 0,0 0,0 0,0 0,0 0,0 0,0 0,0 0,0 0,0 0,0 0,0 0,0 0,0 0,0 0,0 0,0 0,0l0 0 0 0c0,0 0,0 0,0 0,0 0,0 0,0 0,0 0,0 0,0 0,0 0,-0.01 0,-0.01 0,0 0,0 0,0 0,0 0,0 0,0l0 0 0 0c0,0 0,0 0,0 0,0 0,0 0,0 0,0 0,-0.01 0,-0.01l0 0c0,0 0,0 0,0 0,0 0,0 0,0 0,0 0,0 0,0 0,0 0,0 0,0l0 0 0 0c0,0 0,0 0,0 0,0 0,0 0,0 0,0 0,0 0,0 0,0 0,0.01 0,0.01 0,0 0,0 0,0 0,0 -0.01,0 -0.01,0 0,0 0,0 0,0 0,-0.01 0,-0.01 0,-0.01 0,0 0,0 0,0 0,0 0,0 0,0.01 0,0 0,0 0,0 0,0 0,0 0,0 0,0 0,0 0,0 0,0 0,0 0,0l0 0c0,0 -0.01,0 -0.01,0 0,0 0,0 0,0 0,0 0,0 0,0 0,0 0,0 0,0 0,0 0,0 0,0 0,0 0,0 0,0l-0.01 0c0,0 0,0 0,0l0 0c0,0 0,0 0,0 0,0 0,0 0,0l0 0c0,0 0,0 0,0 -0.01,0.01 -0.01,0.01 -0.01,0.02 0,0 0,0 0,0 0,0.01 -0.01,0.01 -0.01,0.02 0,0 0,0 0,0.01 0,0 -0.01,0 -0.01,0l0 0.01c0,0 0,0 0,0.01l-0.01 0c0,0 0,0 0,0zm0.06 -0.11l0 0c0,0 0,0 0,0 0.01,0 0.01,0 0.01,0 0,0 0,0 0,0l0 0c0,0 0,0 0,0 0,0 0,0 0,-0.01l0 0c0,0 0,0 0,0 0,0 0,0 0,0l0 0c0,0 0,0 0,0 0,-0.01 0,-0.01 0,-0.01 0,0 0,0 0,0 0,0 0,0 0,0 0,0 0,0 0,0 0,0 0,0 0,0 0,0 0,0 0,0 0,0 0,0 0,-0.01 0,0 0,0 0,0 0,0 0,0 0,0 0,0 0,0 0,0 0,0 0,0 0,0 0,0 0,0 0,0l0 0 0 0 0 0c0,0 0,0 0,-0.01 0,0 0,0 0,0l0 0 0 0c0,0 0,0.01 0,0.01 0,0 0,0 0,0 0,0 0,0 0,0l0 0c0,0 0,0 0,0 0,0 0,0 0,0 0,0 0,0 0,0 0,0 0,0 0,0l0 0 0 0 -0.01 0.01c0,0 0,0 0,0 0,0 0,0 0,0 0,0 0,0 0,0 0,0 0,0 0,0 0,0 0,0 0,0l0 0c0,0 0,0 0,0 0,0 0,0 0,0 0,0 0,0.01 0,0.01l0 0c0,0 0,0 0,0 0,0 0,0 0,0 0,0 0,0 0,0 0,0.01 0,0.01 0,0.01l0 0 0 0 0 0zm0.08 0.11l0 0c0,0 0,0 -0.01,0 0,0 0,0 0,0 0,0 -0.01,0 -0.01,0l0 0c0,0 0,0 0,0l0 0 0 0c0,0 0,0 0,0 0,0 0,0 0,0l0 0c0,0 0,0 0,0 0,0 0,0 0,0 0,-0.01 0,-0.01 0,-0.01 0,0 0,0 0,0l0 0c0,0 0,0 0,0 0,0 0,0 0,0 -0.01,0 -0.01,0 -0.01,0 0,0 0,0 0,0 0.01,-0.01 0.01,-0.01 0.01,-0.02 0,0 0.01,-0.01 0.01,-0.01 0,-0.01 0,-0.02 0,-0.02l0 0c0,0 0,0 0,0 0,0 0,0 0,0 0,0 0,0 0,0 -0.01,0.01 -0.02,0.01 -0.02,0.01l-0.01 0c0,0 0,0 0,0 0,0 0,0 0,0 0,-0.01 0,-0.01 0,-0.01 0,0 0,-0.01 0,-0.01 0,0 0,0 0,0 0,0 0,0 0,0 0,0 0,0 0,0 0,0 0,0 0,0 0,0 0,0 0,0l0 -0.01c0,0 0,0 0,0 0,0 0,0 0,0l0 0c0,0 0,0 0,0 0,0 0,0 0,0 0,0 0,-0.01 0,-0.01 0.01,0 0.01,0 0.01,0 0.01,0 0.01,0 0.02,0 0.02,-0.01 0.02,-0.01 0.02,-0.01 0,0 0,0 0,0l0 0c0,0 0,0 0.01,-0.01 0,0 0,-0.01 0,-0.02 0.01,0 0.01,-0.01 0.01,-0.02l0 0 0.01 -0.01c0.01,-0.01 0.01,-0.02 0.01,-0.03 0.01,0 0.01,-0.01 0.01,-0.01l0 -0.01c0,0 0,0 0,0 0,0 0,-0.01 0,-0.01 0.01,0 0.01,-0.01 0.01,-0.01 0,0 0,0 0,0 0.01,0 0.01,0 0.01,0 0,0 0.01,0 0.01,0 0,0 0,0 0,0l0 0c0,0 0,0 0,0 0,0 0,0 0,0 0,0 0,0 0,0 0,0 0.01,0 0.01,0 0,0 0,0 0,0 0,0 0,0 0,0 0,0 0,0 0.01,0 0,0 0,0 0,0 0,0 0,0 0,0 0,0 0,0 0,0 0,0 0,0.01 0,0.01l0 0 0 0 0 0c0,0 0,0.01 0,0.01 0,0.01 0,0.01 0,0.01l0 0 0 0.04c0,0.01 0,0.01 -0.01,0.02 0,0 0,0 0,0.01 0,0 0,0.01 0,0.01 0,0 0,0 0,0 0.01,0 0.01,0 0.01,0 0,0 0,0 0,0 0,0 0,0 0,0 0.01,0 0.01,0 0.01,0 0,0 0,0 0,0 0,0.01 0,0.01 0,0.01l0 0c0,0.01 0,0.01 0,0.01 0,0 0,0 0,0 0,0 0,0 0,0 0,0 0,0 0,0 0,0 0,0.01 0,0.01 0,0 0,0 0,0l0 0.01 0 0c0,0 0,0 0,0 0,0 0,0 0,0l0 0 0 0 0 0c0,0 0,0 0,0 0,0 0,0 0,0 0,0 0,0 0,0l0 0 0 0 0 0c0,0 0,0 0,0 0,0 0,0 0,0 0,0 0,0 0,0l0 0c0,0 0,0 0,0 0,0 0,0 0,0 0,0 -0.01,0 -0.01,0 0,0 0,0 0,0 0,0 0,0 0,0 0,0 0,0 0,0 0,0 0,0 0,0 0,0 0,0 0,0 0,0 0,0 0,0l0 0 0 0c0,0 0,0 0,0 0,0 0,0 0,0 0,0 0,0 0,0 0,0 0,0 0,0 0,0 0,0 0,0 0,0 0,0 0,0 0,0 -0.01,0 -0.01,0l0 0.01c0,0 0.01,0.01 0.01,0.01l0 0.01c0,0 0,0 0,0 0,0 0,0.01 0,0.01l0 0c0,0 0,0.01 0,0.01 0,0 0,0 0,0 0,0 0,0 0,0 -0.01,0 -0.01,0 -0.01,0 0,0 0,0 -0.01,0 0,0.01 0,0.01 0,0.01 0,0 0,0 0,0 0,0 0,0 -0.01,0 0,0 0,0 0,0l0 0 0 0 0 0c-0.01,0 -0.01,0 -0.01,0l0 0c0,0 0,0 0,0l0 0c0,0 0,0 0,0l0 0c0,0 0,0 0,0l0 -0.01 0 0 0 0c0,0 0,0 0,0l0 0 0 0 0 0c0,0 0,0 0,0 0,0 0,0 0,0 0,0 0,0 0,0 0,0 0,0 0,0l0 0 0 0c0,0 0,0 0,0 0,0 0,0 0,0 0,0 0,0 0,0l0 0c0,0 0,0 0,0l0 0c0,0 0,0 0,0 0,-0.01 0,-0.01 0,-0.01 0,0 0,0 0,0 0,0 0,0 0,0 0,0 0,0 0,0l0 0c0,0 0,0 0,0 0,0 0,0 0,0l0 0c0,0 0,0 0,0 0,0 0,0 0,0 0,-0.01 0,-0.01 0,-0.01l0 0c0,0 0,0 0,0 0,0 0,0 0,0 0,0 0,0 0,0 0,0 0,0 0,0 0,0 0,0 0,0l0 0 0 0 0 0c0,0 0,0 0,0 0,0 0,0 0,0 0,0 0,-0.01 0,-0.01 0,0 0,0 0,0 0,0 0,0 0,0 0,0 0,0 0,0 0,0 0,0 0,0 0,0 0,0 0,0 0,0 0,0 0,0 0,0 0,0 0,0 0,0 0,0 0,0l0 0 0 0c0,0 0,0 0,0 0,0 0,0 0,0 0,0 0,0 0,0 0,0 0,-0.01 0,-0.01 0,0 0,0 0,0 0,0 0,0 0,0l0 0 0 0c0,0 0,0 0,0 0,0 0,0 0,0 0,0 0,-0.01 0,-0.01l0 0c0,0 0,0 0,0 0,0 0,0 0,0 0,0 0,0 0,0 0,0 0,0 0,0l0 0 0 0c0,0 0,0 0,0 0,0 0,0 0,0 0,0 0,0 0,0 0,0 0,0.01 0,0.01 0,0 0,0 0,0 -0.01,0 -0.01,0 -0.01,0 0,0 0,0 0,0 0,-0.01 0,-0.01 0,-0.01 0,0 0,0 0,0 0,0 0,0 0,0.01 0,0 0,0 0,0 0,0 0,0 0,0 0,0 0,0 0,0 0,0 0,0 0,0l-0.01 0c0,0 0,0 0,0 0,0 0,0 0,0 0,0 0,0 0,0 0,0 0,0 0,0 0,0 0,0 0,0 0,0 0,0 -0.01,0l0 0c0,0 0,0 0,0l0 0c0,0 0,0 0,0 0,0 0,0 0,0l0 0c0,0 0,0 0,0 -0.01,0.01 -0.01,0.01 -0.01,0.02 0,0 0,0 0,0 0,0.01 -0.01,0.01 -0.01,0.02 0,0 0,0 0,0.01 0,0 -0.01,0 -0.01,0l0 0.01c0,0 0,0 0,0.01l-0.01 0c0,0 0,0 0,0zm0.06 -0.11l0 0c0,0 0,0 0,0 0,0 0.01,0 0.01,0 0,0 0,0 0,0l0 0c0,0 0,0 0,0 0,0 0,0 0,-0.01l0 0c0,0 0,0 0,0 0,0 0,0 0,0l0 0c0,0 0,0 0,0 0,-0.01 0,-0.01 0,-0.01 0,0 0,0 0,0 0,0 0,0 0,0 0,0 0,0 0,0 0,0 0,0 0,0 0,0 0,0 0,0 0,0 0,0 0,-0.01 0,0 0,0 0,0 0,0 0,0 0,0 0,0 0,0 0,0 0,0 0,0 0,0 0,0 0,0 0,0l0 0 0 0 0 0c0,0 0,0 0,-0.01 0,0 0,0 0,0l0 0 0 0c0,0 0,0.01 0,0.01 0,0 0,0 0,0 0,0 0,0 0,0l0 0c0,0 0,0 0,0 0,0 0,0 0,0 0,0 0,0 0,0 0,0 0,0 0,0l0 0 0 0 -0.01 0.01c0,0 0,0 0,0 0,0 0,0 0,0 0,0 0,0 0,0 0,0 0,0 0,0 0,0 0,0 0,0l0 0c0,0 0,0 0,0 0,0 0,0 0,0 0,0 0,0.01 0,0.01l0 0c0,0 0,0 0,0 0,0 0,0 0,0 0,0 0,0 0,0 0,0.01 0,0.01 -0.01,0.01l0 0 0 0 0.01 0z"/>
   <path class="fil0" d="M0.45 0.21c-0.01,0 -0.02,0 -0.02,0 -0.01,-0.01 -0.02,-0.01 -0.03,-0.02 0,-0.01 0,-0.03 0,-0.04 -0.01,0 -0.01,0 -0.01,0 0,0 0.01,-0.01 0.01,-0.02 0,-0.02 0.01,-0.04 0.02,-0.05 0,0 0,0 0,0 0,-0.01 0.01,-0.02 0.01,-0.03l0.01 0c0,0 0,0 0,0 0,0 0,0 0,0l0 0c0,0 0,0 0,-0.01 0,0 0.01,0 0.01,0 0,0 0.01,-0.01 0.01,-0.01 0,0 0.01,0 0.01,0 0,0 0,0 0,0 0,0 0,0 0,0l0 0c0,0 0,0 0,0 0.01,0 0.01,0 0.01,0l0 0c0,0 0,0 0,0 0,0 0.01,0 0.01,0 0,0 0,0 0,0l0 0c0,0 0,0 0,0 0,0 0,0 0,0l0 0c0,0 0,0 0,0l0 0 0 0c0.01,0 0.01,0 0.01,0.01l0.01 0c0,0 0,0 0,0 0,0 0,0 0,0l0 0 0 0 0 0c0,0 0,0 0,0 0.01,0 0.01,0 0.01,0.01l0 0 0 0c0,0 0,0 0,0l0 0c0,0 0,0 0,0l0 0 0 0c0.01,0 0.01,0 0.01,0.01l0 0c0,0 0,0 0,0 0,0 0,0 0,0.01l0 0c0,0 0,0 0,0 0,0 0.01,0 0.01,0l0 0c0,0.01 0,0.01 0,0.01 0,0 0,0 0,0.01l-0.01 0c0,0 0,0 0,0 0,0 0.01,0 0.01,0l-0.01 0c0,0 0,0.01 0,0.01 0,0 0,0 0,0l0 0 0.01 0c0,0 0,0 0,0 0,0 -0.01,0.01 -0.01,0.01l0 0 0 0c0,0 0,0 0,0 0,0 0,0 0,0.01l0 0c0,0 0,0 0,0 0,0 0,0 0,0.01 0,0 0,0 0,0 0,0 0,0 0,0 0,0 0,0 0,0 0,0 0,0 0,0 0,0.01 -0.01,0.02 -0.01,0.02l0 0c0,0 0,0.01 0,0.01l0 -0.01c0,0 0,0.01 0,0.01 0,0 0,0 0,0 0,0 0,0 0,0 0,0 0,0 0,0l0 0c-0.01,0 -0.01,0.01 -0.01,0.01l-0.01 0.01c0,0 0,0 0,0 0,0 0,0 0,0l0 0c0,0 0,0 0,0l0 0c0,0 0,0 0,0 0,0 0,0 0,0l0 0 0 0.01c-0.01,0 -0.01,0 -0.01,0 0,0 0,0 0,0l0 0.01 0 0c0,0 0,0 -0.01,0 0,0 0,0 0,0 -0.01,0.01 -0.01,0.01 -0.02,0.01 -0.01,0 -0.01,0 -0.01,0zm0 -0.03c0,0 0,0 0.01,-0.01 0,0 0,0 0.01,0 0.01,-0.01 0.01,-0.02 0.02,-0.03 0.01,-0.01 0.01,-0.03 0.01,-0.04 0,0 0,-0.01 0,-0.01l0 0c0,-0.01 0,-0.01 0,-0.01 0,-0.01 0,-0.01 -0.01,-0.01 0,0 -0.01,0 -0.01,0 -0.01,0 -0.01,0 -0.01,0 0,0 0,0 0,0 0,0 0,0 0,0l0 0c0,0.01 0,0.01 -0.01,0.01 0,0.01 0,0.01 0,0.01l0 0 0 0 0 0c0,0 0,0 0,0 0,0 0,0 0,0l0 0c0,0 0,0 0,0 0,0 0,0 0,0 0,0 0,0 0,0 0,0 0,0 0,0 0,0 0,0 0,0 0,0 0,0 0,0 0,0 0,0 0,0l0 0c0,0 0,0 0,0 0,0.01 0,0.01 -0.01,0.01 0,0 0,0 0,0 0,0 0,0 0,0 0,0 0,0 0,0.01l0 0c0,0.01 0,0.02 0.01,0.02l0 0c0,0 0,0 0,0l0 0c0,0.01 0,0.01 0,0.01 0,0 0,0 -0.01,0 0,0 0,0 0,0 0,0 0,0.01 -0.01,0.01 0,0 0,0 0,0 0,0 0,0 0,0l0 0c0,0 0,0 0,0.01l0 0c0,0 0,0 0,0 0,0 0,0 0,0l0 0.01c0,0 0,0 -0.01,0 0,0 0,0 0,0 0,0 0,0 0,0 0,0 0,0 0,0 0,0 0,-0.01 0,-0.01l0 0 0 0c0,0.01 0.01,0.02 0.01,0.02 0.01,0 0.01,0 0.01,0zm0.14 0.05c0,0 0,0 0,0 0,0 0,0 0,0 -0.01,0 -0.01,0 -0.01,0 0,0 0,0 0,0 0,0 0,0 0,0l0 0c0,0 0,0 0,0 0,0 0,0 0,0 -0.01,0 -0.02,-0.01 -0.02,-0.01l-0.01 0c0,0 0,-0.01 0,-0.01l0 0 0 0c0,0 0,0 0,0 0,0 0,0 0,0l0 0 0 0c0,0 0,0 0,0 0,0 0,0 0,0l0 0c0,-0.01 -0.01,-0.01 -0.01,-0.01 0,0 0,0 0,0 0,0 0,0 0,0 0,0 0,-0.01 0,-0.01 0,0 0,0 0,0 0,0 0,-0.01 0,-0.01l0 0c0,-0.01 0,-0.01 0,-0.01 0,0 0,0 0,-0.01 0,0 0,0 0,0 0,-0.01 0,-0.02 0.01,-0.03l0 -0.01c0,0 0,-0.01 0,-0.02l0.01 -0.01c0,-0.01 0,-0.02 0.01,-0.03l0 0c0,-0.01 0,-0.02 0.01,-0.03l0 0c0,0 0,0 0,0 0,0 0,0 0,0 0,0 0.01,0 0.01,0l0.01 0 0 0c0,0 0,0 0,0l0 0 0 0c0,0 0,0 0,0 0,0 0,0 0,0 0,0 0,0 0,0 0,0 0,0 0,0l0 0 0 0c0,0 0,0 0,0 0,0 0,0 0,0l0 0.01 0 0c0,0 0,0 0,0l0 0c0,0 0,0 0,0 0,0 0,0 0,0 0,0 0,0 0,0 0,0 0,0 0,0l0 0c0.01,0 0.01,0 0.01,0 0,0 0,0 0,0 0,0 0,0 0,0.01 -0.01,0.01 -0.01,0.02 -0.01,0.03 -0.01,0 -0.01,0.01 -0.01,0.01l0 0.01c-0.01,0.02 -0.01,0.04 -0.01,0.05l0 0c0,0.01 0,0.01 0,0.02 -0.01,0 -0.01,0 -0.01,0.01 0,0 0.01,0.01 0.01,0.01 0,0.01 0,0.01 0,0.01 0.01,0 0.01,0 0.01,0 0.01,0 0.01,-0.01 0.02,-0.01 0.01,-0.01 0.01,-0.02 0.02,-0.02 0,-0.01 0,-0.01 0,-0.01l0 -0.01c0.01,-0.01 0.01,-0.02 0.02,-0.03l0 0c0,-0.01 0,-0.02 0.01,-0.03l0 -0.02c0,0 0,-0.01 0.01,-0.01 0,-0.01 0,-0.01 0,-0.02 0,0 0,0 0,0 0,0 0,0 0.01,-0.01 0,0 0,0 0,0 0,0 0,0 0,0 0,0.01 0.01,0.01 0.01,0.01 0,0 0,0 0,0 0,0 0,0 0,0 0,0 0,0 0,0 0,-0.01 0.01,-0.01 0.01,-0.01 0,0 0,0 0,0l0 0c0.01,0 0.01,0 0.01,0 0,0 0,0 0,0 0,0 0,0 0,0 0,0 0,0 0,0l0 0 0 0c0,0.01 0,0.01 0,0.01 0,0 0,0 0,0 0,0 -0.01,0 -0.01,0l0 0 0 0 0 0 0 0 0 0c0.01,0 0.01,0 0.01,0.01 0,0 0,0 -0.01,0l0 0 0 0c0,0 0,0 0,0l0 0 0 0 0.01 0c0,0 -0.01,0 -0.01,0 0,0 0,0 0,0l0 0c0,0 0,0 0,0 0,0 0,0 0,0 0,0 0,0 0,0 0,0 0,0 0,0 0,0 0,0 0,0 0,0 0,0 0,0l0 0c0,0.01 0,0.01 0,0.01 0,0 0,0 0,0.01 0,0 0,0 0,0l0 0c0,0 0,0 0,0 0,0 0,0 0,0 0,0 0,0 0,0.01l0 0 -0.01 0 0 0c0,0 0,0 0,0 0,0 0,0 0,0 0,0 0,0 0,0l0 0.01c0,0 0,0 0,0 0,0 0,0 0,0 0,0 0,0 0,0 0,0 0,0 0,0 0,0 0,0 0,0l0 0c0,0 0,0 0,0l0 0 0 0c0,0.01 0,0.02 0,0.02 0,0 0,0 -0.01,0 0,0 0,0 0,0 0,0 0,0 0,0.01l0 0c0,0 0,0 0,0 0,0 0,0 0,0 0,0 0,0 0,0 0,0 0,0 0,0 0,0 0,0 0,0l0 0c0,0 0,0 0,0 0,0.01 0,0.01 0,0.01l0 0c0,0 0,0 0,0l0 0c0,0 0,0.01 0,0.01 0,0 -0.01,0 -0.01,0l0 0c0,0 0,0.01 0,0.01l0 0c0,0 0,0 0,0 0,0 0,0 0,0 0,0 0,0 0,0 0,0 0,0 0,0 0,0 0,0 0,0 0,0 0,0 0,0 0,0 0,0 0,0 0,0.01 0,0.01 0,0.01 0,0 0,0 0,0l0 0 0 0c0,0 0,0 0,0l0 0c0,0 0,0 0,0l0 0c0,0.01 0,0.01 0,0.01 0,0 0,0 0,0l-0.01 0c0,0 0,0 0,0 0,0 0,0 0,0l0 0c0,0 0,0 0,0 0,0 0,0 0,0l0 0c0,0 0,0 0,0 0,0 0,0 0,0 0,0 0,0.01 0,0.01 0,0 0,0 0,0 0,0 0,0 0,0l0 0 0 0c0,0 0,0 0,0 0,0.01 0,0.01 -0.01,0.01l0 0c0,0 0,0 0,0.01 -0.01,0 -0.01,0 -0.01,0 0,0 0,0 0,0 0,0 0,0 0,0 0,0 0,0 0,0 0,0 0,0 0,0 0,0 0,0.01 0,0.01l0 0c0,0 0,0 0,0 -0.01,0 -0.01,0 -0.01,0 0,0 0,0 0,0l0 0c0,0.01 -0.01,0.01 -0.01,0.01l0 0c0,0 0,0 0,0 0,0 0,0 0,0 0,0 0,0 0,0 -0.01,0.01 -0.02,0.01 -0.03,0.01z"/>
   <path class="fil0" d="M0.72 0.24c0,0 0,-0.01 -0.01,-0.01 0,0 0,0 0,0 0,0 0,0 0,0 0,0 -0.01,0 -0.01,0l0 0c0,0 0,0 0,0 0,0 0,0 0,0 0,0 -0.01,0 -0.01,0 0,0 0,0 0,0 0,0 0,0 0,0 0,0 0,0 0,0 0,0 0,0 0,0l0 0c0,0 0,0 0,0l0 0 0 0c0,0 0,0 0,0l0 -0.01 0 0 0 0 0 0 0 0 0 0c0,0 0,0 0,0l0 0c0,0 0,0 0,0 0,0 0,0 0.01,0 0,0 0,0 0,0 0,0 0,0 0,0 0,0 0,0 0,0 0,-0.01 0,-0.01 0,-0.01 0,0 0,0 0,0 0,0 -0.01,0 -0.01,0 0,0 0.01,0 0.01,0 0,0 0,0 0,0 0,0 0,0 0,0 0,0 0,0 0,0 0,0 0,0 0,0 0,0 0,0 0,0 0,0 0,0 0,0 0,0 0,0 0,0l0 0 0 0c0,0 0,0 0,0 0,0 0,0 0,0 0,0 0,0 0,0 0,0 0,0 0,0l0 -0.01c0,0 0,0 0,0l0 0 0 0c0,0 0,0 0,0l0 0 0 0c0,0 0,-0.01 0,-0.01 0,0 0,0 0,0 0,0 0,0 0,0 0,0 0.01,-0.01 0.01,-0.03 0,0 0,0 0,0 0,0 0,0 0,0 0,0 0,0 0,0 0,0 0,0 0,0 0,0 0,0 0,0 0,0 0,0 0,0 0,0 0,0 0,0l0 0 0 0 0 0c0,0 0,0 0,0 0,0 0,-0.01 0.01,-0.01l0 0c0,0 0,0 0,0 0,0 0,0 0,0 0,0 0,0 0,0 0,0 0,0 0,0 -0.01,0 -0.01,0 -0.01,0 0.01,0 0.01,0 0.01,0 0,0 0,0 0,0 0,0 0,0 0,0 0,0 0,-0.01 0,-0.01 0,0 0,0 0,0 0,0 0,0 0,0 0,0 0,0 0,0 0,0 0,0 0,0 0,0 0,0 0,0l0 0c0,0 0,0 0,0 0,0 0,0 0,0 0,0 0,0 0,0 0,0 0,0 0,0 0,0 0,0 0,0 0,0 0,0 0,0l0 0c0,0 0,0 0,0 0,0 0,0 0,0 0,-0.01 0,-0.01 0,-0.01 0,0 0,0 0,0 0,0 0,0 0,0 0,0 0,0 0,0 0,0 0,0 0,0 0,0 0,0 0,0l0 0c0,0 0,0 0,0 0,0 0,0 0,0l0 -0.01c0,0 0,0 0,0 0,0 0,0 0,0 0,0 0,0 0,0 0,0 0,0 0,0 0,0 0,0 0,0 0,0 0,0 0,0 0,0 0,0 0,0l0 0c0,0 0,0 0,0 0,0 0,0 0,0 0,-0.01 0,-0.01 0,-0.01 0,0 0,0 0,0 0,0 0.01,0 0.01,0l0 -0.01c0,0 0,0 0,0 0,0 0,0 0,0 0,0 0,0 0,0 0,0 0,0 0,0 0,0 0,0 0,0 0,0 0,0 0,0 0,0 0,-0.01 0,-0.01l0 0c0,0 0,0 0,0l0 0c0,0 0,0 0,0 0,0 0,0 0,0l0 0 0 0c0,0 0,0 0,0 0,0 0,0 0,0 0,0 0,0 0,0 0,0 0,0 0,0 0,-0.01 0,-0.01 0,-0.01 0,0 0,0 0,0 0,0 0,0 0,0 0.01,-0.01 0.01,-0.01 0.01,-0.01 0,0 0,-0.01 0,-0.01 0,0 0,-0.01 0,-0.01 0,0 0,0 0,-0.01 0,0 0,0 0,0l0 0c0,0 0,0 0,0l0 0 0 0c0,0 0,0 0,0 -0.01,0 -0.01,0 -0.01,0 -0.01,0 -0.01,0 -0.01,0l-0.01 0 0 0c0,0 0,0 -0.01,0 0,0 0,0 -0.01,0 0,0.01 -0.01,0.01 -0.01,0.01l-0.01 0 0 0c0,0 0,-0.01 -0.01,-0.01l0 0c0,-0.01 0,-0.01 0,-0.01 0,0 0,0 0,0 0,0 0,0 0,0 0,0 0,0 0,0 0,0 0,0 0,0 0,0 0,0 0,0 0,0 0,-0.01 0,-0.01l0 0c0,0 0,0 0,0 0,0 0,0 0,0 0,0 0,0 0,0 0,0 0,0 0,0 0,0 0,0 0,0 0,0 0,0 0,0l0 0 0 0c0,0 0,-0.01 0.01,-0.01l0 0c0,0 0.01,0 0.02,0 0,0 0,0 0,0 0.01,0 0.01,0 0.01,0l0.01 0c0.01,0 0.01,0 0.01,0l0.01 0 0.01 0c0,0 0,0 0.01,0 0,0 0.01,0 0.01,0 0,0 0.01,-0.01 0.01,-0.01l0.01 0c0,0 0.01,0 0.01,0l0.01 0c0,0 0,0 0.01,0 0.01,0 0.02,0 0.02,0 0,0 0,0 0.01,0 0,0 0,0 0,0 0,0 0,0 0,0 0,0 0.01,0 0.01,0l0 0c0.01,0 0.01,0 0.01,0l0 0c0,0 0,0 0,0.01 0,0 0,0 0,0l0 0c0,0 0,0.01 0,0.01 0,0 0,0 0,0 0,0 0,0 0.01,0l0 0c0,0 0,0 0,0 0,0 0,0.01 0,0.01l0 0c0,0 0,0 0,0l0 0.01 0 0 -0.01 0c0,0 0,0 0,0 0,0 0,0 0,0 0,0 0,-0.01 0,-0.01 0,0 0,0 0,0l0 0 0 0 0 0.01c0,0 0,0 0,0 0,0 0,0 0,0 0,0 0,0 0,0 0,0 0,0 0,0l0 0 0 0c0,0 0,0 0,0 0,-0.01 0,-0.01 0,-0.01 0,0 0,0 0,0 0,0.01 0,0.01 0,0.01 0,0 0,0 0,0 0,0 0,0 0,0 -0.01,0 -0.01,0 -0.01,0 0,0 0,0 0,0 0,0 0,0 0,0 0,0 0,0 0,0 0,0 0,0 0,0 0,0 0,0 0,0 0,0 0,0 0,0 0,0 0,0 0,0 0,0 0,0 0,0 0,0 0,0 0,0 0,0 0,0 0,0 0,0 0,0 0,0l0 0c0,0 0,0 0,0l0 0c0,0 0,0 -0.01,0 0,0 0,0 0,-0.01 0,0 0,0 0,0l0 0c0,0 0,0 0,0 0,0 0,0 0,0 0,0 0,0 0,0 0,0 0,0 0,0l0 0 0 0 0 0 0 0.01c0,0 0,0 0,0l-0.01 0c0,0 0,0 0,0 0,0 0,0 0,0 0,0 0,0 0,0 0,0 0,0 0,0l0 0c0,0 0,0 0,0 0,0 -0.01,0 -0.01,0 0,0 0,0 0,0 0,0 0,0 0,0 0,0 0,0 0,0 0,0 0,0 0,0 0,0 0,0 0,0 0,0 0,0 0,0l0 0 0 0 0 0c0,0 0,0 -0.01,0 0,0 0,0 0,0 0,0 0,0 0,0l0 0c0,0 0,0 0,0 0,0 0,0 0,0 0,0 0,0 0,0 0,0 0,0 0,0 0,0 0,0 0,0l0 0c0,0 0,0 0,0 0,0 0,0 0,0 0,0 0,0 0,0 0,0 0,0 -0.01,0 0,0 0,0 0,0l0 0c0,0 0,0 0,0 0,0 0,0 0,0 0,0 0,0 0,0 0,0 0,0 0,0 0,0 0,0 0,0l0 0 0 0c0,0 0,0 0,0 0,0 0,0 0,0l0 0c0,0 0,0 0,0 0,0 0,0 0,0l0 0c0,0 0,0 0,0 0,0 0,0 0,0 -0.01,0 -0.01,0 -0.01,0 0,0 0,0 0,0l0 0c0,0 0,0 0,0 0,0 0,0 0,0 0,0 0,0 0,0 0,0 0,0 0,0l0 0c0,0 0,0 0,0 -0.01,0 -0.01,0 -0.01,0 0,0 0,0 0,0 0,0 0,0 0,0 0,0 0,0 0,0 0,0 0,0 0,0 0,0 0,0 0,0l0 0 0 0c0,0 0,0.01 -0.01,0.02 0,0.01 0,0.01 0,0.01 0,0.01 0,0.02 -0.01,0.03 0,0 0,0.01 0,0.01l0 0.01c0,0 0,0.01 0,0.01 -0.01,0.01 -0.01,0.01 -0.01,0.02 0,0 0,0 0,0 -0.01,0.03 -0.02,0.05 -0.02,0.06 0,0 0,0 0,0l0 0.01 0 0c0,0 0,0 0,0 0,0.01 0,0.01 0,0.01 0,0 0,0 0,0 -0.01,0 -0.01,0.01 -0.01,0.01zm0.12 -0.01c-0.01,0 -0.01,0 -0.01,0 -0.01,0 -0.02,0 -0.03,-0.01 0,0 -0.01,0 -0.01,0 0,-0.01 -0.01,-0.02 -0.01,-0.03 0,0 0,0 0,0 0,-0.01 0,-0.01 0,-0.01 0,0 0.01,-0.01 0.01,-0.01 0,0 0,0 0,0 0,0.01 0,0.01 0,0.01l0.01 0c0,0 0,0 0,0 0,0 0,0 0,0l0 0 0 0c0,-0.01 0,-0.01 0.01,-0.01 0,0 0,0.01 0,0.01l0 0c0,0 0,0 0,0.01l0 0c0,0 0,0 0,0 0,0 0,0 0,0 0,0 0,0 0,0 0,0 0,0 0,0 0,0 0,0 0,0 0,0 0,0 0,0 0,0 0,0 0,0 0,0 0,0 0,0 0,0 0,0 0,0 0,0 0,0 0,0 0,0 0.01,0 0.01,0 0,0 0,0 0,0 0,0 0,0 0,0 0,0 0,0 0,0 0,0 0,0 0,0 0,0 0,0 0,0 0,0 0.01,0 0.01,0l0 0c0,0 0,0 0,0.01 0,0 0,0 0,0 0,0 0,0 0,0 0,0 0,0 0,0 0,0 0,0 0.01,0 0,0 0,0 0,0 0,0 0,0 0,0 0,0 0,0 0,0 0,0 0,0 0,0 0,0 0,0 0,0 0,0 0,0 0,0 0,0 0,0 0,0 0,0 0,0 0,0 0.01,-0.01 0.01,-0.01 0.02,-0.01 0,0 0.01,0 0.01,0l0 0 0 0c0,0 0,0 0.01,0 0,0 0,0 0,0 0,0 0,0 0,0 0,0 0,0 0,0 0,0 0,0 0,0 0,0 0,0 0,0 0,0 0,0 0,0 0.01,-0.01 0.01,-0.01 0.02,-0.01 0,0 0,0 0,0 0,0 0,0 0,0 0,0 0,0 0.01,0 0,0 0,0 0,0 0,0 0,0 0,0l0 0 0 -0.01c0,0 0,0 0,0 0,0 0,0 0,0 0.01,0 0.01,0 0.01,0 0,0 0,0 0,0 0,0 0,0 0,0 0,0 0,0 0,0 0,0 0,0 0,-0.01 0,0 0,0 0,0 0,0 0,0 0,0l0 0c0.01,0 0.01,0 0.01,0 0,0 0,0 0,0 0,0 0,0 0,0l0 0c0,0 0,0 0,0 0,0 0,0 0,0l0 0 0 0c0,-0.01 0.01,-0.01 0.01,-0.01 0,0 0,0 0,0 0,0 0,0 0,0 0,0 0,0 0,0l0 0c0,0 0,-0.01 0,-0.01 0,0 0,0 0.01,0 0,-0.01 0,-0.01 0,-0.01 0,0 0,0 0,0 0.01,0 0.01,0 0.01,-0.01 0,0 0,0 0,0 0,0 0,0 0,0 0,0 0,0 0,0 0,0 0,0 0,0 0,-0.01 0,-0.01 0,-0.01 0,-0.01 0,-0.01 0,-0.01l0 0c0,0 0,0 0,0l0 -0.02c0,0 0,0 0,0 0,0 0,0 0,0 0,0 0,0 0,-0.01 0,0 0,0 0,0l0 0c0,0 0,0 0,0l0 0c-0.01,0 -0.01,-0.01 -0.01,-0.01 0,0 0,0 0,0 0,0 0,0 0,0l0 0c0,0 0,0 0,0 0,0 -0.01,0 -0.01,0 0,0 0,0 0,0 0,0 0,0 -0.01,0l0 0c0,0 -0.01,0 -0.02,0 -0.01,0.01 -0.03,0.01 -0.04,0.02 0,0 -0.01,0 -0.01,0 0,0 0,0 0,0 0.01,0 0.01,0 0.01,0l0 0c0,0 0,0 0,0 0,0 0,0 0,0 0,0 0,0 0,0 0,0 0,0.01 0,0.01 0.01,0 0.01,0 0.01,0l0 0 0 0c-0.01,0 -0.01,0 -0.01,0 0,0.01 0,0.01 0,0.01 0,0 0,0 0,0 0,0 0,0 0,0l0.02 0c0,0 0,0 0,0 0,0 0,0.01 0,0.01 0.01,0.01 0.01,0.01 0.01,0.01 0,0 0,0 0,0 0,0 0,0 0,0 -0.01,0 -0.01,0 -0.01,0 0,0 0,0 0,0l0 0 0 0c0,0 0,0 0.01,0 0,0 0,0 0,0 0,0 0,0 0,0 0,0.01 0,0.01 -0.01,0.01 0,0 0,0 0,0 0,0 0,0 0,0 0,0 0,0 0,0l0 0c0,0 0,0 0,0 0,0 0,0 0,0 0,0 0,0 0,0 0,0 0,0.01 -0.02,0.01 0,0 -0.01,0 -0.01,0 0,0 0,0 0,0 0,0 0,0.01 0,0.01 0,0.01 -0.01,0.02 -0.01,0.02 0,0 0,0 0,0 0,0.01 0,0.01 0,0.01 0,0.01 0,0.01 0,0.01l0 0c0,0 0,0 0,0 -0.01,0 -0.01,0 -0.01,0 0,0 -0.01,0 -0.01,0 0,0 0,0 0,0 0,0 0,0 0,0 0,0 -0.01,0 -0.01,-0.01 0,0 0,0 0,0 0,0 0,0 0,0 0,0 0,0 0,0l0 0c0,0 0,0 0,0 0,0 0,0 0,0l0 0c0,0 0,0 0,0 0,0 0,0 0,0l0 0c0,0 0,0 0,0 0,0 0,0 0,0 0,0 0,0 0,0 0,0 0,0 0,0 0,0 0,0 0,0 0,-0.01 0,-0.01 0,-0.01 0,0 0,0 0,0 0,0 0,0 0,0 0,0 0,0 0,0 0,0 0,0 0,0 0,0 0,0 0,0 0,0 0,0 0,0l0 0c0,0 0,0 0,0 0,0 0,0 0,0 0,0 0,0 0,0 0,0 0,0 0,0 0,0 0,0 0,0 0,-0.01 0,-0.01 0,-0.01 0,0 0,0 0,0 0,0 0,0 0,0 0,0 0,0 0,0 0,0 0,0 0,0 0,0 0,0 0,0 0,0 0,0 0,0 0,0 0,0 0,0 0,0 0,0 0,0 0,0 0,0 0,0 0,0 0,0 0,0 0,0 0,0 0,0 0.01,0 0.01,0 0.01,0 0,0 0,0 0,0 0,0 0,0 0,0 0,0 0,0 0,-0.01 0,0 0,0 0,0 0,0 0,0 0,0 0,0 0,0 0,0 0,0 0,0 0,0 0,0 0,0 0,0 0,0 0,0 0,0 0,0 0,0 0,0 0,0 0,0 0,0l0 0c0,0 0,0 0,0 0,0 0,0 0,0 0,0 0,0 0,0 0,0 0,0 0,0 0,0 0,0 0,-0.01 0,0 0,0 0,0 0,0 0,0 0,0 0,0 0,0 0,0l0 0c0,0 0,0 0,0 0,0 0,0 0,0 0,0 0,0 0,0 0,0 0,0 0,0 -0.01,-0.01 -0.02,-0.01 -0.02,-0.01 -0.01,-0.01 -0.01,-0.02 -0.01,-0.02l0 0c0,-0.02 0.01,-0.03 0.02,-0.04 0.01,-0.01 0.02,-0.02 0.04,-0.03 0.03,-0.01 0.05,-0.01 0.07,-0.01 0.01,0 0.03,0 0.04,0 0.01,0.01 0.02,0.02 0.02,0.04 0.01,0 0.01,0.01 0.01,0.02l0 0c0,0.01 0,0.01 -0.01,0.02 0,0.02 -0.01,0.04 -0.02,0.06 -0.02,0.01 -0.03,0.03 -0.05,0.04 -0.02,0 -0.03,0.01 -0.05,0.02 -0.01,0 -0.02,0 -0.03,0zm0 -0.13c0,0 0,0 0,0 0,0 0,0 0,0l0 0 0 0c0,0 0,0 0,0 0,0 0,0 0,0zm-0.03 0.08c0,0 0,0 0,0l0 0 0 0 0 0zm0.12 -0.02l0 0 0 0 0 0z"/>
   <path class="fil0" d="M1.05 0.21c-0.01,0 -0.02,0 -0.02,0 -0.01,-0.01 -0.02,-0.01 -0.02,-0.02 -0.01,-0.01 -0.01,-0.03 -0.01,-0.04 0,0 0,0 0,0 0,0 0,-0.01 0,-0.02 0,-0.02 0.01,-0.04 0.02,-0.05 0,0 0,0 0,0 0.01,-0.01 0.01,-0.02 0.01,-0.03l0.01 0c0,0 0,0 0,0 0,0 0,0 0,0l0 0c0,0 0,0 0,-0.01 0.01,0 0.01,0 0.01,0 0,0 0.01,-0.01 0.01,-0.01 0.01,0 0.01,0 0.01,0 0,0 0,0 0,0 0,0 0,0 0,0l0 0c0,0 0,0 0,0 0.01,0 0.01,0 0.01,0l0 0c0,0 0,0 0,0 0,0 0.01,0 0.01,0 0,0 0,0 0,0l0 0c0,0 0,0 0,0 0,0 0,0 0,0l0 0c0,0 0,0 0,0l0 0 0 0c0.01,0 0.01,0 0.01,0.01l0.01 0c0,0 0,0 0,0 0,0 0,0 0,0l0 0 0 0 0 0c0.01,0 0.01,0 0.01,0 0,0 0,0 0,0.01l0 0 0 0c0,0 0,0 0,0l0 0c0,0 0,0 0,0l0 0 0 0c0.01,0 0.01,0 0.01,0.01l0 0c0,0 0,0 0,0 0,0 0,0 0,0.01l0 0c0,0 0,0 0,0 0.01,0 0.01,0 0.01,0l0 0c0,0.01 0,0.01 0,0.01 0,0 0,0 0,0.01l0 0c0,0 0,0 0,0 0,0 0,0 0,0l0 0c0,0 0,0.01 0,0.01 0,0 0,0 0,0l0 0 0 0c0,0 0,0 0,0 0,0 0,0.01 -0.01,0.01l0 0 0 0c0,0 0,0 0,0 0,0 0,0 0,0.01l0 0c0,0 0,0 0,0 0,0 0,0 0,0.01 0,0 0,0 0,0 0,0 0,0 0,0 0,0 0,0 0,0 0,0 0,0 0,0 0,0.01 -0.01,0.02 -0.01,0.02l0 0c0,0 0,0.01 0,0.01l0 -0.01c0,0 0,0.01 0,0.01 0,0 0,0 0,0 0,0 0,0 0,0 0,0 0,0 0,0l0 0c0,0 -0.01,0.01 -0.01,0.01l0 0.01c0,0 -0.01,0 -0.01,0 0,0 0,0 0,0l0 0c0,0 0,0 0,0l0 0c0,0 0,0 0,0 0,0 0,0 0,0l0 0 0 0.01c-0.01,0 -0.01,0 -0.01,0 0,0 0,0 0,0l0 0.01 0 0c0,0 0,0 0,0 -0.01,0 -0.01,0 -0.01,0 -0.01,0.01 -0.01,0.01 -0.02,0.01 -0.01,0 -0.01,0 -0.01,0zm0 -0.03c0,0 0.01,0 0.01,-0.01 0,0 0,0 0.01,0 0.01,-0.01 0.02,-0.02 0.02,-0.03 0.01,-0.01 0.01,-0.03 0.01,-0.04 0,0 0,-0.01 0,-0.01l0 0c0,-0.01 0,-0.01 0,-0.01 0,-0.01 0,-0.01 -0.01,-0.01 0,0 -0.01,0 -0.01,0 0,0 -0.01,0 -0.01,0 0,0 0,0 0,0 0,0 0,0 0,0l0 0c0,0.01 0,0.01 -0.01,0.01 0,0.01 0,0.01 0,0.01l0 0 0 0 0 0c0,0 0,0 0,0 0,0 0,0 0,0l0 0c0,0 0,0 0,0 0,0 0,0 0,0 0,0 0,0 0,0 0,0 0,0 0,0 0,0 0,0 0,0 0,0 0,0 0,0 0,0 0,0 0,0l0 0c0,0 0,0 0,0 0,0.01 0,0.01 0,0.01 -0.01,0 -0.01,0 -0.01,0 0,0 0,0 0,0 0,0 0,0 0,0.01l0 0c0,0.01 0,0.02 0.01,0.02l0 0c0,0 0,0 0,0l0 0c0,0.01 0,0.01 0,0.01 0,0 0,0 0,0 -0.01,0 -0.01,0 -0.01,0 0,0 0,0.01 0,0.01 0,0 -0.01,0 -0.01,0 0,0 0,0 0,0l0 0c0,0 0,0 0,0.01l0 0c0,0 0,0 0,0 0,0 0,0 0,0l0 0.01c0,0 0,0 0,0 0,0 0,0 -0.01,0 0,0 0,0 0,0 0,0 0,0 0,0 0,0 0,-0.01 0,-0.01l0 0 0 0c0.01,0.01 0.01,0.02 0.02,0.02 0,0 0,0 0,0zm0.14 0.03c-0.01,0 -0.02,0 -0.02,0 -0.01,-0.01 -0.02,-0.01 -0.03,-0.02 0,-0.01 -0.01,-0.03 -0.01,-0.04 0,0 0,0 0,0 0,0 0.01,-0.01 0.01,-0.02 0,-0.02 0.01,-0.04 0.02,-0.05 0,0 0,0 0,0 0,-0.01 0.01,-0.02 0.01,-0.03l0.01 0c0,0 0,0 0,0 0,0 0,0 0,0l0 0c0,0 0,0 0,-0.01 0,0 0.01,0 0.01,0 0,0 0.01,-0.01 0.01,-0.01 0,0 0.01,0 0.01,0 0,0 0,0 0,0 0,0 0,0 0,0l0 0c0,0 0,0 0,0 0.01,0 0.01,0 0.01,0l0 0c0,0 0,0 0,0 0,0 0.01,0 0.01,0 0,0 0,0 0,0l0 0c0,0 0,0 0,0 0,0 0,0 0,0l0 0c0,0 0,0 0,0l0 0 0 0c0.01,0 0.01,0 0.01,0.01l0.01 0c0,0 0,0 0,0 0,0 0,0 0,0l0 0 0 0 0 0c0,0 0,0 0,0 0.01,0 0.01,0 0.01,0.01l0 0 0 0c0,0 0,0 0,0l0 0c0,0 0,0 0,0l0 0 0 0c0.01,0 0.01,0 0.01,0.01l0 0c0,0 0,0 0,0 0,0 0,0 0,0.01l0 0c0,0 0,0 0,0 0,0 0.01,0 0.01,0l0 0c0,0.01 0,0.01 0,0.01 0,0 0,0 -0.01,0.01l0 0c0,0 0,0 0,0 0,0 0,0 0,0l0 0c0,0 0,0.01 0,0.01 0,0 0,0 0,0l0 0 0.01 0c0,0 0,0 0,0 0,0 -0.01,0.01 -0.01,0.01l0 0 0 0c0,0 0,0 0,0 0,0 0,0 0,0.01l0 0c0,0 0,0 0,0 0,0 0,0 0,0.01 0,0 0,0 0,0 0,0 0,0 0,0 0,0 0,0 0,0 0,0 0,0 0,0 0,0.01 -0.01,0.02 -0.01,0.02l0 0c0,0 0,0.01 0,0.01l0 -0.01c0,0 0,0.01 0,0.01 0,0 0,0 0,0 0,0 0,0 0,0 0,0 0,0 0,0l0 0c-0.01,0 -0.01,0.01 -0.01,0.01l-0.01 0.01c0,0 0,0 0,0 0,0 0,0 0,0l0 0c0,0 0,0 0,0l0 0c0,0 0,0 0,0 0,0 0,0 0,0l0 0 0 0.01c-0.01,0 -0.01,0 -0.01,0 0,0 0,0 0,0l0 0.01 0 0c0,0 0,0 -0.01,0 0,0 0,0 0,0 -0.01,0.01 -0.01,0.01 -0.02,0.01 -0.01,0 -0.01,0 -0.01,0zm0 -0.03c0,0 0,0 0.01,-0.01 0,0 0,0 0.01,0 0.01,-0.01 0.01,-0.02 0.02,-0.03 0,-0.01 0.01,-0.03 0.01,-0.04 0,0 0,-0.01 0,-0.01l0 0c0,-0.01 0,-0.01 0,-0.01 0,-0.01 0,-0.01 -0.01,-0.01 0,0 -0.01,0 -0.01,0 -0.01,0 -0.01,0 -0.01,0 0,0 0,0 0,0 0,0 0,0 0,0l0 0c0,0.01 0,0.01 -0.01,0.01 0,0.01 0,0.01 0,0.01l0 0 0 0 0 0c0,0 0,0 0,0 0,0 0,0 0,0l0 0c0,0 0,0 0,0 0,0 0,0 0,0 0,0 0,0 0,0 0,0 0,0 0,0 0,0 0,0 0,0 0,0 0,0 0,0 0,0 0,0 0,0l0 0c0,0 0,0 0,0 0,0.01 -0.01,0.01 -0.01,0.01 0,0 0,0 0,0 0,0 0,0 0,0 0,0 0,0 0,0.01l0 0c0,0.01 0,0.02 0.01,0.02l0 0c0,0 0,0 0,0l0 0c0,0.01 0,0.01 0,0.01 0,0 0,0 -0.01,0 0,0 0,0 0,0 0,0 0,0.01 -0.01,0.01 0,0 0,0 0,0 0,0 0,0 0,0l0 0c0,0 0,0 0,0.01l0 0c0,0 0,0 0,0 0,0 0,0 0,0l0 0.01c0,0 -0.01,0 -0.01,0 0,0 0,0 0,0 0,0 0,0 0,0 0,0 0,0 0,0 0,0 0,-0.01 0,-0.01l0 0 0 0c0,0.01 0.01,0.02 0.01,0.02 0.01,0 0.01,0 0.01,0z"/>
   <path class="fil0" d="M1.39 0.23l0 0c0,0 0,0 0,0 0,0 0,0 0,0 0,0 0,0 0,0l0 0c0,0 0,0 0,0 0,0 0,0 0,0l0 0 0 0c0,0 0,0 0,0 0,0 0,0 0,0 0,0 0,0 0,0l0 0 0 0 0 0 0 0 0 0c0,0 0,0 0,0 0,0 0,0 0,-0.01 0,0 0,0 0,0 0,0 0,0 0,0l0 0 0 0c0,0 0,0 0,0l0 0c0,0 0,0 0,0 0,0 0,0 0,0 0,0 0,0 -0.01,0l0 0c0,0 0,0 0,0 0,0 0,0 0,0 0,0 0,0 0,0 0,0 0,0 0,0 0,-0.01 0,-0.01 0,-0.01 0,0 0,0 0,0l0 0c0,0 0,0 0,0 0,0 0,0 0,0 0,0 0,0 0,0 0,0 0,0 0,0 0,0 0,0 0,0 0,0 0,0 0,0l-0.01 0c0,0 0,0 0,0 0,-0.01 0,-0.01 0,-0.01 0,0 0,0 0,0 0,0 0,0 0,0 0,0 0,0 0,0l0 0 0 0 0 0c0,0 0,0 0,0 0,0 0,0 0,0 0,0 0,0 0,0 0,0 0,0 0,0 0,0 0,0 0,0 0,0 0,0 0,0 0,0 0,0 0,0 0,0 0,0 0,-0.01 0,0 0,0 -0.01,0 0,0 0,0 0,0 0,0 0,0 0,0 0,0 0,0 0,0 0,0 0,0 0,0 0,0 0,0 0,0l0 0c0,0 0,0 0,0 0,0 0,0 0,0 0,0 0,0 0,0 0,0 0,0 0,0 0,0 0,0 0,0 0,0 0,0 0,0 0,0 0,0 0,0 0,0 0,0 0,0 0,0 0,0 0,0 0,0 0,0 0,0 0,0 0,0 0,0 0,0 0,0 0,0 0,0 0,0 0,0 0,0 0,0 0,0l0 0 0 0c0,0 0,0 0,0 0,0 0,0 0,0l0 0c0,0 0,0 0,0l0 0 0 0c0,0 0,0 0,0 -0.01,0 -0.01,0 -0.01,0 0,0 0,-0.01 0,-0.01l0 0c0,0 0,0.01 0,0.01 0,0 0,0 0,0 0,0 0,0 0,0 0,0 0,-0.01 0,-0.01 0,0 0,0 0,0 0,0 0,0 0,0 0,0 0,0 0,0 0,0 0,0 0,0 0,0 0,0 0,0 0,0 0,0 0,0 0,0 0,0 0,0 0,0 0,0 0,0l0 0 0 0c0,0 0,0 0,0 0,0 0,0 0,0 0,0 -0.01,0 -0.01,0 0,0 0,0 0,-0.01 0,0 0,0 0,0 0,0 0,0 0,0 0,0 0,0 0,0 -0.01,0 -0.01,0 -0.01,0 0,0 0,0 0,0 0,0 0,0 0,0 0,0 0,0 0,0l0.01 0c0,0 0,0 -0.01,0 0,0 0,0 0,0l0 0 0 0c0,0 0,0 0,0l0 0c0,0 0,0 0,0 0,0.01 0,0.01 0,0.01 0,0.01 -0.01,0.02 -0.01,0.02 0,0 0,0.01 0,0.01l0 0c0,0.01 0,0.01 0,0.01 0,0 0,0 0,0.01l0 0c0,0 0,0 0,0 0,0 -0.01,0 -0.01,0 0,0 0,0 0,0 -0.01,0 -0.01,0 -0.01,0 0,0 0,0 0,0 0,0 -0.01,0 -0.01,0 0,0 0,0 0,0 0,0 0,0 0,0 0,0 -0.01,0 -0.01,0 0,0 0,0 0,0l0 0c0,0 0,0 0,0 0,0 0,-0.01 0,-0.01 0,0 0,0 0,0l0 0 0 0 0 0 0 0c0,0 0,0 0,0 0,0 0,0 0,0l0 0 0 0c0,0 0,0 0,0 0,0 0,0 0,0l0 0 0 0 0 0 0 0 0 0 0 0c0,0 0,0 0,0 0,0 0,0 0,0 0,0 0,0 0,0 0,0 0,-0.01 0.01,-0.01 0,0 0,0 0,0 0,0 0,0 0,0 0,0 0,0 0,0 0,0 0,0 0,0 0,0 0,0 0,0 0,0 -0.01,0 -0.01,0l0 0c0,0 0.01,0 0.01,0 0,0 0,0 0,0 0,0 0,0 0,0 0,0 0,0 0,-0.01 0,0 0,0 0,0 0,0 0,0 0,0 0,0 0,0 0,0l0 0c0,0 0,0 0,0 0,0 0,0 0,0 0,0 0,0 0,0 0,0 0,0 0,0 0,0 0,0 0,0 0,0 0,0 0,0l0 0c0,0 0,0 0,0l0 0 0 -0.01c0,0 0,0 0,0 0,0 0,0 0,0l0 0 0 0c0,0 0,-0.01 0,-0.01l0 0c0,0 0,0 0,0l0 0c0,0 0,0 0,0 0,0 0,0 0,0 0,0 0,0 0,0l0 0c0,0 0,0 0,0 0,0 0,0 0,0 0,0 0,0 0,0 0,0 0,0 0,0 0.01,0 0.01,0 0.01,0 0,0 0,0 0,0 0,0 0,0 0,0 0,0 0,0 0,-0.01 0,0 0,0 0,0 0,0 0,0 0,0 0,0 0,0 0,0 0,0 0,0 0,0 0,0 0,0 0,0 0,0 0,0 0,0 0,0 0,0 0,0l0 0c0,0 0,0 0,0 0,0 0,0 0,0 0,-0.01 0,-0.01 0,-0.01 0,0 0,0 0,0 0,0 0,0 0,0 0,0 0,0 0,0 0,0 0,0 0,0 0,0 0,0 0,0 0,0 0,0 0,0l0 0c0,0 0,0 0,0 0,0 0,0 0,0 0,0 0,0 0,0l0 0 0 0c0,0 0,0 0,0 0,0 0,0 0,0l0 0c0,-0.01 0,-0.01 0,-0.01l0 0c0,0 0,0 0,0 0,0 0,0 0,0 0,0 0,0 0,0 0,0 0,0 0,0l0 0 0 0c0,0 0,0 0,0 0,0 0,0 0,-0.01 0,0 0,0 0,0 0,0 0,0 0,0l0 0c0,0 0,0 0,0 -0.01,-0.01 -0.01,-0.01 -0.01,-0.01 0,0 0,0 -0.01,0l0 -0.01c0,0 0,0 -0.01,-0.01l0 0 0 0c0,0 0.01,0 0.01,-0.01 0,0 0,0 0.01,0 0,0 0,0 0,0 0,0 0,0 0,0 0,0 0,0 0,-0.01 0,0 0,0 0,0l0 0 0 0c0,0 0,0 0,0 0,0 0,0 0,0l0 0c0,0 0,0 0.01,0 0,0 0,0 0,0 0,0 0,0.01 0.01,0.01 0,0 0,0 0,0 0,0 0,0 0,0 0,0 0,0 0,0 0,0 0,0 0,0 0,0 0,0 0,0 0,0 0,0 0,0l0 0c0,0 0,0 0,0 0,0 0,0 0.01,0 0,0 0,0 0,0 0,0 0,-0.01 0,-0.01 0,0 0,0 0,-0.01 0,-0.01 0,-0.01 0,-0.01l0 0c0,0 0,0 0,0l0 0c0,0 0,0 0,0 0,0.01 -0.01,0.01 -0.01,0.02l0 0c0,0 0,0 0,0 0,0 0,0 0,0l0 0c-0.01,0 -0.01,-0.01 -0.01,-0.01l-0.01 0c0,0 0,0 0,0l0 0 0 0c0,0 0,0 0,0 0,0 0,0 0,0 0,0 0,0 0,0l0 0c0,0 0,0 0,0 0,-0.01 0,-0.01 0,-0.01l0 0c0,0 0,0 0,0 0,0 0,0 0,0l-0.01 0c0,0 0,0 0,0 0,0 0,0 0,0 0,0 0,0 0,0 0,0 0,0 0,0 0,0 0,0 0,-0.01 0,0 0.01,0 0.01,0 0.01,-0.01 0.01,-0.02 0.02,-0.02 0.01,-0.01 0.02,-0.01 0.03,-0.02l0 0c0,0 0,0 0,0 0,0 0,0 0,0 0,0 0,0 0,0l0 0c0.01,0 0.01,0 0.01,0 0.01,0 0.02,-0.01 0.02,-0.01 0.02,0 0.04,0.01 0.05,0.02l0 0c0,0.01 0.01,0.01 0.01,0.02 0,0.01 0,0.01 0,0.02 0,0.02 0,0.03 -0.01,0.05 -0.01,0 -0.01,0.01 -0.02,0.01l0 0c0,0.01 -0.01,0.01 -0.01,0.01 -0.01,0 -0.01,0.01 -0.02,0.01 0,0 0,0 0,0 0,0 0,0 0,0l0 0c0,0 0.01,0.01 0.01,0.01l0.01 0.01c0,0 0,0 0,0 0,0 0,0 0,0.01 0.01,0 0.01,0 0.01,0 0,0.01 0.01,0.01 0.01,0.01l0 0c0,0 0,0 0,0.01 0,0 0.01,0 0.01,0 0,0 0,0 0,0 0,0 0,0 0,0 0,0 0,0.01 0,0.01 0,0 -0.01,0 -0.01,0 0,0 0,0.01 0,0.01 0,0 -0.01,0 -0.01,0l0 0c0,0 0,0 0,0 0,0 0,0 0,0 0,0 0,0 0,0.01l0 0c0,0 -0.01,0 -0.01,0 0,0 0,0 0,0zm-0.04 -0.11c0,0 0,0 0,0 0,0 0,0 0,0 0,0 0,0 0,0l0 0c0,0 0,0 0,0 0,0 0,0 0.01,0 0,0 0,0 0,0 0,0 0,0 0,0 0,0 0,0 0,0 0,0 0,0 0,0 0,0 0,-0.01 0,-0.01 0,0 0,0 0.01,0l0 0c0,0 0,0 0,0 0,0 0,0 0,0l0 0c0,0 0,0 0,0l0 0c0,0 0,0 0,0 0,0 0,0 0,0 0,0 0,0 0,0l0 0c0,0 0,0 0,0 0,0 0,0 0,0 0,0 0,0 0,0 0.01,0 0.01,0 0.01,0 0,0 0,0 0,0 0,0 0,0 0,0 0,0 0,0 0,0l0 0c0,0 0,0 0,-0.01 0,0 0,0 0,0 0,0 0,0 0,0 0,0 0,0 0,0 0,0 0,0 0,0l0 0 0 0c0,0 0,0 0.01,0l0 0 0 0c0,0 0,0 0,0 0,0 0,0 0,0 0,0 0,0 0,0 0,0 0,0 0,0l0 0 0 0c0,0 0,0 0,-0.01 0,0 0,0 0,0 0,0 0.01,0 0.01,0 0,0 0,0 0,0 0,0 0,0 0,0 0,0 0,0 0,0 0,0 0,0 0,0 0,0 0,0 0,0 0,0 0,0 0,0 0,0 0,0 0,0 0,0 0,0 0,0l0 -0.01c0,0 0,0 0,0l0 0c0,0 0,0 0,0 0,0 0,0 0,0 0,0 0,0 0,0l0 -0.01c0,0 0,0 0,0 0,0 0,0 0,0 0,0 0,0 0,0 0,-0.01 0,-0.01 0,-0.01 0,0 0,0 0,0 0,0 0,0 0,0 0,0 0,0 0,0l0 0 0 0 0 0c0,0 0,0 0,0 0,0 0,0 0,0 0,0 0,0 -0.01,0 0,0 0,0 0,0 0,0 0,0 0,0 0,0 0,0 0,0 0,-0.01 0,-0.01 0,-0.01 0,0 0,0 0,0 0,0 0,0 0,0 0,0 0,0 0,0 0,0 0,0 -0.01,0 0,0 0,0 0,0 -0.01,0 -0.01,0 -0.01,0 0,0 0,0 -0.01,0 0,0.01 0,0.01 0,0.01 0,0.02 -0.01,0.03 -0.01,0.04 0,0.01 0,0.01 0,0.02l0 0 0 0 0 0c0,0 0,0 0,0 0,0 0,0 0,0 0,0 0,0 0,0 0,0 0,0 0,0l0 0z"/>
  </g>
 </g>
</svg>
