<?xml version="1.0" encoding="UTF-8"?>
<!DOCTYPE svg PUBLIC "-//W3C//DTD SVG 1.1//EN" "http://www.w3.org/Graphics/SVG/1.1/DTD/svg11.dtd">
<!-- Creator: CorelDRAW 2021 (64-Bit) -->
<svg xmlns="http://www.w3.org/2000/svg" xml:space="preserve" width="21.1668mm" height="3.6048mm" version="1.1" style="shape-rendering:geometricPrecision; text-rendering:geometricPrecision; image-rendering:optimizeQuality; fill-rule:evenodd; clip-rule:evenodd"
viewBox="0 0 1966.09 334.83"
 xmlns:xlink="http://www.w3.org/1999/xlink"
 xmlns:xodm="http://www.corel.com/coreldraw/odm/2003">
 <defs>
  <style type="text/css">
   <![CDATA[
    .fil0 {fill:white;fill-rule:nonzero}
   ]]>
  </style>
 </defs>
 <g id="Layer_x0020_1">
  <metadata id="CorelCorpID_0Corel-Layer"/>
  <g id="_2702691560720">
   <path class="fil0" d="M59.68 334.83l-2.15 -0.19c-3.02,-0.61 -5.97,-1.48 -8.99,-2.7 -1.97,-0.86 -4.8,-1.98 -8.68,-3.46 -2.89,-1.29 -4.8,-1.97 -5.79,-1.97l-1.6 0.19c-0.49,0 -0.74,-0.43 -0.74,-1.24l0.19 -0.73 -0.19 -0.74c0,-0.61 -0.43,-0.98 -1.23,-1.23 -0.37,0 -0.68,0.06 -0.93,0.19l-1.6 0c-0.25,-0.25 -0.44,-0.44 -0.56,-0.49 -0.12,-0.07 -0.19,-0.13 -0.19,-0.25 0.12,-0.25 0.19,-0.61 0.19,-1.11 0,-0.44 -0.37,-0.68 -1.11,-0.68l-0.49 0.19c-0.49,0 -0.86,-0.13 -1.11,-0.37 -0.85,-0.86 -1.72,-1.54 -2.7,-1.97 -1.42,-1.11 -2.15,-2.47 -2.15,-4 0,-1.66 0.55,-3.51 1.6,-5.42 3.26,-5.79 5.97,-11.76 8.13,-18.04 3.27,-9.36 6.04,-16.64 8.31,-21.81 5.67,-12.07 8.5,-18.16 8.5,-18.41l0.12 -0.37c0,-0.12 -0.06,-0.19 -0.12,-0.24 -0.12,-0.07 -0.24,-0.13 -0.37,-0.13 -3.01,0.5 -5.91,1.24 -8.68,2.16 -9.86,3.26 -18.79,5.29 -26.74,6.16l-3.75 0.55c-0.61,0 -0.98,-0.24 -1.17,-0.73 -0.19,-0.49 -0.31,-0.93 -0.43,-1.3 -1.11,-3.57 -1.98,-7.33 -2.53,-11.15 -0.25,-3.14 -0.68,-6.28 -1.29,-9.42 -0.25,-1.05 -0.37,-1.85 -0.37,-2.41 0,-0.55 -0.37,-1.78 -1.05,-3.69 0.12,0 0.25,-0.13 0.31,-0.32 0.13,-0.12 0.37,-0.36 0.68,-0.68 0.31,-0.31 0.44,-0.61 0.44,-0.98l-1.11 -3.26c0,-0.37 0.13,-0.68 0.37,-0.93 0.25,-0.24 0.37,-0.49 0.37,-0.67l-0.19 -0.74c-0.37,-0.74 -0.56,-2.53 -0.56,-5.42 0.13,-2.53 0.86,-3.95 2.22,-4.32 0.56,-0.24 1.17,-0.36 1.78,-0.36 3.82,-0.37 8.87,-1.85 15.16,-4.37 3.87,-1.42 13.61,-4 29.25,-7.7 15.15,-3.63 22.91,-5.55 23.28,-5.79 0.32,-0.25 0.49,-0.56 0.49,-0.93l0.19 0c0.86,-1.78 2.34,-4.67 4.56,-8.68 4.07,-7.89 8.31,-17.62 12.74,-29.01 1.98,-5.55 5.92,-14.91 11.95,-28.14l0.92 -2.03 9.18 -20.69c5.92,-11.7 11.95,-24.82 18.23,-39.36 1.29,-3.26 2.58,-6.52 3.75,-9.73l4.87 -12.99c0.37,-0.61 0.98,-2.1 1.85,-4.5 1.17,-3.02 2.46,-5.92 3.75,-8.68 3.27,-5.92 5.36,-11.4 6.34,-16.44 0.37,-2.28 1.6,-3.46 3.76,-3.58 5.67,0 10.47,0.93 14.47,2.9 1.78,0.92 3.63,1.6 5.6,1.97 1.91,0.37 3.7,0.8 5.36,1.41l0.92 0.19c0.25,0 0.49,-0.06 0.74,-0.24 0.24,-0.19 0.49,-0.37 0.68,-0.44 0.73,-0.24 1.54,-0.68 2.46,-1.23 0.92,-0.49 2.15,-0.8 3.7,-0.8 2.4,0.12 4.19,0.43 5.23,0.92 0.37,0 1.3,0.19 2.78,0.61 1.53,0.44 3.02,0.81 4.43,1.17 0.86,0.13 1.29,0.44 1.29,0.93 -0.12,0.37 -0.24,0.61 -0.31,0.8 -0.06,0.19 -0.12,0.31 -0.24,0.43 -0.86,2.1 -1.3,3.51 -1.3,4.37l0.19 1.42 -0.19 1.48 -0.31 4.5c0,2.77 0.31,8.19 1.05,16.19 0.49,4.87 0.74,8.5 0.74,11.03l0 1.48 -1.3 52.84c-0.12,9.48 -0.49,17.37 -1.23,23.65 -0.25,3.39 -0.44,7.82 -0.56,13.37 0,7.21 0.25,12.38 0.74,15.52 0,2.28 0.12,3.51 0.36,3.75 0.25,0.25 0.68,0.37 1.42,0.37 4.68,0 8.55,-0.61 11.57,-1.78 0.13,0 0.32,-0.07 0.62,-0.19 0.31,-0.12 0.61,-0.19 0.98,-0.19 1.41,0 2.34,0.8 2.7,2.53 1.54,3.82 2.34,8.13 2.34,12.81l0 1.6c0,2.15 0.19,4.31 0.56,6.53 0.12,0.8 0.19,1.73 0.19,2.71 0,0.43 0,1.17 0,2.15 0,0.92 0.56,1.9 1.6,2.77 1.11,0.93 1.73,2.03 1.98,3.33 0.49,3.39 0.73,5.48 0.73,6.34l0.37 7.21 -0.19 0.56c-0.25,0.36 -1.66,0.55 -4.31,0.55 -0.74,0 -1.29,-0.37 -1.66,-1.11l-0.19 -0.74 -0.19 0.37 -0.12 0.93c-0.12,0.12 -0.19,0.18 -0.19,0.24 0,0.07 -0.12,0.19 -0.37,0.31 -0.24,0.13 -0.56,0.19 -0.92,0.19l-0.37 -0.19 -0.56 0.19 -0.12 -0.37c-0.12,-0.12 -0.19,-0.31 -0.19,-0.49 0,-0.19 -0.07,-0.31 -0.12,-0.43 -0.07,-0.12 -0.07,-0.25 -0.07,-0.37l-0.73 0c-0.25,0.12 -0.37,0.37 -0.44,0.61 -0.06,0.32 -0.19,0.74 -0.37,1.24 -0.18,0.43 -0.67,0.68 -1.53,0.68 -0.49,0 -0.93,-0.07 -1.3,-0.19 -1.66,-0.8 -2.58,-1.29 -2.77,-1.36 -0.19,-0.06 -0.37,-0.06 -0.61,-0.06 -0.37,0.36 -0.86,1.11 -1.48,2.34 -0.13,0.12 -0.31,0.18 -0.56,0.24 -0.19,0.07 -0.43,0.12 -0.68,0.12l0 -0.19 -0.37 0c-0.12,-0.12 -0.24,-0.31 -0.36,-0.43 -0.13,-0.19 -0.37,-0.31 -0.74,-0.31 -0.37,0 -0.68,0.12 -1.05,0.37 -0.12,-0.25 -0.37,-0.44 -0.68,-0.62 -0.24,-0.19 -0.55,-0.36 -0.86,-0.55 -0.31,-0.19 -0.55,-0.25 -0.61,-0.25 -0.24,0.12 -0.37,0.61 -0.37,1.61l0 14.78c0,6.04 0.37,11.33 1.05,15.88l1.11 8.99c0.25,2.47 0.49,4.99 0.81,7.7 0.31,2.71 0.43,5.48 0.43,8.38l0 1.11c0,3.95 0.61,7.39 1.85,10.29 0.43,0.49 0.68,1.04 0.68,1.78 -0.12,1.36 -0.93,2.21 -2.53,2.71 -4.8,2.77 -9.23,4.12 -13.3,4.12 -0.49,0 -2.83,0.43 -7.09,1.29 -1.66,0.61 -3.26,1.05 -4.74,1.36 -1.54,0.31 -2.53,1.17 -3.02,2.58 -0.68,1.85 -1.73,2.71 -3.02,2.71 -2.53,1.11 -4.5,1.85 -5.79,2.22l-5.6 1.6 -1.3 0.19 -0.19 0.19c-0.55,0 -0.98,-0.25 -1.23,-0.74l0 -0.19c-0.25,-1.29 -0.49,-3.33 -0.74,-5.97l-0.19 -1.04c0.13,-0.86 0.56,-1.42 1.3,-1.66l0.18 -0.13c0.13,-0.06 0.19,-0.06 0.19,-0.19l0 -0.55 -0.19 -0.37 -0.36 0.19c-0.86,0 -1.36,-0.19 -1.42,-0.56l0 -1.05 0.49 -0.92 0.19 -0.19c0,0.12 -0.06,0.19 -0.19,0.19 -0.55,0 -0.92,-0.12 -0.98,-0.37 -0.06,-0.24 -0.06,-0.43 -0.06,-0.55 0,-0.13 0.18,-0.32 0.55,-0.56l0.31 -0.19 0.19 0c0.49,-0.07 0.74,-0.49 0.74,-1.24 0,-0.49 -0.12,-0.73 -0.37,-0.73 -0.24,0 -0.43,-0.07 -0.56,-0.19l-0.85 -0.19c-0.62,-0.24 -0.93,-0.98 -0.93,-2.34l0 -0.68c0,-1.23 0.25,-2.34 0.74,-3.26 0.49,-1.48 0.73,-2.28 0.73,-2.53 0,-0.37 -0.19,-0.61 -0.55,-0.8 -0.37,-0.19 -0.86,-0.62 -1.49,-1.17 -0.49,-0.37 -0.68,-0.8 -0.68,-1.29l0 -0.37c0,-0.49 0.13,-0.93 0.5,-1.42 0.36,-0.49 0.55,-0.86 0.55,-1.11l-0.37 -1.42c0,-0.36 0.25,-0.8 0.74,-1.29 0.61,-1.17 0.92,-1.9 0.92,-2.15 0,-0.73 0.32,-1.11 1.05,-1.23l0.56 -0.37c0.37,-0.25 0.61,-0.56 0.73,-0.93 -0.24,-0.36 -0.49,-0.73 -0.68,-1.04 -0.12,-0.37 -0.36,-0.68 -0.61,-0.93 0,-0.61 0.07,-0.98 0.19,-1.17 0.12,-0.19 0.19,-0.37 0.19,-0.43l-0.19 -0.37 -1.05 0.49 -0.36 0c-0.13,0 -0.19,-0.07 -0.19,-0.12 -0.37,-0.49 -0.86,-1.97 -1.54,-4.37 -0.68,-2.41 -1.24,-4.31 -1.73,-5.79 -0.24,-0.56 -0.37,-1.24 -0.37,-1.97 0,-1.42 0.5,-2.66 1.49,-3.58 0,-0.12 0.06,-0.25 0.18,-0.37 0.07,-0.12 0.19,-0.43 0.32,-0.8 0.12,-0.43 0.19,-0.8 0.19,-1.05 0,-0.19 -0.07,-0.43 -0.19,-0.61 -0.13,-0.19 -0.25,-0.31 -0.44,-0.43 -0.19,-0.13 -0.43,-0.32 -0.8,-0.56l0 -0.19 -0.19 0c0,-0.12 0.12,-0.24 0.37,-0.43 0.24,-0.19 0.49,-0.44 0.73,-0.74 0.19,-0.31 0.32,-0.56 0.32,-0.8 0,-0.25 -0.07,-0.44 -0.19,-0.56 -1.17,-1.17 -1.79,-2.46 -1.79,-3.75 0.13,-1.36 0.56,-2.34 1.3,-3.08l0.86 -1.97 -0.5 -0.92c0,-0.25 0.07,-0.56 0.32,-0.98 0.24,-0.44 0.36,-0.93 0.36,-1.54 0,-0.74 -0.24,-1.42 -0.68,-1.97l-0.55 0c-0.49,0.24 -0.86,0.49 -1.11,0.68 -0.49,0 -0.8,-0.07 -0.98,-0.25 -0.19,-0.19 -0.31,-0.31 -0.43,-0.43 -0.12,-0.13 -0.25,-0.32 -0.37,-0.56l-0.37 -0.19 -0.36 0c-0.25,0.12 -0.49,0.25 -0.81,0.37 -0.31,0.12 -0.73,0.19 -1.29,0.19 -0.49,0 -0.86,0.19 -1.05,0.55 -0.18,0.32 -0.31,0.81 -0.43,1.36 -0.12,0.49 -0.49,0.8 -1.11,0.8 -0.74,-0.12 -1.42,-0.36 -2.15,-0.67 -0.74,-0.25 -1.42,-0.62 -1.98,-0.99 -0.61,-0.31 -1.11,-0.49 -1.48,-0.49 -0.36,0 -0.68,0.07 -0.85,0.13 -1.49,0 -2.28,0.12 -2.47,0.31 -0.19,0.19 -0.24,0.49 -0.24,0.98 0,1.36 -0.44,1.97 -1.29,1.97 -0.25,0 -0.68,-0.31 -1.24,-0.86 -0.25,-0.24 -0.8,-0.37 -1.66,-0.37l-0.74 -0.18c-0.55,0 -1.48,0.8 -2.65,2.34 -0.86,0.98 -1.66,1.41 -2.4,1.41 -0.31,0 -0.68,-0.19 -1.05,-0.49 -0.25,0.07 -0.43,0.19 -0.61,0.24 -0.19,0.07 -0.44,0.19 -0.68,0.44 -2.03,1.36 -4.31,1.97 -6.84,1.97l-2.9 -0.12c-0.73,0 -1.17,-0.44 -1.41,-1.29l-0.56 -0.37c-0.86,0 -1.29,0.12 -1.29,0.37 0,1.35 -0.86,2.09 -2.71,2.34l-0.86 0.18c-1.23,0 -1.97,0.68 -2.34,1.98 -3.14,7.2 -5.72,12.86 -7.76,17 -1.73,3.07 -3.14,6.21 -4.37,9.35 -2.28,6.29 -4.99,12.38 -8.06,18.42 -2.41,4.43 -4.5,8.93 -6.16,13.42 -1.66,4.5 -3.46,8.81 -5.24,12.94l-1.6 3.75c-2.15,4.8 -4.44,9.55 -6.72,14.29l-4.5 8.44c-0.25,0.36 -0.49,0.55 -0.74,0.55zm71.81 -153.72l2.9 -0.56c2.03,-0.36 4.12,-0.8 6.16,-1.23 4.19,-0.98 8.5,-1.85 12.81,-2.53 0.12,0 0.31,-0.12 0.56,-0.37l0.18 -0.19c0,-0.61 -0.55,-1.72 -1.66,-3.26 -0.36,-0.74 -0.55,-1.36 -0.55,-1.97l0 -0.56c0,-0.73 0.12,-1.17 0.31,-1.36 0.19,-0.19 0.24,-0.43 0.24,-0.8l-0.18 -0.56c-0.62,-2.28 -0.86,-4.55 -0.86,-6.84 0.12,-5.29 0.92,-7.94 2.53,-7.94 0.43,-0.24 0.73,-0.49 0.85,-0.8 0.13,-0.31 0.19,-0.56 0.19,-0.68 -0.12,-0.19 -0.19,-0.43 -0.24,-0.61 -0.07,-0.19 -0.25,-0.32 -0.49,-0.44 -0.93,-0.24 -1.42,-1.41 -1.42,-3.45 0,-1.05 0.13,-2.15 0.37,-3.2 0.25,-1.11 0.37,-2.15 0.37,-3.07 0,-0.49 -0.12,-0.98 -0.31,-1.54 -0.19,-0.56 -0.25,-0.93 -0.25,-1.17 0,-0.12 0,-0.25 0,-0.37 0,-0.12 0.31,-0.37 0.93,-0.73l0.31 0 0 -0.56 -0.31 -0.49c-0.37,-3.39 -0.56,-5.29 -0.56,-5.73 0,-0.43 -0.07,-0.61 -0.19,-0.61l0 -0.19 -1.11 0c-0.37,0.74 -0.62,1.42 -0.86,1.97 0,0.12 -0.07,0.37 -0.12,0.74 -0.07,0.37 -0.56,0.98 -1.54,1.78l-0.19 0.37c0.12,0.12 0.24,0.37 0.37,0.61 0.12,0.31 0.31,0.68 0.55,1.11 0.25,0.44 0.37,0.81 0.37,1.17 0,0.86 -0.73,1.98 -2.15,3.46l-1.97 1.6 -0.19 0 -2.53 1.97c-0.24,1.36 -0.8,2.53 -1.66,3.64 -0.24,0.24 -0.43,0.61 -0.55,1.04 0,0.49 0.24,0.93 0.73,1.29 0.49,0.37 0.74,0.81 0.74,1.3 0,1.29 -0.49,2.15 -1.48,2.53l-1.42 1.23c-0.37,0.25 -0.56,0.44 -0.61,0.56 -0.07,0.12 -0.19,0.19 -0.31,0.19 -0.81,0.92 -1.24,2.02 -1.24,3.26l0.19 3.2c-0.12,1.36 -0.56,2.65 -1.29,4 0,0.12 -0.19,0.31 -0.62,0.56 -0.43,0.18 -0.61,0.67 -0.61,1.41 -0.74,3.94 -2.34,8.01 -4.87,12.08l0 0.36 0.31 0.37 0.37 0zm118.74 153.72l-2.15 -0.19c-3.02,-0.61 -5.97,-1.48 -8.99,-2.7 -1.97,-0.86 -4.8,-1.98 -8.68,-3.46 -2.89,-1.29 -4.8,-1.97 -5.79,-1.97l-1.6 0.19c-0.49,0 -0.74,-0.43 -0.74,-1.24l0.19 -0.73 -0.19 -0.74c0,-0.61 -0.43,-0.98 -1.23,-1.23 -0.37,0 -0.68,0.06 -0.93,0.19l-1.6 0c-0.25,-0.25 -0.44,-0.44 -0.56,-0.49 -0.12,-0.07 -0.19,-0.13 -0.19,-0.25 0.12,-0.25 0.19,-0.61 0.19,-1.11 0,-0.44 -0.37,-0.68 -1.11,-0.68l-0.49 0.19c-0.49,0 -0.86,-0.13 -1.11,-0.37 -0.85,-0.86 -1.72,-1.54 -2.7,-1.97 -1.42,-1.11 -2.15,-2.47 -2.15,-4 0,-1.66 0.55,-3.51 1.6,-5.42 3.26,-5.79 5.97,-11.76 8.13,-18.04 3.27,-9.36 6.04,-16.64 8.31,-21.81 5.67,-12.07 8.5,-18.16 8.5,-18.41l0.12 -0.37c0,-0.12 -0.06,-0.19 -0.12,-0.24 -0.12,-0.07 -0.24,-0.13 -0.37,-0.13 -3.01,0.5 -5.91,1.24 -8.68,2.16 -9.86,3.26 -18.79,5.29 -26.73,6.16l-3.75 0.55c-0.62,0 -0.99,-0.24 -1.17,-0.73 -0.19,-0.49 -0.32,-0.93 -0.44,-1.3 -1.11,-3.57 -1.97,-7.33 -2.53,-11.15 -0.24,-3.14 -0.68,-6.28 -1.29,-9.42 -0.24,-1.05 -0.37,-1.85 -0.37,-2.41 0,-0.55 -0.36,-1.78 -1.04,-3.69 0.12,0 0.24,-0.13 0.31,-0.32 0.12,-0.12 0.37,-0.36 0.68,-0.68 0.31,-0.31 0.43,-0.61 0.43,-0.98l-1.11 -3.26c0,-0.37 0.12,-0.68 0.37,-0.93 0.24,-0.24 0.36,-0.49 0.36,-0.67l-0.19 -0.74c-0.36,-0.74 -0.55,-2.53 -0.55,-5.42 0.12,-2.53 0.86,-3.95 2.21,-4.32 0.56,-0.24 1.17,-0.36 1.79,-0.36 3.82,-0.37 8.86,-1.85 15.15,-4.37 3.87,-1.42 13.61,-4 29.25,-7.7 15.15,-3.63 22.91,-5.55 23.28,-5.79 0.32,-0.25 0.49,-0.56 0.49,-0.93l0.19 0c0.86,-1.78 2.34,-4.67 4.56,-8.68 4.07,-7.89 8.31,-17.62 12.74,-29.01 1.98,-5.55 5.92,-14.91 11.95,-28.14l0.92 -2.03 9.18 -20.69c5.92,-11.7 11.95,-24.82 18.23,-39.36 1.29,-3.26 2.59,-6.52 3.76,-9.73l4.86 -12.99c0.37,-0.61 0.98,-2.1 1.85,-4.5 1.17,-3.02 2.46,-5.92 3.76,-8.68 3.26,-5.92 5.35,-11.4 6.34,-16.44 0.36,-2.28 1.6,-3.46 3.75,-3.58 5.67,0 10.47,0.93 14.47,2.9 1.78,0.92 3.63,1.6 5.6,1.97 1.91,0.37 3.7,0.8 5.36,1.41l0.93 0.19c0.24,0 0.49,-0.06 0.73,-0.24 0.25,-0.19 0.49,-0.37 0.68,-0.44 0.74,-0.24 1.54,-0.68 2.46,-1.23 0.93,-0.49 2.16,-0.8 3.7,-0.8 2.41,0.12 4.19,0.43 5.24,0.92 0.37,0 1.29,0.19 2.77,0.61 1.54,0.44 3.02,0.81 4.44,1.17 0.85,0.13 1.29,0.44 1.29,0.93 -0.12,0.37 -0.25,0.61 -0.31,0.8 -0.07,0.19 -0.13,0.31 -0.25,0.43 -0.86,2.1 -1.29,3.51 -1.29,4.37l0.19 1.42 -0.19 1.48 -0.31 4.5c0,2.77 0.31,8.19 1.04,16.19 0.5,4.87 0.74,8.5 0.74,11.03l0 1.48 -1.29 52.84c-0.12,9.48 -0.49,17.37 -1.24,23.65 -0.24,3.39 -0.43,7.82 -0.55,13.37 0,7.21 0.24,12.38 0.73,15.52 0,2.28 0.12,3.51 0.37,3.75 0.24,0.25 0.68,0.37 1.41,0.37 4.68,0 8.56,-0.61 11.58,-1.78 0.12,0 0.31,-0.07 0.61,-0.19 0.31,-0.12 0.61,-0.19 0.98,-0.19 1.42,0 2.34,0.8 2.71,2.53 1.54,3.82 2.34,8.13 2.34,12.81l0 1.6c0,2.15 0.19,4.31 0.56,6.53 0.12,0.8 0.18,1.73 0.18,2.71 0,0.43 0,1.17 0,2.15 0,0.92 0.56,1.9 1.61,2.77 1.11,0.93 1.73,2.03 1.97,3.33 0.49,3.39 0.74,5.48 0.74,6.34l0.36 7.21 -0.18 0.56c-0.25,0.36 -1.67,0.55 -4.32,0.55 -0.73,0 -1.29,-0.37 -1.66,-1.11l-0.19 -0.74 -0.18 0.37 -0.13 0.93c-0.12,0.12 -0.19,0.18 -0.19,0.24 0,0.07 -0.12,0.19 -0.36,0.31 -0.25,0.13 -0.56,0.19 -0.93,0.19l-0.37 -0.19 -0.55 0.19 -0.13 -0.37c-0.12,-0.12 -0.18,-0.31 -0.18,-0.49 0,-0.19 -0.07,-0.31 -0.13,-0.43 -0.06,-0.12 -0.06,-0.25 -0.06,-0.37l-0.74 0c-0.24,0.12 -0.37,0.37 -0.43,0.61 -0.07,0.32 -0.19,0.74 -0.37,1.24 -0.19,0.43 -0.68,0.68 -1.54,0.68 -0.49,0 -0.92,-0.07 -1.29,-0.19 -1.66,-0.8 -2.59,-1.29 -2.77,-1.36 -0.19,-0.06 -0.37,-0.06 -0.62,-0.06 -0.36,0.36 -0.86,1.11 -1.48,2.34 -0.12,0.12 -0.31,0.18 -0.56,0.24 -0.18,0.07 -0.43,0.12 -0.67,0.12l0 -0.19 -0.37 0c-0.12,-0.12 -0.25,-0.31 -0.37,-0.43 -0.12,-0.19 -0.37,-0.31 -0.74,-0.31 -0.36,0 -0.67,0.12 -1.04,0.37 -0.13,-0.25 -0.37,-0.44 -0.68,-0.62 -0.25,-0.19 -0.56,-0.36 -0.86,-0.55 -0.31,-0.19 -0.56,-0.25 -0.61,-0.25 -0.25,0.12 -0.37,0.61 -0.37,1.61l0 14.78c0,6.04 0.37,11.33 1.05,15.88l1.11 8.99c0.24,2.47 0.49,4.99 0.8,7.7 0.31,2.71 0.44,5.48 0.44,8.38l0 1.11c0,3.95 0.61,7.39 1.84,10.29 0.44,0.49 0.68,1.04 0.68,1.78 -0.12,1.36 -0.92,2.21 -2.52,2.71 -4.81,2.77 -9.24,4.12 -13.31,4.12 -0.49,0 -2.83,0.43 -7.08,1.29 -1.66,0.61 -3.26,1.05 -4.75,1.36 -1.53,0.31 -2.52,1.17 -3.01,2.58 -0.68,1.85 -1.73,2.71 -3.02,2.71 -2.53,1.11 -4.5,1.85 -5.8,2.22l-5.6 1.6 -1.29 0.19 -0.19 0.19c-0.56,0 -0.98,-0.25 -1.24,-0.74l0 -0.19c-0.24,-1.29 -0.49,-3.33 -0.73,-5.97l-0.19 -1.04c0.12,-0.86 0.56,-1.42 1.29,-1.66l0.19 -0.13c0.12,-0.06 0.19,-0.06 0.19,-0.19l0 -0.55 -0.19 -0.37 -0.37 0.19c-0.86,0 -1.36,-0.19 -1.41,-0.56l0 -1.05 0.49 -0.92 0.19 -0.19c0,0.12 -0.07,0.19 -0.19,0.19 -0.56,0 -0.93,-0.12 -0.98,-0.37 -0.07,-0.24 -0.07,-0.43 -0.07,-0.55 0,-0.13 0.19,-0.32 0.56,-0.56l0.31 -0.19 0.19 0c0.49,-0.07 0.73,-0.49 0.73,-1.24 0,-0.49 -0.12,-0.73 -0.36,-0.73 -0.25,0 -0.44,-0.07 -0.56,-0.19l-0.86 -0.19c-0.61,-0.24 -0.92,-0.98 -0.92,-2.34l0 -0.68c0,-1.23 0.24,-2.34 0.73,-3.26 0.49,-1.48 0.74,-2.28 0.74,-2.53 0,-0.37 -0.19,-0.61 -0.56,-0.8 -0.37,-0.19 -0.86,-0.62 -1.48,-1.17 -0.49,-0.37 -0.68,-0.8 -0.68,-1.29l0 -0.37c0,-0.49 0.12,-0.93 0.49,-1.42 0.37,-0.49 0.56,-0.86 0.56,-1.11l-0.37 -1.42c0,-0.36 0.24,-0.8 0.73,-1.29 0.62,-1.17 0.93,-1.9 0.93,-2.15 0,-0.73 0.31,-1.11 1.05,-1.23l0.55 -0.37c0.37,-0.25 0.62,-0.56 0.74,-0.93 -0.25,-0.36 -0.49,-0.73 -0.68,-1.04 -0.12,-0.37 -0.37,-0.68 -0.61,-0.93 0,-0.61 0.06,-0.98 0.19,-1.17 0.12,-0.19 0.18,-0.37 0.18,-0.43l-0.18 -0.37 -1.05 0.49 -0.37 0c-0.12,0 -0.19,-0.07 -0.19,-0.12 -0.37,-0.49 -0.86,-1.97 -1.54,-4.37 -0.68,-2.41 -1.23,-4.31 -1.72,-5.79 -0.25,-0.56 -0.37,-1.24 -0.37,-1.97 0,-1.42 0.49,-2.66 1.48,-3.58 0,-0.12 0.07,-0.25 0.19,-0.37 0.07,-0.12 0.19,-0.43 0.31,-0.8 0.12,-0.43 0.19,-0.8 0.19,-1.05 0,-0.19 -0.07,-0.43 -0.19,-0.61 -0.12,-0.19 -0.24,-0.31 -0.43,-0.43 -0.19,-0.13 -0.44,-0.32 -0.8,-0.56l0 -0.19 -0.19 0c0,-0.12 0.12,-0.24 0.36,-0.43 0.25,-0.19 0.49,-0.44 0.74,-0.74 0.19,-0.31 0.31,-0.56 0.31,-0.8 0,-0.25 -0.06,-0.44 -0.19,-0.56 -1.17,-1.17 -1.78,-2.46 -1.78,-3.75 0.12,-1.36 0.56,-2.34 1.29,-3.08l0.86 -1.97 -0.49 -0.92c0,-0.25 0.07,-0.56 0.31,-0.98 0.25,-0.44 0.37,-0.93 0.37,-1.54 0,-0.74 -0.25,-1.42 -0.68,-1.97l-0.56 0c-0.49,0.24 -0.86,0.49 -1.11,0.68 -0.49,0 -0.8,-0.07 -0.98,-0.25 -0.19,-0.19 -0.31,-0.31 -0.44,-0.43 -0.12,-0.13 -0.24,-0.32 -0.36,-0.56l-0.37 -0.19 -0.37 0c-0.24,0.12 -0.49,0.25 -0.8,0.37 -0.31,0.12 -0.74,0.19 -1.29,0.19 -0.49,0 -0.86,0.19 -1.05,0.55 -0.19,0.32 -0.31,0.81 -0.43,1.36 -0.13,0.49 -0.49,0.8 -1.11,0.8 -0.73,-0.12 -1.41,-0.36 -2.15,-0.67 -0.73,-0.25 -1.41,-0.62 -1.97,-0.99 -0.61,-0.31 -1.11,-0.49 -1.48,-0.49 -0.37,0 -0.68,0.07 -0.86,0.13 -1.48,0 -2.28,0.12 -2.46,0.31 -0.19,0.19 -0.25,0.49 -0.25,0.98 0,1.36 -0.43,1.97 -1.29,1.97 -0.24,0 -0.68,-0.31 -1.24,-0.86 -0.24,-0.24 -0.8,-0.37 -1.66,-0.37l-0.73 -0.18c-0.56,0 -1.48,0.8 -2.65,2.34 -0.86,0.98 -1.66,1.41 -2.41,1.41 -0.31,0 -0.68,-0.19 -1.04,-0.49 -0.26,0.07 -0.44,0.19 -0.62,0.24 -0.19,0.07 -0.44,0.19 -0.68,0.44 -2.03,1.36 -4.31,1.97 -6.84,1.97l-2.9 -0.12c-0.73,0 -1.17,-0.44 -1.41,-1.29l-0.56 -0.37c-0.86,0 -1.29,0.12 -1.29,0.37 0,1.35 -0.86,2.09 -2.71,2.34l-0.86 0.18c-1.23,0 -1.97,0.68 -2.34,1.98 -3.14,7.2 -5.72,12.86 -7.76,17 -1.73,3.07 -3.14,6.21 -4.37,9.35 -2.28,6.29 -4.99,12.38 -8.06,18.42 -2.41,4.43 -4.5,8.93 -6.16,13.42 -1.66,4.5 -3.46,8.81 -5.24,12.94l-1.6 3.75c-2.15,4.8 -4.44,9.55 -6.72,14.29l-4.5 8.44c-0.25,0.36 -0.49,0.55 -0.74,0.55zm71.82 -153.72l2.89 -0.56c2.03,-0.36 4.13,-0.8 6.16,-1.23 4.19,-0.98 8.5,-1.85 12.81,-2.53 0.13,0 0.32,-0.12 0.56,-0.37l0.19 -0.19c0,-0.61 -0.56,-1.72 -1.66,-3.26 -0.37,-0.74 -0.56,-1.36 -0.56,-1.97l0 -0.56c0,-0.73 0.13,-1.17 0.31,-1.36 0.19,-0.19 0.25,-0.43 0.25,-0.8l-0.19 -0.56c-0.61,-2.28 -0.86,-4.55 -0.86,-6.84 0.13,-5.29 0.93,-7.94 2.53,-7.94 0.44,-0.24 0.74,-0.49 0.86,-0.8 0.12,-0.31 0.19,-0.56 0.19,-0.68 -0.12,-0.19 -0.19,-0.43 -0.25,-0.61 -0.06,-0.19 -0.24,-0.32 -0.49,-0.44 -0.92,-0.24 -1.41,-1.41 -1.41,-3.45 0,-1.05 0.12,-2.15 0.37,-3.2 0.24,-1.11 0.36,-2.15 0.36,-3.07 0,-0.49 -0.12,-0.98 -0.31,-1.54 -0.19,-0.56 -0.24,-0.93 -0.24,-1.17 0,-0.12 0,-0.25 0,-0.37 0,-0.12 0.31,-0.37 0.92,-0.73l0.31 0 0 -0.56 -0.31 -0.49c-0.37,-3.39 -0.56,-5.29 -0.56,-5.73 0,-0.43 -0.06,-0.61 -0.18,-0.61l0 -0.19 -1.11 0c-0.37,0.74 -0.61,1.42 -0.86,1.97 0,0.12 -0.06,0.37 -0.12,0.74 -0.07,0.37 -0.56,0.98 -1.54,1.78l-0.19 0.37c0.13,0.12 0.25,0.37 0.37,0.61 0.12,0.31 0.31,0.68 0.56,1.11 0.24,0.44 0.37,0.81 0.37,1.17 0,0.86 -0.74,1.98 -2.15,3.46l-1.98 1.6 -0.18 0 -2.53 1.97c-0.25,1.36 -0.8,2.53 -1.66,3.64 -0.25,0.24 -0.44,0.61 -0.56,1.04 0,0.49 0.25,0.93 0.74,1.29 0.49,0.37 0.73,0.81 0.73,1.3 0,1.29 -0.49,2.15 -1.48,2.53l-1.41 1.23c-0.37,0.25 -0.56,0.44 -0.62,0.56 -0.06,0.12 -0.19,0.19 -0.31,0.19 -0.8,0.92 -1.24,2.02 -1.24,3.26l0.19 3.2c-0.12,1.36 -0.55,2.65 -1.29,4 0,0.12 -0.19,0.31 -0.61,0.56 -0.44,0.18 -0.61,0.67 -0.61,1.41 -0.74,3.94 -2.34,8.01 -4.87,12.08l0 0.36 0.31 0.37 0.37 0z"/>
   <path class="fil0" d="M612.17 289.94c-9.55,0 -18.47,-1.85 -26.92,-5.42 -13.49,-5.91 -23.83,-15.27 -31.22,-28.14 -8.38,-14.84 -12.62,-30.3 -12.62,-46.37 -0.25,-1.24 -0.37,-2.41 -0.37,-3.63 0.12,-7.58 0.8,-14.79 2.03,-21.62 5.42,-33.68 16.75,-58.99 34.05,-75.99 0.74,-0.86 1.24,-1.79 1.48,-2.9 3.58,-14.91 8.94,-25.5 16.08,-31.72l3.94 -3.26c1.24,-1.48 2.53,-2.71 3.94,-3.82 0.74,-0.44 1.11,-0.93 1.11,-1.42l0 -1.48c0.12,-1.17 1.41,-2.15 3.82,-2.83 1.41,-0.37 3.26,-1.66 5.55,-3.82 5.05,-6.21 12.32,-9.86 21.68,-10.84 1.54,0 3.39,-0.12 5.42,-0.37 0.49,0 0.98,-0.24 1.61,-0.8 0.61,-0.55 1.48,-0.8 2.53,-0.8l1.11 0.19c1.29,0.25 2.65,0.37 3.94,0.37 3.63,0 6.9,-0.12 9.79,-0.37l0.86 0c0.86,0 1.66,0.12 2.46,0.37 0.74,0.24 2.71,0.49 5.85,0.73 0.62,0 1.11,0.07 1.61,0.19l0 -0.37c0.12,-0.24 0.19,-0.43 0.19,-0.55 0,-0.12 0,-0.25 0,-0.37l1.66 -0.19c1.04,0 2.02,0.31 2.83,0.93l0.73 0.18 1.11 0c2.28,0 5.67,1.11 10.28,3.39l11.88 5.79c1.11,0.49 2.03,1.24 2.9,2.15 0.37,0.86 0.98,1.3 1.78,1.3l0.56 0 0 -0.19 0.19 0c0.49,-0.25 0.98,-0.37 1.41,-0.37 2.41,0 4.87,1.54 7.27,4.68l0 0.37 -1.11 -0.56c-0.36,0 -0.55,0.12 -0.55,0.37l2.53 3.07c0.24,0.25 0.49,0.37 0.73,0.37l1.24 -0.56 1.11 0.93c4.68,4.31 7.02,7.7 7.02,10.1l-0.19 1.05c0,0.49 0.19,0.92 0.56,1.29 3.14,4.93 4.74,8.62 4.87,11.15l0.18 0.56c0,1.11 0.37,1.97 1.11,2.71 2.4,2.4 3.63,4.12 3.75,5.04l0.37 2.53c0.37,2.03 0.56,4.07 0.56,5.97 -0.25,4.56 -0.86,8.99 -1.79,13.37l-0.36 1.6c0,0.49 0.06,1.05 0.18,1.61 0.13,0.61 0.19,1.36 0.19,2.15l-0.19 2.22c-0.49,1.66 -0.8,3.33 -0.92,5.04 0,1.66 0.25,2.53 0.74,2.53l0.18 0 0.68 0.56c0.37,0.68 0.56,2.28 0.56,4.68 -0.24,1.9 -1.11,3.63 -2.71,5.23l-0.36 0.68 0.18 0.93c0,0.49 -0.12,0.98 -0.36,1.41 -1.3,2.65 -1.97,5.55 -1.97,8.68l-0.19 5.42c0,2.28 -0.32,4.56 -0.86,6.84 -0.25,0.62 -0.44,1.3 -0.56,2.03 -0.12,0.68 -0.61,1.42 -1.48,2.15 -0.07,0.13 -0.19,0.25 -0.25,0.44 -0.06,0.19 -0.12,0.31 -0.18,0.43 -0.07,0.12 -0.25,1.48 -0.62,4 -2.53,10.59 -6.84,21.19 -12.99,31.72l-0.92 1.29c-0.25,0.37 -0.49,0.56 -0.86,0.56l-0.92 -0.19c-0.37,0 -0.62,0.24 -0.74,0.68 -1.41,2.65 -2.15,4 -2.15,4.06 0,0.07 0,0.25 0,0.49 0,0.37 0.19,0.68 0.56,1.05l-0.56 1.66c-1.42,4.19 -4.99,10.1 -10.65,17.68l-3.94 5.05c-0.62,0.92 -1.24,1.97 -1.79,3.07 -0.86,2.41 -2.28,3.58 -4.19,3.58l-0.36 0c-0.49,0 -0.81,0.18 -1.05,0.55l-0.37 0.56c0,0.24 0.07,0.43 0.25,0.61 0.19,0.19 0.31,0.31 0.31,0.44l-1.48 1.29 -3.95 4.31c-2.02,2.77 -4.5,5.17 -7.2,7.21 -0.62,0.37 -1.11,0.98 -1.48,1.85l-0.74 0.85 -0.19 0c-1.66,1.73 -3.51,3.08 -5.55,4.19 -1.36,0.56 -2.58,1.36 -3.82,2.34 -10.71,8.5 -22.41,13.49 -35.17,14.96 -4.92,0.74 -9.18,1.11 -12.62,1.11zm1.41 -47.48c4.13,0 8.75,-1.24 13.92,-3.63 3.94,-1.91 7.7,-4.19 11.15,-6.84 14.11,-10.47 24.76,-24.51 31.96,-42.19 7.7,-18.29 12.94,-36.27 15.71,-53.95 0.74,-4.5 1.11,-9.06 1.24,-13.74l0 -1.29c0,-5.97 -0.81,-11.08 -2.53,-15.34 -1.66,-4.19 -5.17,-7.82 -10.47,-10.77 -5.73,-2.9 -12.99,-4.37 -21.8,-4.37 -2.41,0 -4.44,0.25 -6.17,0.74 -3.94,1.23 -5.91,2.34 -5.91,3.45 0,0.43 0.07,0.74 0.19,0.86l0.19 3.82c0,4.06 -1.97,9.18 -5.79,15.34 -1.91,3.82 -2.96,6.77 -3.08,8.81l0 0.19 -0.37 0 -0.73 -0.49c-0.44,-0.86 -1.11,-1.29 -1.97,-1.29 -0.37,0.12 -0.68,0.36 -0.86,0.73l0 1.05c-0.13,0.37 -0.19,1.05 -0.19,2.03 0,0.24 -0.19,0.31 -0.56,0.31 -0.12,0 -0.24,0 -0.37,0 -0.12,0 -0.24,0 -0.24,-0.07 -0.07,-0.06 -0.19,-0.12 -0.31,-0.24 -0.13,-0.13 -0.25,-0.19 -0.37,-0.19 -0.25,0 -0.37,0.19 -0.37,0.49l0 0.73c0,0.49 -0.56,1.61 -1.78,3.27 0,0.37 -0.44,0.92 -1.24,1.6 -0.86,1.61 -1.54,2.53 -2.09,2.83 -0.56,0.31 -0.8,0.98 -0.8,2.03 -0.25,2.09 -0.44,6.4 -0.56,12.99l0 1.85c0,10.9 2.09,20.32 6.28,28.14l0.74 1.23c0.49,1.24 0.73,2.41 0.73,3.64l0 0.68c0,1.35 -0.19,2.4 -0.55,3.07 -1.17,2.03 -2.65,4.12 -4.44,6.16 -1.72,2.03 -4,3.39 -6.77,3.94 -2.16,0.49 -4.07,1.85 -5.73,4 -1.11,1.05 -2.28,1.98 -3.63,2.71 -0.86,0.37 -1.24,0.98 -1.24,1.97l0 0.56c0,1.54 0.31,3.39 1.05,5.6l0.19 1.97c-0.13,2.9 -1.54,5.73 -4.31,8.5 -0.37,0.44 -0.86,0.86 -1.49,1.24l-3.75 4.31c-0.12,0.25 -0.37,0.37 -0.74,0.37 -0.36,0 -0.85,-0.43 -1.41,-1.24 -0.12,-0.12 -0.25,-0.31 -0.37,-0.55 -0.12,-0.25 -0.31,-0.56 -0.43,-0.93 -0.19,-0.37 -0.56,-0.73 -1.05,-1.04l-0.19 0 0 0.18c2.77,8.75 8.19,14.17 16.26,16.2 1.73,0.37 3.39,0.56 5.05,0.56zm193.39 70.02c-1.42,0 -2.22,-0.31 -2.41,-0.92 -0.19,-0.61 -0.74,-0.92 -1.73,-0.86 -3.14,-0.06 -5.04,-0.12 -5.79,-0.19 -0.12,-0.06 -0.19,0 -0.24,0.13 -0.07,0.12 -0.13,0.24 -0.13,0.36l0 0.19c-0.06,0.12 -0.19,0.25 -0.24,0.31 -0.07,0.07 -0.37,0.07 -0.98,0.07 -11.7,0 -22.73,-4.62 -33.2,-13.86l-2.34 -2.03c-1.85,-0.8 -3.07,-2.15 -3.82,-3.94l0 -1.29 0.19 -0.49c0,-0.49 -0.37,-0.98 -1.05,-1.48 0,-0.13 -0.06,-0.19 -0.19,-0.19l0 0.19 -0.73 -0.19c-0.25,-0.13 -0.44,-0.31 -0.62,-0.62 -0.18,-0.31 -0.49,-0.73 -0.8,-1.35l-3.45 -5.42c-1.78,-2.53 -3.02,-5.23 -3.63,-8.13 -0.13,-0.68 -0.44,-1.24 -0.86,-1.54 -0.49,-0.31 -0.86,-0.73 -1.11,-1.36 -0.86,-2.03 -1.24,-4.06 -1.24,-6.09 0,-0.98 -0.19,-1.91 -0.56,-2.9 -1.72,-6.03 -2.53,-12.32 -2.53,-18.97l0 -1.23c0,-3.15 0.25,-6.16 0.68,-9.06 0,-2.03 0.25,-5.11 0.74,-9.18 0,-2.03 0.37,-5.24 1.11,-9.55 1.66,-12.99 3.88,-24.14 6.65,-33.37l2.53 -11.77c1.91,-9.98 4.44,-19.89 7.58,-29.74l6.16 -20.02c3.02,-11.57 6.59,-23.77 10.84,-36.64l0 -0.37c4.06,-11.88 8.5,-23.7 13.3,-35.34l0.55 -1.66c0.37,-1.05 0.81,-2.1 1.3,-3.02 0.49,-0.98 1.23,-1.48 2.34,-1.48 4.92,0 8.99,0.36 12.25,1.11l9.73 2.34 2.15 0.19c1.23,0 2.34,-0.37 3.45,-1.11l0.92 -0.36 0 0.73c0,0.37 -0.06,0.74 -0.18,1.17 -0.13,0.44 -0.19,1.17 -0.19,2.28 0,0.68 0.12,1.17 0.43,1.36 0.31,0.19 0.68,0.25 1.17,0.25l1.97 -1.24 0.74 0c0.37,0 0.55,0.12 0.55,0.49 -0.12,0.25 -0.24,0.56 -0.36,0.93l0 0.55 -0.56 0.37c0,0.44 0.07,0.74 0.19,0.86l0 0.19c0.37,0 0.68,-0.07 0.98,-0.19 0.31,-0.12 0.61,-0.25 0.8,-0.37 0.25,-0.12 0.44,-0.19 0.56,-0.19 0.12,0.13 0.31,0.25 0.56,0.37l0.18 0c0.62,0.74 1.36,1.36 2.15,1.85 1.61,0.8 2.41,2.09 2.53,3.75 -0.12,3.02 -1.11,6.78 -3.07,11.21 -5.48,12.87 -10.16,27.35 -13.86,43.48 -1.6,6.1 -3.26,12.26 -5.05,18.42l-4.86 15.7c-7.33,25.62 -12.5,46.87 -15.52,63.87l-0.56 3.2c-0.98,6.16 -1.73,11.88 -2.34,17.17 -0.37,3.95 -0.61,8.94 -0.73,14.97 0,7.33 1.53,14.34 4.5,21.12 1.72,3.94 4.55,6.09 8.49,6.46 3.64,0 6.53,-0.25 8.68,-0.74 7.58,-1.9 15.83,-6.16 24.7,-12.81 11.89,-8.99 20.75,-18.97 26.55,-29.93 2.28,-3.94 4.31,-8.07 6.09,-12.25l2.03 -4.32c6.84,-15.51 12.99,-31.22 18.54,-47.11l0.19 -0.55c4.5,-12.01 8.18,-23.65 11.2,-34.79l8.31 -29.07c1.54,-6.04 3.76,-13.18 6.65,-21.49 2.54,-7.57 4.07,-14.59 4.69,-21.06 0.12,-1.73 0.68,-3.27 1.66,-4.75 1.17,-2.15 4.24,-3.57 9.18,-4.31 1.11,-0.25 2.15,-0.37 3.26,-0.37 1.66,0 3.27,0.31 4.75,0.93 1.53,0.61 3.63,0.92 6.4,0.92 0.61,-0.24 1.54,-0.37 2.71,-0.37 1.11,0 2.09,0.13 2.9,0.37 0.85,0 1.53,-0.24 1.97,-0.73 1.23,-1.11 2.15,-2.41 2.7,-4 1.61,-2.53 4.5,-3.88 8.68,-4.13l2.71 0c1.66,0 3.45,-0.12 5.24,-0.36 0.36,-0.13 0.8,-0.19 1.23,-0.19 0.12,0.12 0.31,0.31 0.49,0.49 0.19,0.12 0.25,0.31 0.25,0.43l0 0.86 -0.37 1.11c-2.03,9.06 -3.26,14.04 -3.75,14.96 -0.25,0.49 -0.62,0.86 -1.11,1.11 -0.86,0 -1.29,0.55 -1.41,1.6l-0.19 0.19 0 0.19 0.37 0 0.18 -0.37 -0.18 -0.19c0.92,0.25 1.41,0.98 1.41,2.15 0,1.61 -0.61,2.53 -1.78,2.9l-0.56 0.37 0 0.36c0.12,0.13 0.31,0.19 0.56,0.19l0 0.19 0.55 0 0.32 0.19c0,0.8 -0.25,1.54 -0.86,2.15 0,0.12 -0.19,0.19 -0.56,0.19l-0.92 -0.37c-0.13,0.37 -0.31,0.74 -0.49,1.11 -0.25,0.31 -0.49,0.73 -0.68,1.17 -0.19,0.36 -0.25,0.68 -0.25,0.8 0,0.61 0.25,1.05 0.74,1.41 0,0.13 0.12,0.19 0.31,0.19 0.37,0.37 0.56,0.98 0.56,1.79l0 0.18c0,2.34 -0.93,5.17 -2.9,8.68 -1.42,2.9 -2.53,4.8 -3.2,5.8 -0.37,0.49 -0.55,0.92 -0.55,1.41l0.18 0.92c0.62,1.54 0.86,3.02 0.86,4.32 0,1.48 -0.55,2.83 -1.66,4.06 -1.17,1.29 -1.72,2.9 -1.72,4.99l-2.16 3.08 -1.29 1.41 -1.04 2.71c-0.13,0.12 -0.25,0.24 -0.32,0.37 -0.06,0.12 -0.24,0.19 -0.61,0.19 -1.54,0 -2.34,1.17 -2.34,3.57l0 2.9c0,1.11 -0.56,1.9 -1.66,2.53 -0.12,0 -0.12,0.06 -0.12,0.19 0,0.12 0,0.24 0,0.36 0,0.13 0,0.25 0,0.37 0,0.12 0,0.19 0.12,0.19l0.37 0c0.12,0 0.49,-0.31 1.11,-0.92l0.37 0 0 1.78c-2.9,14.96 -4.5,22.91 -4.87,24.02 -0.98,2.28 -2.34,4.43 -4.19,6.52 -0.36,0.32 -0.55,0.81 -0.68,1.42 -0.24,0.98 -0.67,1.85 -1.29,2.71l-0.19 0.73c0,0.31 0.13,0.62 0.37,0.8 0.25,0.19 0.44,0.44 0.61,0.68 0.19,0.31 0.32,0.62 0.32,0.86 -0.13,0.56 -0.81,1.17 -2.03,1.78 -0.93,0.74 -1.42,1.79 -1.42,3.27l0 1.05c0.13,0.61 0.19,1.23 0.19,1.84 -0.12,2.28 -0.8,4.5 -1.97,6.66l-2.53 3.63c-1.6,2.15 -2.4,3.33 -2.53,3.57l0.31 1.48c0,0.19 -0.06,0.49 -0.31,0.86 -1.6,1.73 -2.53,3.63 -2.89,5.79l-0.93 3.64c-1.04,1.9 -1.9,4 -2.53,6.28l0.19 0c0.25,0 0.44,0.07 0.62,0.12 0.18,0.07 0.36,0.19 0.49,0.44 0,0.98 -0.32,1.66 -0.86,2.09 -0.49,0.37 -0.8,0.92 -0.8,1.6 0,0.68 -0.13,1.17 -0.37,1.54 -0.25,0.37 -0.44,0.8 -0.68,1.36 -0.25,0.56 -0.56,1.17 -0.93,1.91 -2.77,4.06 -4.37,7.14 -4.87,9.17 -0.24,0.86 -0.73,1.49 -1.48,1.98l-0.49 0.73 0 0.19c0,0.25 0.07,0.44 0.19,0.56l0.19 0.19c0.55,0.43 0.86,1.23 0.86,2.34l0 0.49c-0.13,0.98 -0.49,1.85 -1.05,2.58 0,0.19 -0.12,0.31 -0.37,0.31l-0.37 -0.68c-0.36,0 -0.55,0.07 -0.55,0.19 -0.49,0.44 -0.93,1.05 -1.24,1.79l0.31 0.73c0.12,0 0.25,0.07 0.37,0.19 0.12,0.07 0.19,0.24 0.19,0.49l-1.42 4.19c-0.36,1.66 -1.23,2.65 -2.52,2.89 -0.25,0.13 -0.56,0.19 -0.93,0.32 -0.49,0.73 -1.11,2.21 -1.97,4.37 -0.12,0.49 -0.49,1.11 -1.11,1.98 -0.25,0.49 -0.81,1.17 -1.79,1.97l-0.73 0.92 0.19 0.86c0,0.86 0.06,1.73 0.18,2.58 0,2.16 -2.15,5.12 -6.46,8.99l-5.97 4.5c-1.41,0.85 -2.58,1.97 -3.45,3.45 -0.44,0.86 -1.05,1.54 -1.78,2.15 -0.13,0 -0.62,0.37 -1.42,1.11 -1.23,0.8 -2.22,1.85 -2.9,3.02 -0.12,0.12 -0.18,0.37 -0.18,0.74 0,0.12 0.18,0.43 0.55,0.92 -1.48,3.7 -3.75,5.73 -6.89,5.92l-0.86 0.18c0,0.13 -0.07,0.19 -0.19,0.19 -0.49,0.74 -0.98,1.24 -1.48,1.49 -4.07,2.02 -6.77,4.24 -8.13,6.65l-1.98 2.15c-1.53,1.85 -3.45,3.33 -5.79,4.55l-1.78 1.24c-0.12,0.12 -0.31,0.24 -0.56,0.37 -0.24,0.12 -0.68,0.19 -1.36,0.19 -0.61,0 -1.23,0.24 -1.66,0.73 -11.45,8.26 -25.06,12.44 -40.82,12.44z"/>
   <path class="fil0" d="M989.02 322.03c-3.2,0 -6.46,-0.56 -9.73,-1.6 -1.91,-0.62 -3.88,-0.98 -5.85,-1.17 -1.98,-0.19 -3.88,-0.49 -5.67,-0.86 -1.24,0 -2.15,0.31 -2.9,0.92l-0.19 0c-1.23,1.24 -2.46,1.79 -3.82,1.79 -2.65,0 -4.62,-0.07 -5.91,-0.25 -1.36,-0.19 -2.71,-0.31 -4.07,-0.43 -1.42,-0.13 -2.71,-0.37 -3.88,-0.74 -0.61,0 -0.92,-0.31 -0.92,-0.92 0,-0.25 0.12,-0.62 0.37,-1.24 0.85,-3.26 1.35,-4.99 1.6,-5.23l0 -0.19c0.25,-0.62 0.74,-0.93 1.48,-0.93l0.74 -0.37 0 -0.49c-0.98,0 -1.48,-0.49 -1.48,-1.48l0.92 -1.41 -0.19 0 -0.19 -0.74 0.19 -0.37 0.86 -0.18 0.19 0.18c0.86,0 1.29,-0.49 1.29,-1.41l-1.11 -0.74c-0.56,-0.61 -0.86,-1.17 -0.86,-1.6 0.12,-1.73 1.17,-3.58 3.2,-5.6 0.61,-0.37 0.92,-0.74 0.92,-1.11 0,-0.12 -0.07,-0.24 -0.19,-0.43 -0.12,-0.19 -0.24,-0.37 -0.37,-0.61 -0.12,-0.25 -0.31,-0.49 -0.55,-0.74 -0.19,-0.25 -0.37,-0.56 -0.49,-0.92 -0.13,-0.37 -0.19,-0.56 -0.19,-0.68 0,-0.37 0.12,-0.68 0.37,-0.93 0.12,-0.24 0.36,-0.49 0.85,-0.8 0.49,-0.31 0.74,-0.93 0.74,-1.91 0,-0.12 0,-0.24 0.07,-0.36 0.06,-0.13 0.19,-0.19 0.31,-0.19 0.49,-0.49 0.92,-0.86 1.41,-1.17 0.49,-0.31 0.86,-0.74 1.11,-1.24 0.24,-0.56 0.61,-0.86 1.04,-0.86l0.37 0.19 0.56 0c0.61,-0.31 0.92,-0.73 0.92,-1.23 -0.24,-0.49 -0.43,-0.93 -0.49,-1.3 -0.06,-0.36 -0.06,-0.55 -0.06,-0.68 0,-0.49 0.24,-0.85 0.73,-1.11l0 -0.37c0,-0.12 -0.06,-0.19 -0.19,-0.19l-0.55 0 -0.37 0.19c-0.12,0 -0.19,-0.06 -0.19,-0.19l-0.37 0 0 -10.65c0,-1.66 0.68,-3.01 2.03,-4.12 0.19,-0.24 0.43,-0.43 0.68,-0.55 0.86,-0.37 1.36,-1.17 1.48,-2.53 0,-0.13 3.75,-12.45 11.33,-36.95 -0.25,0 -0.37,-0.19 -0.37,-0.56 0,-0.12 0,-0.25 0,-0.37 0,-0.12 0.12,-0.24 0.37,-0.37 1.11,-0.12 1.66,-0.55 1.66,-1.23 0,-0.25 -0.19,-0.56 -0.49,-0.93 -0.31,-0.37 -0.43,-1.11 -0.43,-2.15 0,-1.11 0.61,-2.22 1.78,-3.45l0.19 -0.37 1.48 -1.24 0 -1.11c0,-0.24 0.19,-0.56 0.49,-0.86 0.49,0 0.86,-0.61 1.11,-1.85l0 -1.41c0,-0.61 0.12,-1.24 0.44,-1.78 0.31,-0.62 0.49,-1.05 0.49,-1.3 0,-0.12 -0.07,-0.31 -0.13,-0.55 -0.06,-0.25 -0.24,-0.37 -0.61,-0.44 -0.37,-0.06 -0.56,-0.36 -0.56,-0.98 0.25,-0.49 0.44,-0.92 0.56,-1.36 0.12,-0.43 0.19,-0.73 0.25,-0.92 0.06,-0.19 0.18,-0.37 0.31,-0.61 1.54,-1.91 2.4,-3.46 2.53,-4.5 0.12,-0.49 0.36,-0.93 0.68,-1.3 0,-0.49 -0.13,-0.8 -0.32,-0.98 -0.24,-0.19 -0.61,-0.43 -1.04,-0.73 -0.37,-0.31 -0.62,-0.62 -0.62,-0.98 0.13,-0.62 0.44,-0.86 0.93,-0.86l0.73 0.19c0.44,0 0.68,-0.25 0.68,-0.74 -0.12,-0.12 -0.19,-0.24 -0.24,-0.31 -0.07,-0.07 -0.19,-0.12 -0.25,-0.19 -0.12,-0.07 -0.31,-0.07 -0.49,-0.12 -0.19,-0.07 -0.24,-0.61 -0.24,-1.54 0,-0.86 0.12,-1.41 0.36,-1.66l0.19 0c0.32,-0.24 0.74,-0.43 1.24,-0.56 0.49,-0.06 0.74,-0.61 0.74,-1.6 0,-0.92 0.36,-1.73 1.04,-2.34 0,-0.37 -0.06,-0.61 -0.19,-0.8 -0.06,-0.19 -0.24,-0.37 -0.49,-0.56 -0.24,-0.19 -0.49,-0.49 -0.73,-0.98 -0.12,0 -0.19,-0.24 -0.19,-0.73 0.24,-0.81 1.29,-2.16 3.07,-3.95l1.61 -1.48c0.24,-0.24 0.43,-0.61 0.49,-1.24 0,-0.61 0.37,-1.29 0.98,-1.97l0.49 -1.11c0,-0.12 -0.07,-0.31 -0.12,-0.56 -0.13,-0.24 -0.31,-0.36 -0.56,-0.36 -0.98,-0.25 -1.48,-0.86 -1.48,-1.98 0,-0.85 0.37,-1.29 1.11,-1.41 0.25,-0.12 0.68,-0.49 1.24,-1.11 0,-0.24 0.06,-0.43 0.19,-0.55 0.49,-0.68 0.73,-1.42 0.73,-2.15l0 -0.37c0,-0.43 -0.12,-1.17 -0.43,-2.15 -0.31,-0.93 -0.49,-1.6 -0.49,-1.97 0,-0.74 0.24,-1.36 0.73,-1.97 0.49,-0.62 0.74,-1.49 0.74,-2.53 0.12,-3.14 0.74,-5.92 1.78,-8.31l1.48 -3.27c0.19,-0.24 0.44,-0.55 0.68,-0.86 0.25,-0.36 0.68,-0.55 1.36,-0.55 0.68,0 1.11,-0.49 1.36,-1.48 0,-0.37 -0.07,-0.49 -0.19,-0.49 -0.61,-0.25 -0.86,-0.98 -0.86,-2.22 0,-1.42 0.31,-2.77 0.98,-4.07 0.62,-1.23 1.11,-2.28 1.36,-3.14l0.19 -3.26c0.25,-0.44 0.68,-0.68 1.42,-0.68l0.36 -0.19c-0.12,-0.12 -0.18,-0.31 -0.24,-0.49 -0.07,-0.12 -0.12,-0.37 -0.12,-0.61l0.19 -0.68 0.36 -2.59c0,-0.68 0.13,-1.23 0.37,-1.66 0.25,-0.43 0.37,-0.73 0.37,-0.86 0,-0.06 -0.07,-0.24 -0.19,-0.49 -0.12,-0.24 -0.19,-0.55 -0.19,-0.92 0,-0.37 0.07,-0.68 0.19,-0.93 0.8,-1.29 1.24,-2.7 1.24,-4.12 0.36,-2.65 0.98,-5.17 1.78,-7.57 0.73,-1.66 1.54,-4.37 2.4,-8.01 0.81,-3.7 1.85,-7.27 3.02,-10.78 2.1,-5.97 3.27,-10.28 3.64,-12.81 0.98,-4.8 2.28,-9.54 3.94,-14.22 0.37,-0.74 0.56,-1.42 0.56,-1.97l0.18 -0.19c0,-0.13 -0.06,-0.19 -0.18,-0.19l0 -0.37 -3.27 -0.56c-2.71,0.98 -5.72,1.42 -8.93,1.42 -3.14,0 -5.36,0.06 -6.59,0.19 -8.37,0.86 -14.84,1.29 -19.27,1.29l-5.05 0.56 -1.41 0.19c-5.92,0.92 -9.48,1.41 -10.65,1.41 -7.58,0.37 -12.69,0.86 -15.34,1.48 -10.1,1.66 -18.35,2.78 -24.75,3.39l-9.55 1.11 -0.74 -0.19c-1.04,0 -2.41,-4.24 -3.95,-12.81l-0.55 -3.63c-0.37,-2.15 -0.68,-4.24 -0.98,-6.28 -0.31,-2.03 -0.98,-3.82 -2.1,-5.24 0.13,-0.49 0.25,-0.73 0.31,-0.73 0.07,0 0.19,-0.07 0.44,-0.25 0.24,-0.19 0.49,-0.43 0.73,-0.68 0.25,-0.19 0.44,-0.43 0.49,-0.68 0,-0.86 -0.18,-1.54 -0.68,-2.03l-0.73 -1.41c0,-0.61 0.12,-0.93 0.37,-0.98 0.24,-0.07 0.43,-0.12 0.61,-0.19 0.19,-0.07 0.31,-0.19 0.31,-0.43 0,-0.13 -0.06,-0.32 -0.12,-0.5 -0.07,-0.18 -0.19,-0.43 -0.44,-0.8 -0.12,-0.12 -0.18,-0.55 -0.18,-1.23l0 -1.3 0.36 -3.26c0.13,-2.15 1.73,-3.45 4.87,-3.94l2.54 -0.19c4.31,-0.37 12.74,-1.91 25.25,-4.68 3.26,-0.74 6.53,-1.24 9.91,-1.48 2.78,-0.12 5.55,-0.31 8.31,-0.68l19.28 -1.66c1.6,-0.25 3.2,-0.44 4.87,-0.56l22.97 -1.6 5.72 -0.19c2.53,-0.12 6.29,-0.19 11.21,-0.19 6.72,0 12.38,-0.19 16.93,-0.61 4.63,-0.44 9.18,-0.86 13.74,-1.36l8.81 -0.93c8.06,-0.43 16.13,-0.8 24.21,-1.04l3.63 -0.19c4.06,-0.25 8.19,-0.37 12.44,-0.37 17.68,0 29.62,-0.37 35.91,-1.11 0.49,-0.19 2.95,-0.44 7.38,-0.68 0.74,0 1.36,-0.07 1.97,-0.19 2.03,-0.12 4.13,-0.25 6.16,-0.37 2.03,-0.12 4.13,-0.19 6.29,-0.19l7.76 0.19c2.77,0 5.55,-0.43 8.31,-1.29l1.11 -0.12c2.03,0 3.46,2.46 4.32,7.38 0.61,1.91 0.92,4.56 0.92,7.94l0 2.53c0,2.28 0.12,4.25 0.37,5.92 0.19,1.48 0.31,2.89 0.31,4.24 0,1.42 0.49,2.41 1.48,2.96l0.19 0c0.12,0.12 0.19,0.24 0.19,0.36 2.28,1.36 3.45,4.68 3.57,10.11l0 1.48c0,0.73 0.19,1.36 0.56,1.97l-0.19 4.12 -0.55 0.19 -5.24 0c-1.05,0 -1.73,-0.07 -2.03,-0.24 -0.31,-0.19 -0.49,-0.49 -0.49,-0.98 -0.12,0 -0.19,-0.07 -0.19,-0.13 0,-0.06 -0.06,-0.12 -0.19,-0.24l-0.49 0 -0.19 0.19 0.19 0.55c-0.12,0.8 -0.61,1.24 -1.48,1.24 -0.12,0 -0.24,-0.07 -0.37,-0.19 -0.12,-0.12 -0.24,-0.25 -0.43,-0.37 -0.19,-0.12 -0.37,-0.19 -0.61,-0.19l-0.37 0.74 -0.74 -0.19c-0.12,-0.25 -0.19,-0.61 -0.24,-1.05 -0.07,-0.49 -0.37,-0.73 -0.8,-0.73 -0.49,0 -0.81,0.06 -0.86,0.24 -0.07,0.19 -0.12,0.44 -0.25,0.74 -0.12,0.31 -0.31,0.55 -0.55,0.8 0,0.49 -0.74,0.74 -2.34,0.74 -0.62,0 -1.24,-0.13 -1.91,-0.44 -0.61,-0.31 -1.23,-0.56 -1.66,-0.73 -0.49,-0.19 -0.8,-0.32 -0.92,-0.44 -0.13,-0.12 -0.25,-0.19 -0.37,-0.19 -0.12,0 -0.19,-0.06 -0.25,-0.19 -0.06,-0.12 -0.19,-0.18 -0.31,-0.18 -0.12,0 -0.24,0 -0.43,0.06 -0.19,0.07 -0.37,0.19 -0.56,0.37 -0.19,0.19 -0.37,0.43 -0.61,0.73 -0.25,0.32 -0.49,0.62 -0.8,0.99 -0.32,0.36 -0.68,0.55 -0.98,0.55 -0.99,0 -1.61,-0.24 -1.85,-0.73l-0.19 0c-0.31,-0.25 -0.74,-0.37 -1.24,-0.37l-0.56 0.19c-0.49,0 -0.98,-0.25 -1.41,-0.8 -0.49,-0.56 -1.24,-0.93 -2.22,-1.17 -0.31,-0.13 -0.55,-0.37 -0.68,-0.74l0 -0.19c-0.24,-0.68 -0.49,-1.11 -0.73,-1.23 -0.49,0 -1.05,0.12 -1.61,0.43 -0.61,0.31 -1.04,0.43 -1.29,0.43 -0.37,0 -0.68,-0.12 -1.05,-0.31l-0.36 0 0.36 1.24 0.19 0.19 -0.19 0.37c-0.49,0.24 -2.02,0.73 -4.55,1.41l-5.24 1.48c-0.68,0.25 -1.41,0.37 -2.15,0.37 -1.17,0 -2.21,-0.37 -3.07,-1.05 -0.81,-0.61 -1.66,-1.05 -2.53,-1.17 -0.56,0 -0.98,0.31 -1.24,0.93l-0.37 0.73c-0.12,-0.12 -0.24,-0.19 -0.36,-0.19 -0.13,0 -0.37,-0.24 -0.81,-0.61 -0.43,-0.43 -0.67,-0.68 -0.8,-0.74 -0.12,-0.06 -0.24,-0.12 -0.36,-0.12 -0.5,0.49 -0.81,0.8 -0.93,0.86 -0.12,0.07 -0.31,0.19 -0.68,0.43 -0.73,0.62 -1.48,0.93 -2.22,0.93 -0.92,0 -2.34,-0.68 -4.12,-2.03l-0.92 -0.19 -0.68 0.56 -0.56 -0.19c-0.49,-0.49 -1.29,-0.68 -2.34,-0.68 -0.24,0.12 -0.49,0.19 -0.8,0.31 -0.31,0.12 -0.74,0.19 -1.17,0.19l-1.29 0c-0.25,-0.12 -0.56,-0.19 -0.93,-0.19 -0.19,0 -0.43,0.07 -0.61,0.19 -0.19,0.12 -0.31,0.25 -0.43,0.37 0,0.73 -0.13,1.11 -0.37,1.17 -0.25,0.06 -0.56,0.12 -0.93,0.12l-0.68 -0.19c-0.36,0.12 -0.92,0.19 -1.66,0.19 -0.24,-0.12 -0.55,-0.24 -0.98,-0.37 -0.43,-0.12 -0.92,-0.31 -1.53,-0.55 -0.56,-0.25 -1.36,-0.37 -2.34,-0.37 -0.93,0 -1.61,-0.07 -1.98,-0.19l-0.36 0c0,0.25 -0.07,0.43 -0.19,0.56 -0.37,1.36 -0.86,1.97 -1.61,1.97 -0.36,0 -0.61,0 -0.61,-0.07 -0.07,-0.06 -0.12,-0.24 -0.12,-0.55 0,-0.32 -0.12,-0.5 -0.37,-0.62l-0.19 -0.19 -0.19 0c-0.12,0 -0.31,0.07 -0.49,0.19 0,0.68 -0.31,1.17 -0.92,1.42l-0.19 0c-0.25,0.12 -0.68,0.19 -1.29,0.19 -0.44,0 -0.86,-0.25 -1.24,-0.74l-0.19 -0.31c-0.24,-0.37 -0.61,-0.56 -1.05,-0.56 -0.61,0.25 -1.29,0.37 -2.02,0.37 -0.25,0 -0.49,-0.12 -0.74,-0.31 -0.19,-0.19 -0.37,-0.25 -0.49,-0.25l-0.19 0c-0.24,0.13 -0.37,0.25 -0.37,0.37 -0.73,1.42 -1.35,2.15 -1.97,2.15 -1.36,0 -3.07,-0.73 -5.23,-2.15 -0.74,-0.37 -1.24,-0.68 -1.48,-0.92l-1.79 0.19c-0.61,0 -1.11,-0.13 -1.6,-0.37 -0.86,0 -1.36,0.31 -1.48,0.98 -0.13,0.68 -0.37,1.17 -0.8,1.54 -0.44,0.36 -0.81,0.55 -1.17,0.55 -0.25,0 -0.44,-0.06 -0.56,-0.19 -0.12,-0.12 -0.25,-0.18 -0.37,-0.18 -0.12,0 -0.24,-0.07 -0.37,-0.19l-0.31 0 -0.55 1.48c-0.74,3.7 -3.7,14.78 -8.87,33.19 -1.17,4.32 -2.71,9.43 -4.5,15.34 -3.63,13.43 -6.65,23.78 -9.18,31.04 -2.41,6.09 -4.37,12.44 -5.79,18.91l-2.71 12.44c-1.24,5.55 -2.53,11.08 -4,16.63 -1.78,6.04 -3.94,13.74 -6.46,23.09 -0.49,1.91 -1.05,3.76 -1.61,5.61 -13.12,41.14 -20.38,65.34 -21.86,72.66 -0.25,1.73 -0.98,5.24 -2.34,10.65l-0.19 1.49 -0.74 2.89c-0.68,3.33 -1.48,6.1 -2.34,8.26 -1.54,4.37 -2.4,8.5 -2.53,12.44 0,1.97 -0.85,3.02 -2.7,3.26 -1.79,0.25 -3.51,0.37 -5.24,0.37zm156.12 -7.02c-3.02,0 -5.97,-0.06 -8.87,-0.19 -13.73,-0.49 -26.3,-3.63 -37.69,-9.42 -5.16,-2.71 -9.85,-6.34 -13.91,-10.77 -8.19,-8.81 -13.55,-18.61 -16.07,-29.44 -0.81,-2.89 -1.24,-5.84 -1.24,-8.81 0.12,-4.74 1.11,-8.43 3.07,-11.2 3.58,-4.81 7.02,-7.21 10.29,-7.21 1.29,0 2.65,0.55 3.94,1.6 1.11,1.36 2.41,1.97 3.94,1.97l3.27 -0.19c0.86,0 2.34,0.37 4.5,1.11 0.49,0 1.36,-0.44 2.58,-1.29l0 -0.13 1.05 -0.55c1.11,-0.98 2.15,-1.54 3.26,-1.66 3.02,0 6.34,3.94 10.11,11.76l-0.19 1.42c0,0.73 -0.25,1.35 -0.74,1.84l0.37 0c0.12,0.13 0.31,0.19 0.56,0.19 0.24,0 0.37,0.13 0.37,0.49 0,0.13 -0.32,0.32 -0.81,0.56 -0.55,0.25 -0.86,0.56 -0.86,0.92 0,0.25 0.07,0.5 0.13,0.68 0.06,0.25 0.12,0.44 0.19,0.49 0.06,0.07 0.24,0.19 0.61,0.44 0.12,0 0.24,-0.07 0.43,-0.19 0.19,-0.12 0.44,-0.19 0.68,-0.19 0.68,0 1.36,0.49 1.97,1.48 0.62,0.93 1.11,2.1 1.61,3.39 0.49,1.36 1.23,2.03 2.15,2.03 0.49,0 0.98,-0.13 1.48,-0.31 0.49,-0.19 0.92,-0.32 1.42,-0.37 0.49,-0.07 0.98,-0.13 1.48,-0.25 1.9,0 3.57,0.62 5.04,1.79 0.68,0.61 1.54,0.92 2.53,0.92l1.24 -0.19c0.61,0 2.21,0.68 4.87,1.97 0.85,0.49 1.53,0.74 2.02,0.74 1.66,0 2.59,0.12 2.65,0.43 0.13,0.31 0.25,0.56 0.37,0.68 0.37,0.93 1.17,1.42 2.34,1.42 1.11,0 3.33,-0.44 6.72,-1.3 0.73,0 1.36,0.25 1.97,0.74 0.12,0.12 0.31,0.19 0.56,0.19 0.37,0 0.61,-0.07 0.73,-0.25 0.13,-0.19 0.19,-0.31 0.31,-0.31 -0.12,-0.37 -0.36,-0.55 -0.8,-0.68 -0.43,-0.12 -0.73,-0.31 -0.98,-0.55 0.25,-0.37 1.11,-0.68 2.53,-0.93 5.79,-0.73 13.55,-2.46 23.28,-5.23 3.63,-0.93 7.14,-1.42 10.65,-1.42l3.63 0.19 1.42 -0.19c1.29,-0.37 2.65,-0.61 3.94,-0.74 0.74,0 1.3,-0.43 1.66,-1.35 0.37,-0.93 0.93,-1.36 1.79,-1.36 0.24,0 0.55,0.06 0.98,0.19 0.43,0.12 0.8,0.24 1.17,0.36 0.36,0.13 0.8,0.19 1.29,0.19 1.17,0 2.4,-0.55 3.57,-1.66 5.06,-3.7 11.28,-5.54 18.61,-5.54 1.11,-0.37 1.66,-0.68 1.79,-0.93 0.61,-0.86 1.48,-1.29 2.52,-1.29 2.1,-0.12 4.99,-1.36 8.87,-3.76 1.29,-0.85 2.46,-1.41 3.51,-1.72 1.05,-0.31 2.71,-1.17 4.99,-2.59l-0.37 -1.11 0.19 -0.19c0.49,-0.98 1.24,-1.48 2.34,-1.6 0.61,0 1.05,-0.31 1.42,-0.8 0.36,-0.56 0.92,-1.05 1.66,-1.36 5.72,-2.65 9.48,-4.99 11.15,-7.09 0,-0.24 -0.25,-0.61 -0.68,-1.17 -0.49,-0.49 -0.74,-0.92 -0.74,-1.17 0,-0.24 0.13,-0.43 0.37,-0.55 0.25,-0.13 0.49,-0.19 0.8,-0.32 0.31,-0.12 0.44,-0.43 0.44,-0.92l0 -1.29c2.52,-0.8 4.86,-2.34 7.01,-4.5 0.13,-0.13 0.44,-0.19 0.93,-0.19 -0.37,0.37 -0.56,0.8 -0.56,1.29l1.11 -0.56c1.04,-0.73 1.6,-1.23 1.6,-1.48 0,-0.68 -0.25,-1.04 -0.68,-1.04l0 -0.19 2.71 -3.46c0.8,-2.28 2.53,-3.38 5.17,-3.38 0,-0.25 0.31,-0.74 0.92,-1.48 0.62,-0.68 1.17,-1.42 1.61,-2.15 1.23,-1.91 2.7,-3.51 4.55,-4.68l0.37 -0.37c0.07,-1.42 0.19,-2.83 0.31,-4.12 0.12,-1.36 1.73,-3.51 4.75,-6.53 6.21,-6.22 9.42,-9.73 9.54,-10.47 0.74,-1.66 1.54,-3.2 2.53,-4.68 1.42,-1.79 2.22,-3.46 2.34,-4.87 0,-0.49 -0.12,-0.74 -0.37,-0.8 -0.24,-0.07 -0.36,-0.25 -0.36,-0.44 0,-3.87 1.6,-6.65 4.68,-8.31 0,-1.23 0.31,-2.15 0.92,-2.89 1.54,-2.65 2.46,-6.78 2.71,-12.45 0.12,-2.89 0.49,-5.48 1.11,-7.76l0.31 -1.29c0.49,-0.62 0.74,-1.54 0.74,-2.9l-0.19 -17.49c-0.12,-3.94 -0.68,-7.94 -1.61,-11.89 0,-0.61 0.19,-0.98 0.56,-1.17 0.37,-0.18 0.49,-0.43 0.49,-0.67 -0.19,-1.17 -0.61,-2.28 -1.23,-3.2l-0.93 0.19c-0.43,0 -1.73,-1.3 -3.75,-3.82l-3.27 -3.27c-2.89,-3.2 -5.72,-4.87 -8.5,-4.87 -1.17,-0.24 -1.97,-0.98 -2.34,-2.34 0,-0.12 -0.19,-0.36 -0.55,-0.67l-0.86 0c-0.12,0.31 -0.31,0.49 -0.56,0.49 -1.54,-0.81 -5.48,-1.49 -11.7,-1.98 -1.6,0 -2.46,0.07 -2.7,0.19 -0.25,0.13 -1.05,0.19 -2.34,0.19l-5.97 -0.73c-1.61,0 -10.97,1.23 -28.14,3.63 -16.26,3.38 -34.74,9.98 -55.43,19.83 -4.56,2.15 -7.14,3.57 -7.77,4.12 0.13,0.61 0.56,0.92 1.3,0.92 0.61,0.37 1.23,0.56 1.97,0.56l0.37 0.37c0.49,1.41 1.29,2.15 2.46,2.15 1.11,0 1.9,0.43 2.4,1.24 0.13,0.36 0.32,0.55 0.56,0.55 1.11,0.25 2.53,0.98 4.31,2.15 2.15,0.86 3.27,1.85 3.27,2.9l0 0.19 -0.56 1.48c-1.05,2.03 -1.73,4.24 -1.97,6.65 -0.37,3.51 -0.8,6.4 -1.29,8.68 -0.07,0.24 -0.13,0.49 -0.13,0.86 0,0.36 0.13,0.55 0.49,0.55l20.08 -2.34c0.8,0 1.54,0.44 2.15,1.3 2.65,4.06 4.68,9.98 6.1,17.67 1.23,4.32 2.28,6.72 3.26,7.09 0.98,0.43 1.73,0.86 2.34,1.17 -0.37,0.37 -1.78,0.98 -4.31,1.85 -0.74,0.24 -1.36,0.49 -1.78,0.86 -0.37,0 -0.56,0.24 -0.56,0.73l0.19 0.74 0.19 0c0.8,0.61 1.72,1.05 2.65,1.41 0.24,0.25 0.37,0.49 0.37,0.74 0,0.12 -0.13,0.24 -0.44,0.43 -0.31,0.19 -0.68,0.31 -1.17,0.37 -0.49,0.07 -1.04,0.19 -1.6,0.31 -0.61,0.12 -0.98,0.25 -0.98,0.44 -0.07,0.18 -0.19,0.31 -0.31,0.43l0.19 0.19c1.48,0.61 2.15,1.17 2.15,1.6 0,0.37 -0.19,0.74 -0.56,1.11 -0.31,0.36 -0.49,0.92 -0.49,1.6 -0.61,4.92 -9.3,7.89 -26,8.87 -10.96,0.73 -16.5,1.29 -16.68,1.78 -0.19,0.49 -0.37,1.11 -0.49,1.85 -0.44,3.94 -1.66,9.73 -3.58,17.3 -3.75,12.99 -6.22,21.31 -7.39,24.88 -0.73,2.28 -1.23,4.62 -1.48,7.02 -0.55,5.54 -1.53,9.73 -2.89,12.56 -1.3,2.83 -1.97,5.05 -1.97,6.59l0.18 1.78c0,1.36 -0.73,1.97 -2.15,1.97 -4.55,-0.31 -9.11,-1.42 -13.54,-3.2 -3.02,-1.23 -6.84,-2.4 -11.52,-3.63 -0.61,0 -1.24,0.12 -1.91,0.37 -0.68,0.24 -1.36,0.37 -2.09,0.37 -1.29,0 -5.17,-1.17 -11.52,-3.46 -0.61,-0.12 -1.05,-0.24 -1.36,-0.36 -0.31,-0.13 -0.49,-0.19 -0.61,-0.19 -0.12,0 -0.19,-0.25 -0.19,-0.68l0.49 -2.53c0.37,-0.37 0.61,-0.56 0.74,-0.56 0.12,0 0.18,-0.19 0.18,-0.55l-0.18 -0.74c0,-0.8 0.31,-1.24 0.92,-1.24 0.12,0.13 0.37,0.19 0.74,0.19l0.31 -0.37c-0.13,-0.24 -0.19,-0.36 -0.19,-0.43 0,-0.07 -0.19,-0.24 -0.61,-0.49 -0.44,-0.25 -0.62,-0.61 -0.62,-1.05 0,-0.61 0.74,-1.41 2.15,-2.34 0.37,-0.12 0.56,-0.43 0.56,-0.92 -0.98,-0.74 -1.48,-1.36 -1.48,-1.78 0,-0.25 0.24,-0.49 0.73,-0.74 0,-0.12 0.07,-0.19 0.19,-0.19 0.13,0 0.19,-0.12 0.25,-0.43 0.06,-0.31 0.61,-0.74 1.54,-1.17 0.24,0 0.49,-0.12 0.73,-0.37 0.25,-0.25 0.49,-0.37 0.74,-0.37l0.86 0.19c0.49,0 0.8,-0.31 0.92,-0.92 0,-0.13 -0.07,-0.25 -0.19,-0.37 -0.12,-0.12 -0.19,-0.37 -0.19,-0.68 0,-0.37 -0.19,-0.61 -0.61,-0.68 -0.44,-0.07 -0.93,-1.97 -1.54,-5.85 0,-1.17 0.68,-2.09 1.97,-2.71 0.49,0 0.86,-0.31 1.11,-0.85 0,-0.25 -0.13,-0.44 -0.25,-0.56 -0.19,-0.12 -0.37,-0.31 -0.49,-0.56 0,-0.12 0.07,-0.19 0.19,-0.24 0.12,-0.07 0.43,-0.31 0.92,-0.68 0,-0.12 -0.06,-0.25 -0.18,-0.37 -0.13,-0.07 -0.25,-0.25 -0.32,-0.49 -0.06,-0.25 -0.19,-0.49 -0.43,-0.74 0,-0.73 0.12,-1.23 0.37,-1.41 0.24,-0.25 0.49,-0.44 0.8,-0.56 0.31,-0.12 0.56,-0.31 0.8,-0.55 0.37,0 0.56,-0.19 0.56,-0.56 0,-0.37 0.12,-0.74 0.37,-1.05 0.36,0 0.55,-0.37 0.61,-1.11 0.07,-0.74 0.24,-1.36 0.49,-1.97 0,-0.37 -0.12,-0.56 -0.37,-0.62 -0.24,-0.06 -0.43,-0.12 -0.49,-0.19 -0.07,-0.06 -0.12,-0.18 -0.24,-0.31 0.24,-1.17 0.73,-2.03 1.41,-2.53 0.74,-0.49 1.11,-1.29 1.11,-2.52 -0.12,-0.13 -0.31,-0.25 -0.61,-0.44 -0.31,-0.19 -0.68,-0.43 -0.98,-0.8 0,-0.37 0.19,-0.61 0.49,-0.74l0.37 0.19c0.24,0 0.37,-0.19 0.37,-0.55 -0.49,-0.25 -0.74,-0.74 -0.74,-1.42 0,-0.49 0.44,-0.73 1.29,-0.73 0.37,-0.13 0.74,-0.98 1.05,-2.53 -0.07,0 -0.37,-0.19 -0.8,-0.56 -0.44,-0.37 -0.61,-0.68 -0.61,-0.92 0,-0.32 0.61,-0.98 1.78,-1.98 0.73,-0.24 1.41,-0.61 2.03,-1.23l0.68 -1.97c-1.05,-0.86 -1.66,-1.42 -1.79,-1.66 0.13,-0.49 0.44,-0.74 0.93,-0.74 1.04,-0.8 1.6,-1.48 1.6,-1.97 0,-0.93 -0.8,-1.42 -2.34,-1.42 -12.01,-2.28 -21.61,-6.84 -28.7,-13.54 -7.69,-7.33 -11.51,-16.76 -11.51,-28.33l0 -0.56c0.24,-15.27 8.55,-30.54 25.06,-45.82 15.76,-14.53 35.05,-27.22 57.9,-38.06 34.3,-16.39 66.02,-24.51 95.09,-24.51 19.95,0 36.95,3.94 50.87,11.89 17.61,9.85 29.5,25 35.71,45.45 2.78,9.42 4.19,19.52 4.19,30.3l0 2.53c-0.12,6.89 -0.8,13.61 -1.97,20.26 -6.04,26.18 -18.85,52.84 -38.43,79.87 -18.42,23.22 -39.29,41.51 -62.58,54.88 -23.21,13.37 -46.43,22.66 -69.53,27.96 -16.38,4 -32.08,5.97 -47.23,5.97zm4.31 -174.47c0.12,-0.12 0.31,-0.25 0.56,-0.37 0.24,-0.12 0.55,-2.22 1.04,-6.34l-0.55 0 -0.19 0.19c-2.65,2.15 -3.94,3.7 -3.94,4.56 0,1.29 1.04,1.97 3.07,1.97zm-37.75 111.29c0,-0.13 0.06,-0.19 0.19,-0.19l-0.32 -0.13 -0.18 0.32 0.31 0zm162.77 -33.01l-0.19 -0.19 0 0.19 0.19 0z"/>
   <path class="fil0" d="M1435.64 289.94c-9.55,0 -18.47,-1.85 -26.91,-5.42 -13.49,-5.91 -23.83,-15.27 -31.23,-28.14 -8.37,-14.84 -12.62,-30.3 -12.62,-46.37 -0.24,-1.24 -0.37,-2.41 -0.37,-3.63 0.13,-7.58 0.8,-14.79 2.03,-21.62 5.42,-33.68 16.75,-58.99 34.06,-75.99 0.73,-0.86 1.23,-1.79 1.48,-2.9 3.57,-14.91 8.93,-25.5 16.07,-31.72l3.95 -3.26c1.23,-1.48 2.52,-2.71 3.94,-3.82 0.73,-0.44 1.11,-0.93 1.11,-1.42l0 -1.48c0.12,-1.17 1.42,-2.15 3.82,-2.83 1.42,-0.37 3.27,-1.66 5.55,-3.82 5.05,-6.21 12.32,-9.86 21.68,-10.84 1.54,0 3.39,-0.12 5.42,-0.37 0.49,0 0.98,-0.24 1.61,-0.8 0.61,-0.55 1.48,-0.8 2.53,-0.8l1.11 0.19c1.29,0.25 2.65,0.37 3.94,0.37 3.63,0 6.9,-0.12 9.79,-0.37l0.86 0c0.86,0 1.66,0.12 2.46,0.37 0.74,0.24 2.71,0.49 5.85,0.73 0.62,0 1.11,0.07 1.61,0.19l0 -0.37c0.12,-0.24 0.19,-0.43 0.19,-0.55 0,-0.12 0,-0.25 0,-0.37l1.66 -0.19c1.04,0 2.02,0.31 2.83,0.93l0.73 0.18 1.11 0c2.28,0 5.67,1.11 10.28,3.39l11.89 5.79c1.11,0.49 2.03,1.24 2.9,2.15 0.36,0.86 0.98,1.3 1.78,1.3l0.55 0 0 -0.19 0.19 0c0.49,-0.25 0.98,-0.37 1.42,-0.37 2.4,0 4.87,1.54 7.26,4.68l0 0.37 -1.11 -0.56c-0.37,0 -0.56,0.12 -0.56,0.37l2.53 3.07c0.25,0.25 0.49,0.37 0.74,0.37l1.23 -0.56 1.11 0.93c4.67,4.31 7.01,7.7 7.01,10.1l-0.18 1.05c0,0.49 0.18,0.92 0.55,1.29 3.14,4.93 4.75,8.62 4.87,11.15l0.19 0.56c0,1.11 0.37,1.97 1.11,2.71 2.41,2.4 3.63,4.12 3.76,5.04l0.36 2.53c0.37,2.03 0.56,4.07 0.56,5.97 -0.24,4.56 -0.86,8.99 -1.78,13.37l-0.37 1.6c0,0.49 0.07,1.05 0.19,1.61 0.12,0.61 0.19,1.36 0.19,2.15l-0.19 2.22c-0.49,1.66 -0.8,3.33 -0.92,5.04 0,1.66 0.24,2.53 0.73,2.53l0.19 0 0.68 0.56c0.37,0.68 0.56,2.28 0.56,4.68 -0.25,1.9 -1.11,3.63 -2.71,5.23l-0.37 0.68 0.19 0.93c0,0.49 -0.12,0.98 -0.37,1.41 -1.29,2.65 -1.97,5.55 -1.97,8.68l-0.19 5.42c0,2.28 -0.31,4.56 -0.86,6.84 -0.24,0.62 -0.43,1.3 -0.55,2.03 -0.13,0.68 -0.62,1.42 -1.49,2.15 -0.06,0.13 -0.18,0.25 -0.24,0.44 -0.07,0.19 -0.12,0.31 -0.19,0.43 -0.07,0.12 -0.24,1.48 -0.61,4 -2.53,10.59 -6.84,21.19 -12.99,31.72l-0.93 1.29c-0.24,0.37 -0.49,0.56 -0.85,0.56l-0.93 -0.19c-0.37,0 -0.61,0.24 -0.73,0.68 -1.42,2.65 -2.16,4 -2.16,4.06 0,0.07 0,0.25 0,0.49 0,0.37 0.19,0.68 0.56,1.05l-0.56 1.66c-1.41,4.19 -4.99,10.1 -10.65,17.68l-3.94 5.05c-0.61,0.92 -1.24,1.97 -1.78,3.07 -0.86,2.41 -2.28,3.58 -4.2,3.58l-0.36 0c-0.49,0 -0.81,0.18 -1.05,0.55l-0.37 0.56c0,0.24 0.07,0.43 0.25,0.61 0.19,0.19 0.31,0.31 0.31,0.44l-1.48 1.29 -3.95 4.31c-2.02,2.77 -4.5,5.17 -7.2,7.21 -0.62,0.37 -1.11,0.98 -1.48,1.85l-0.74 0.85 -0.19 0c-1.66,1.73 -3.51,3.08 -5.55,4.19 -1.36,0.56 -2.58,1.36 -3.82,2.34 -10.71,8.5 -22.41,13.49 -35.17,14.96 -4.92,0.74 -9.18,1.11 -12.62,1.11zm1.42 -47.48c4.12,0 8.74,-1.24 13.91,-3.63 3.94,-1.91 7.7,-4.19 11.15,-6.84 14.11,-10.47 24.76,-24.51 31.96,-42.19 7.7,-18.29 12.94,-36.27 15.71,-53.95 0.74,-4.5 1.11,-9.06 1.24,-13.74l0 -1.29c0,-5.97 -0.81,-11.08 -2.53,-15.34 -1.66,-4.19 -5.17,-7.82 -10.47,-10.77 -5.73,-2.9 -12.99,-4.37 -21.8,-4.37 -2.41,0 -4.44,0.25 -6.17,0.74 -3.94,1.23 -5.91,2.34 -5.91,3.45 0,0.43 0.07,0.74 0.19,0.86l0.19 3.82c0,4.06 -1.97,9.18 -5.79,15.34 -1.91,3.82 -2.96,6.77 -3.08,8.81l0 0.19 -0.37 0 -0.73 -0.49c-0.44,-0.86 -1.11,-1.29 -1.97,-1.29 -0.37,0.12 -0.68,0.36 -0.86,0.73l0 1.05c-0.13,0.37 -0.19,1.05 -0.19,2.03 0,0.24 -0.19,0.31 -0.56,0.31 -0.12,0 -0.24,0 -0.37,0 -0.12,0 -0.24,0 -0.24,-0.07 -0.07,-0.06 -0.19,-0.12 -0.31,-0.24 -0.13,-0.13 -0.25,-0.19 -0.37,-0.19 -0.25,0 -0.37,0.19 -0.37,0.49l0 0.73c0,0.49 -0.56,1.61 -1.78,3.27 0,0.37 -0.44,0.92 -1.24,1.6 -0.86,1.61 -1.54,2.53 -2.09,2.83 -0.56,0.31 -0.8,0.98 -0.8,2.03 -0.25,2.09 -0.44,6.4 -0.56,12.99l0 1.85c0,10.9 2.09,20.32 6.28,28.14l0.74 1.23c0.49,1.24 0.73,2.41 0.73,3.64l0 0.68c0,1.35 -0.19,2.4 -0.55,3.07 -1.17,2.03 -2.65,4.12 -4.44,6.16 -1.72,2.03 -4,3.39 -6.77,3.94 -2.15,0.49 -4.07,1.85 -5.73,4 -1.11,1.05 -2.28,1.98 -3.63,2.71 -0.86,0.37 -1.23,0.98 -1.23,1.97l0 0.56c0,1.54 0.31,3.39 1.04,5.6l0.19 1.97c-0.12,2.9 -1.54,5.73 -4.31,8.5 -0.37,0.44 -0.86,0.86 -1.48,1.24l-3.76 4.31c-0.12,0.25 -0.36,0.37 -0.73,0.37 -0.37,0 -0.86,-0.43 -1.42,-1.24 -0.12,-0.12 -0.24,-0.31 -0.36,-0.55 -0.13,-0.25 -0.32,-0.56 -0.44,-0.93 -0.19,-0.37 -0.55,-0.73 -1.04,-1.04l-0.19 0 0 0.18c2.77,8.75 8.18,14.17 16.26,16.2 1.73,0.37 3.39,0.56 5.05,0.56zm188.76 47.48c-9.55,0 -18.47,-1.85 -26.92,-5.42 -13.49,-5.91 -23.83,-15.27 -31.22,-28.14 -8.38,-14.84 -12.62,-30.3 -12.62,-46.37 -0.25,-1.24 -0.37,-2.41 -0.37,-3.63 0.12,-7.58 0.8,-14.79 2.03,-21.62 5.42,-33.68 16.75,-58.99 34.05,-75.99 0.74,-0.86 1.24,-1.79 1.48,-2.9 3.58,-14.91 8.94,-25.5 16.08,-31.72l3.94 -3.26c1.24,-1.48 2.53,-2.71 3.94,-3.82 0.74,-0.44 1.11,-0.93 1.11,-1.42l0 -1.48c0.12,-1.17 1.41,-2.15 3.82,-2.83 1.41,-0.37 3.26,-1.66 5.55,-3.82 5.04,-6.21 12.32,-9.86 21.67,-10.84 1.54,0 3.39,-0.12 5.42,-0.37 0.49,0 0.98,-0.24 1.6,-0.8 0.62,-0.55 1.48,-0.8 2.53,-0.8l1.11 0.19c1.3,0.25 2.65,0.37 3.95,0.37 3.63,0 6.89,-0.12 9.79,-0.37l0.86 0c0.86,0 1.66,0.12 2.46,0.37 0.74,0.24 2.71,0.49 5.85,0.73 0.61,0 1.11,0.07 1.6,0.19l0 -0.37c0.12,-0.24 0.19,-0.43 0.19,-0.55 0,-0.12 0,-0.25 0,-0.37l1.66 -0.19c1.05,0 2.03,0.31 2.83,0.93l0.74 0.18 1.11 0c2.28,0 5.67,1.11 10.28,3.39l11.89 5.79c1.11,0.49 2.03,1.24 2.9,2.15 0.36,0.86 0.98,1.3 1.78,1.3l0.55 0 0 -0.19 0.19 0c0.49,-0.25 0.98,-0.37 1.42,-0.37 2.4,0 4.87,1.54 7.26,4.68l0 0.37 -1.11 -0.56c-0.37,0 -0.56,0.12 -0.56,0.37l2.53 3.07c0.25,0.25 0.49,0.37 0.74,0.37l1.23 -0.56 1.11 0.93c4.67,4.31 7.01,7.7 7.01,10.1l-0.18 1.05c0,0.49 0.18,0.92 0.55,1.29 3.14,4.93 4.75,8.62 4.87,11.15l0.19 0.56c0,1.11 0.37,1.97 1.11,2.71 2.41,2.4 3.63,4.12 3.76,5.04l0.36 2.53c0.37,2.03 0.56,4.07 0.56,5.97 -0.24,4.56 -0.86,8.99 -1.78,13.37l-0.37 1.6c0,0.49 0.07,1.05 0.19,1.61 0.12,0.61 0.19,1.36 0.19,2.15l-0.19 2.22c-0.49,1.66 -0.8,3.33 -0.92,5.04 0,1.66 0.24,2.53 0.73,2.53l0.19 0 0.68 0.56c0.37,0.68 0.56,2.28 0.56,4.68 -0.25,1.9 -1.11,3.63 -2.71,5.23l-0.37 0.68 0.19 0.93c0,0.49 -0.12,0.98 -0.37,1.41 -1.29,2.65 -1.97,5.55 -1.97,8.68l-0.19 5.42c0,2.28 -0.31,4.56 -0.86,6.84 -0.24,0.62 -0.43,1.3 -0.55,2.03 -0.13,0.68 -0.62,1.42 -1.49,2.15 -0.06,0.13 -0.18,0.25 -0.24,0.44 -0.07,0.19 -0.12,0.31 -0.19,0.43 -0.07,0.12 -0.24,1.48 -0.61,4 -2.53,10.59 -6.84,21.19 -12.99,31.72l-0.93 1.29c-0.24,0.37 -0.49,0.56 -0.85,0.56l-0.93 -0.19c-0.37,0 -0.61,0.24 -0.73,0.68 -1.42,2.65 -2.16,4 -2.16,4.06 0,0.07 0,0.25 0,0.49 0,0.37 0.19,0.68 0.56,1.05l-0.56 1.66c-1.41,4.19 -4.99,10.1 -10.65,17.68l-3.94 5.05c-0.61,0.92 -1.24,1.97 -1.78,3.07 -0.86,2.41 -2.28,3.58 -4.19,3.58l-0.37 0c-0.49,0 -0.8,0.18 -1.05,0.55l-0.36 0.56c0,0.24 0.06,0.43 0.24,0.61 0.19,0.19 0.31,0.31 0.31,0.44l-1.48 1.29 -3.94 4.31c-2.03,2.77 -4.5,5.17 -7.21,7.21 -0.61,0.37 -1.11,0.98 -1.48,1.85l-0.74 0.85 -0.18 0c-1.66,1.73 -3.51,3.08 -5.55,4.19 -1.36,0.56 -2.59,1.36 -3.82,2.34 -10.72,8.5 -22.42,13.49 -35.17,14.96 -4.93,0.74 -9.18,1.11 -12.62,1.11zm1.41 -47.48c4.12,0 8.75,-1.24 13.92,-3.63 3.94,-1.91 7.69,-4.19 11.15,-6.84 14.1,-10.47 24.75,-24.51 31.96,-42.19 7.7,-18.29 12.93,-36.27 15.71,-53.95 0.73,-4.5 1.11,-9.06 1.23,-13.74l0 -1.29c0,-5.97 -0.8,-11.08 -2.53,-15.34 -1.66,-4.19 -5.17,-7.82 -10.47,-10.77 -5.72,-2.9 -12.99,-4.37 -21.8,-4.37 -2.41,0 -4.43,0.25 -6.16,0.74 -3.94,1.23 -5.92,2.34 -5.92,3.45 0,0.43 0.07,0.74 0.19,0.86l0.19 3.82c0,4.06 -1.97,9.18 -5.79,15.34 -1.91,3.82 -2.95,6.77 -3.07,8.81l0 0.19 -0.37 0 -0.74 -0.49c-0.43,-0.86 -1.11,-1.29 -1.97,-1.29 -0.37,0.12 -0.68,0.36 -0.86,0.73l0 1.05c-0.12,0.37 -0.19,1.05 -0.19,2.03 0,0.24 -0.19,0.31 -0.55,0.31 -0.13,0 -0.25,0 -0.37,0 -0.12,0 -0.25,0 -0.25,-0.07 -0.06,-0.06 -0.19,-0.12 -0.31,-0.24 -0.12,-0.13 -0.24,-0.19 -0.37,-0.19 -0.24,0 -0.36,0.19 -0.36,0.49l0 0.73c0,0.49 -0.56,1.61 -1.79,3.27 0,0.37 -0.43,0.92 -1.23,1.6 -0.86,1.61 -1.54,2.53 -2.1,2.83 -0.55,0.31 -0.8,0.98 -0.8,2.03 -0.24,2.09 -0.43,6.4 -0.56,12.99l0 1.85c0,10.9 2.1,20.32 6.29,28.14l0.73 1.23c0.49,1.24 0.74,2.41 0.74,3.64l0 0.68c0,1.35 -0.19,2.4 -0.56,3.07 -1.17,2.03 -2.65,4.12 -4.43,6.16 -1.73,2.03 -4,3.39 -6.78,3.94 -2.15,0.49 -4.06,1.85 -5.72,4 -1.11,1.05 -2.28,1.98 -3.63,2.71 -0.86,0.37 -1.24,0.98 -1.24,1.97l0 0.56c0,1.54 0.31,3.39 1.05,5.6l0.19 1.97c-0.13,2.9 -1.54,5.73 -4.31,8.5 -0.37,0.44 -0.86,0.86 -1.49,1.24l-3.75 4.31c-0.12,0.25 -0.37,0.37 -0.74,0.37 -0.36,0 -0.85,-0.43 -1.41,-1.24 -0.12,-0.12 -0.25,-0.31 -0.37,-0.55 -0.12,-0.25 -0.31,-0.56 -0.43,-0.93 -0.19,-0.37 -0.56,-0.73 -1.05,-1.04l-0.19 0 0 0.18c2.77,8.75 8.19,14.17 16.26,16.2 1.73,0.37 3.39,0.56 5.05,0.56z"/>
   <path class="fil0" d="M1909.62 316.05l-0.74 0c-0.19,-0.25 -0.36,-0.37 -0.49,-0.49 -0.12,-0.12 -0.24,-0.31 -0.36,-0.56 -0.74,-1.11 -1.54,-2.09 -2.34,-3.07l-0.19 -0.93c0,-0.36 0.06,-0.61 0.19,-0.8 0.12,-0.19 0.24,-0.31 0.36,-0.43l0 -0.56 -0.36 -0.19c-0.13,0.12 -0.25,0.25 -0.32,0.37 -0.06,0.12 -0.12,0.19 -0.24,0.24 -0.12,0.07 -0.31,0.13 -0.56,0.13l-0.73 -0.19 -0.13 -0.56 0.13 -0.37 -0.13 -0.19 0.13 0.19c-0.07,-0.12 -0.25,-0.19 -0.44,-0.24 -0.19,-0.07 -0.31,-0.12 -0.43,-0.19 -0.13,-0.07 -0.2,-0.25 -0.2,-0.43 0,-0.25 0.2,-0.56 0.57,-0.93l0.19 0 0.31 -0.56c0,-0.61 -0.19,-0.92 -0.68,-0.92l-1.86 0.56c-1.17,0 -1.9,-0.98 -2.15,-3.02 -0.12,-0.37 -0.19,-1.05 -0.24,-1.91 -0.07,-0.92 -0.49,-1.36 -1.36,-1.36l-1.48 0c-0.93,0 -1.42,-0.61 -1.42,-1.85 0,-0.55 -0.12,-0.98 -0.37,-1.23 -0.24,-0.25 -0.36,-0.61 -0.36,-1.11 0,-0.24 0.06,-0.36 0.19,-0.49 0,-1.11 -0.13,-1.9 -0.37,-2.34 0,-0.49 0.31,-1.11 0.92,-1.84l0 -0.56c-0.49,-0.44 -1.11,-0.68 -1.78,-0.68 -0.37,-0.25 -0.56,-0.56 -0.56,-0.8 0,-0.31 -0.12,-0.49 -0.36,-0.49 -0.25,0 -0.37,0.12 -0.37,0.31 0,0.12 -0.07,0.37 -0.19,0.61 -0.12,0.25 -0.25,0.37 -0.37,0.37l-7.21 -4.37c-1.29,-0.68 -1.97,-1.97 -1.97,-3.75 0,-0.86 -0.24,-1.61 -0.73,-2.15 -0.13,-0.25 -0.44,-0.37 -0.86,-0.37 0,0.12 -0.12,0.19 -0.31,0.19 -0.19,0 -0.32,0.06 -0.44,0.19l0 -0.19 -0.37 -0.19 0.19 -0.74c0,-0.61 -0.06,-0.98 -0.19,-1.17 -0.12,-0.18 -0.61,-0.24 -1.41,-0.24 -1.36,0 -2.22,-0.74 -2.53,-2.15 0,-1.61 -0.07,-2.46 -0.19,-2.65 -0.12,-0.19 -0.24,-0.31 -0.37,-0.44 -0.61,0 -0.92,-0.43 -0.98,-1.17 -0.06,-0.8 -0.49,-1.36 -1.29,-1.66 -0.73,-0.31 -1.41,-0.86 -1.9,-1.72 0,-0.07 -0.07,-0.19 -0.13,-0.25 -0.12,-0.06 -0.24,-0.12 -0.31,-0.24 -0.06,-0.13 -0.19,-0.19 -0.43,-0.19 -0.13,0 -0.31,0.06 -0.56,0.19 -0.24,0.12 -0.37,0.19 -0.43,0.19 -0.07,0 -0.19,0 -0.32,0l-0.18 0c-0.13,0 -0.19,-0.07 -0.25,-0.19 -0.07,-0.13 -0.12,-0.19 -0.24,-0.19 -0.74,-0.86 -1.11,-1.36 -1.11,-1.48 0,-0.13 -0.19,-0.68 -0.55,-1.79 -0.25,-0.73 -0.56,-1.23 -0.99,-1.6 -0.43,-0.37 -0.73,-0.74 -0.92,-0.98 -0.12,-0.31 -0.31,-0.56 -0.43,-0.68 -0.25,0 -0.49,0.12 -0.74,0.31 -0.19,0.19 -0.49,0.31 -0.8,0.43 -0.31,0.13 -0.49,0.19 -0.61,0.19 -0.25,0 -0.44,-0.06 -0.62,-0.19 -0.19,-0.12 -0.31,-0.36 -0.31,-0.73 0.12,-0.12 0.31,-0.25 0.49,-0.43 0.19,-0.19 0.25,-0.32 0.25,-0.44l-0.19 -0.37 -0.74 0c-0.12,0.13 -0.19,0.19 -0.31,0.25 -0.12,0.06 -0.31,0.12 -0.56,0.12l-0.19 0c-1.11,-0.61 -1.66,-1.17 -1.66,-1.66l0.37 -0.68 0 -0.56c0,-0.12 -0.37,-0.49 -1.04,-1.11 -0.37,-0.24 -0.62,-0.56 -0.74,-0.98 -0.12,-0.43 -0.37,-0.61 -0.74,-0.61l-0.18 0c-0.13,0.12 -0.25,0.19 -0.32,0.19 -0.12,0 -0.31,0.06 -0.55,0.19 -0.25,0.12 -0.68,0.18 -1.3,0.18 -0.61,-0.36 -1.04,-1.48 -1.41,-3.26 -0.37,-1.78 -0.61,-2.83 -0.61,-2.95 -0.07,-0.19 -0.19,-0.37 -0.37,-0.49 -0.19,-0.13 -0.37,-0.25 -0.56,-0.44 -0.19,-0.19 -0.37,-0.55 -0.55,-1.11 -0.19,-0.56 -0.5,-0.8 -0.99,-0.8 -0.49,0 -0.85,0.19 -1.11,0.43 -0.19,0.31 -0.8,0.49 -1.78,0.49 -0.49,-0.24 -0.74,-0.55 -0.74,-0.92l0 -0.19 0.19 -1.05c0,-0.37 -0.06,-0.61 -0.19,-0.73 -0.55,-1.11 -1.11,-1.73 -1.53,-1.91 -0.37,-0.19 -0.99,-0.24 -1.67,-0.24 -2.09,0 -3.38,-0.68 -3.99,-1.98 -0.13,-0.49 -0.44,-0.8 -0.86,-0.92 -3.02,-1.24 -5.36,-3.2 -7.09,-5.97 -0.24,-0.49 -0.43,-0.86 -0.61,-1.05 -0.19,-0.24 -0.31,-0.49 -0.37,-0.68 -0.06,-0.19 -0.06,-0.37 -0.06,-0.61 0,-0.25 0.06,-0.44 0.18,-0.61 0.13,-0.19 0.19,-0.37 0.19,-0.44l0.19 -0.56c0,-0.12 -0.12,-0.24 -0.31,-0.36 -0.19,-0.13 -0.37,-0.25 -0.61,-0.37l0 -0.19 -0.37 0c-0.25,0.37 -0.93,0.56 -1.97,0.56l-0.56 0.36c-0.73,3.46 -1.6,6.9 -2.71,10.29 -1.11,3.33 -2.09,6.77 -3.07,10.28 -3.2,11.15 -5.29,19.83 -6.1,25.99 -0.61,3.45 -1.35,6.96 -2.21,10.47l-1.05 5.17c-0.99,4.75 -1.66,7.26 -2.15,7.64 -1.61,4.68 -2.41,9.06 -2.53,13.12l0.19 0.56c0,1.91 -0.81,3.14 -2.28,3.7 -1.48,0.56 -3.75,0.8 -6.77,0.8 -3.26,0 -5.97,-0.37 -8.19,-1.17 -2.22,-0.73 -4.56,-1.17 -6.96,-1.17 -2.53,-0.37 -4.44,-0.49 -5.79,-0.49 -0.93,0 -1.73,0.25 -2.34,0.86 -0.25,0 -0.37,0.12 -0.37,0.37 -1.17,1.23 -2.77,1.78 -4.68,1.78 -3.58,0 -7.94,-0.37 -12.99,-1.05 -0.49,0 -0.68,-0.31 -0.68,-0.92l0 -0.19c0.12,-0.12 0.12,-0.31 0.12,-0.56 0.98,-4.92 2.15,-7.45 3.46,-7.57 0.12,0 0.24,-0.19 0.36,-0.49l0.19 0 0 -0.19 -0.19 0 0 0.19c-0.98,0 -1.41,-0.56 -1.41,-1.66 0,-0.37 0.19,-0.74 0.68,-1.05l0.19 0 0.19 -0.37c-0.13,0 -0.25,-0.06 -0.37,-0.19 -0.12,-0.12 -0.25,-0.31 -0.37,-0.55l0 -0.37 0.19 -0.37 0.56 -0.19 0.36 0.19 0.74 0 0.68 -0.86c0,-0.49 -0.07,-0.8 -0.12,-0.92 -0.74,-0.37 -1.24,-0.68 -1.48,-0.93 -0.25,-0.19 -0.37,-0.49 -0.37,-0.86 0.12,-1.6 0.98,-3.33 2.53,-5.23 0.24,-0.37 0.49,-0.68 0.73,-0.98 0.25,-0.31 0.44,-0.56 0.61,-0.74 0.19,-0.19 0.32,-0.37 0.32,-0.61 0,-0.25 -0.13,-0.56 -0.37,-0.8 -0.25,-0.31 -0.56,-0.68 -0.8,-1.11 -0.32,-0.43 -0.56,-0.73 -0.68,-0.98l0 -0.73c0,-0.37 0.43,-0.98 1.29,-1.78 0.49,-0.5 0.68,-0.86 0.68,-1.11 0,-0.8 0.19,-1.36 0.49,-1.6 0.31,-0.25 0.56,-0.49 0.8,-0.74 0.25,-0.24 0.49,-0.43 0.8,-0.61 0.31,-0.19 0.56,-0.56 0.74,-1.11 0.19,-0.49 0.8,-0.81 1.9,-0.81l0.19 0c0.31,-0.36 0.49,-0.61 0.49,-0.73 0,-0.8 0,-1.42 -0.06,-1.66 -0.07,-0.31 -0.07,-0.62 -0.07,-0.86 0,-0.43 0.19,-0.92 0.68,-1.42 0.12,0 0.19,-0.06 0.19,-0.18 0,-0.13 -0.07,-0.25 -0.19,-0.37l-0.19 0c-0.24,0.24 -0.56,0.37 -1.05,0.37l-0.36 -0.19 0 -11.33c0,-1.97 0.68,-3.39 1.97,-4.37 1.36,-0.92 2.03,-1.97 2.15,-3.08l0 -0.31 -0.19 0c-0.25,-0.36 -0.61,-0.73 -1.05,-1.11l0 -0.19c0.12,0 0.19,-0.07 0.19,-0.19l0 -0.19c1.17,-0.61 1.78,-0.92 1.78,-1.04 0,-0.62 -0.06,-1.05 -0.12,-1.17 -0.06,-0.19 -0.12,-0.37 -0.24,-0.49l0 -0.19c-0.37,-0.68 -0.56,-1.42 -0.56,-2.15 0,-1.05 0.8,-2.34 2.34,-3.76 0.24,-0.24 0.49,-0.49 0.68,-0.68 0.19,-0.19 0.31,-0.31 0.43,-0.43 0.12,-0.12 0.25,-0.37 0.37,-0.74 -0.12,-0.24 -0.19,-0.49 -0.19,-0.86 0,-0.12 0,-0.24 0.07,-0.31 0.06,-0.06 0.31,-0.31 0.73,-0.8 0.44,-0.49 0.62,-1.54 0.62,-3.26 0,-0.56 0.19,-1.11 0.55,-1.54 0.37,-0.37 0.56,-0.8 0.62,-1.17 0.06,-0.31 0.12,-0.56 0.12,-0.68 0,-0.12 -0.07,-0.24 -0.12,-0.31 -0.07,-0.07 -0.19,-0.19 -0.44,-0.44 -0.49,0 -0.73,-0.31 -0.73,-0.92l0.36 -1.24c0,-0.85 0.19,-1.48 0.44,-1.9 0.31,-0.44 0.68,-0.93 1.05,-1.54 0.92,-0.98 1.53,-2.03 1.78,-3.26 0,-0.68 0.12,-1.17 0.43,-1.42 0.31,-0.24 0.49,-0.43 0.49,-0.55 -0.12,-0.13 -0.24,-0.19 -0.31,-0.25 -0.07,-0.07 -0.37,-0.31 -0.98,-0.74 -0.61,-0.43 -0.92,-0.85 -0.92,-1.35 0,-0.62 0.24,-0.93 0.73,-0.93l0.74 0c0,0.12 0.06,0.19 0.19,0.19 0.12,-0.12 0.18,-0.19 0.24,-0.31 0.07,-0.12 0.19,-0.19 0.31,-0.19l0 -0.37 -0.55 -0.55c-0.49,-0.13 -0.74,-0.81 -0.74,-1.98 0.12,-0.98 0.74,-1.6 1.78,-1.85l0.74 -0.31c0,-1.85 0.43,-3.07 1.29,-3.82l0.19 -0.37c0,-0.24 -0.19,-0.43 -0.56,-0.61 -0.36,-0.19 -0.73,-0.68 -1.11,-1.54 -0.12,-0.24 -0.19,-0.55 -0.19,-0.92 0.49,-1.29 1.29,-2.41 2.34,-3.2l0 -0.19 1.48 -1.48c0.25,0 0.61,-0.43 1.24,-1.23 0.24,-0.37 0.37,-0.81 0.37,-1.3 0,-0.49 0.06,-0.8 0.18,-1.04 0.13,-0.25 0.25,-0.49 0.37,-0.74l-0.92 -0.92c-2.03,-1.91 -4,-4 -5.92,-6.29 -6.28,-6.03 -11.33,-10.52 -15.21,-13.54 -1.66,-1.17 -3.2,-2.47 -4.68,-3.82l-2.71 -2.15c-3.45,-2.96 -8.13,-7.51 -14.04,-13.5l-0.73 -0.92 0 -0.74c0.61,-1.53 4.99,-6.89 13.18,-16 2.4,-2.47 3.87,-4.68 4.5,-6.72 0.24,-0.12 0.68,-0.19 1.29,-0.19 0.12,0.12 0.37,0.19 0.68,0.19 1.11,0 1.9,-0.8 2.4,-2.34 0.31,-0.86 0.68,-1.24 1.05,-1.24l0.56 0.13 0.92 0c0.12,0 0.19,-0.13 0.31,-0.49 0.25,-0.99 1.11,-1.98 2.53,-2.9l0.93 -0.74c1.23,-1.17 2.4,-1.78 3.63,-1.78 1.41,0 2.71,0.74 3.75,2.34 3.88,4.56 7.58,7.76 11.21,9.55 2.9,1.66 6.09,4.06 9.73,7.02 0.36,0.24 0.55,0.43 0.61,0.49 0.06,0.06 0.24,0.06 0.49,0.06 0,-0.24 0.07,-0.49 0.24,-0.8 0.19,-0.31 0.32,-0.61 0.44,-0.92 0.12,-0.32 0.19,-0.49 0.19,-0.62l-0.19 0c-0.12,-0.24 -0.19,-0.61 -0.19,-1.04 0,-0.62 0.31,-1.36 0.92,-2.22 0.37,-0.37 0.56,-0.8 0.56,-1.42 0.37,-4.18 1.17,-7.69 2.53,-10.47 0.49,-1.11 2.22,-7.02 5.23,-17.85 1.18,-4.07 1.98,-6.41 2.35,-6.84l-0.19 -0.56c0,0.12 0.07,0.19 0.19,0.19l-0.19 0c-0.49,0.24 -1.05,0.61 -1.6,1.04 -5.68,4.93 -11.03,10.35 -16.08,16.26l-2.15 2.53c-0.37,0.73 -0.93,1.11 -1.66,1.11 -0.44,0 -0.81,-0.12 -1.05,-0.37l-0.37 0c-4.56,-1.97 -8.81,-4.19 -12.62,-6.71l-6.9 -4.32c-0.92,-0.61 -1.97,-0.92 -3.02,-0.92l-2.15 0.19 0 -0.86c0.07,-0.24 0.25,-0.61 0.44,-0.98 0.19,-0.43 0.24,-1.05 0.24,-1.73 0,-0.98 -0.86,-1.48 -2.7,-1.48l-0.86 0.19c-0.37,0 -0.62,-0.12 -0.68,-0.43 -0.07,-0.31 -0.07,-0.49 -0.07,-0.62l1.05 -1.85c0,-0.12 0,-0.24 -0.07,-0.31 -0.06,-0.12 -0.31,-0.19 -0.8,-0.19l-1.11 0.19c-0.37,0 -0.56,-0.12 -0.68,-0.31 -0.13,-0.19 -0.19,-0.31 -0.19,-0.43 -0.37,-0.74 -0.98,-1.54 -1.85,-2.34 -0.8,-0.86 -1.24,-1.97 -1.24,-3.27 0,-1.41 0.56,-3.07 1.61,-4.86 1.11,-1.79 3.14,-4.19 6.16,-7.21 12.86,-13.37 22.72,-22.85 29.56,-28.52 10.23,-8.31 22.91,-15.64 38.06,-22.05l0.19 0c1.11,-0.24 1.91,-1.17 2.34,-2.89 0.25,-0.31 0.93,-0.49 2.03,-0.49 1.29,0.24 2.28,0.37 2.9,0.37l1.6 -0.19c2.53,-0.98 4.56,-1.66 6.16,-2.03 11.89,-3.7 23.89,-5.55 36.09,-5.55 23.41,0 43.36,7.09 59.68,21.25l0.93 0.92c7.08,6.04 12.5,13.86 16.26,23.46 3.7,9.6 5.67,20.51 5.92,32.64 -0.49,22.11 -8.38,42.8 -23.65,62.08 -5.73,7.21 -12.32,13.8 -19.65,19.65l-1.24 1.11c-5.05,4.19 -10.71,7.82 -17,10.84 -9.12,4.55 -19.52,8.43 -31.23,11.7 -0.24,0 -0.43,0.06 -0.61,0.18 -0.19,0.13 -0.37,0.25 -0.61,0.37l0.73 0.74c4.68,4.06 11.95,10.84 21.8,20.38l3.82 3.95c0.44,0.24 2.47,2.4 5.92,6.46 0.86,0.86 2.9,3.07 6.04,6.59 3.2,3.58 6.53,6.97 10.04,10.23 2.53,2.41 4.87,4.87 7.02,7.39l2.34 2.52c1.6,1.66 2.95,3.51 4.18,5.42 3.02,4.68 5.73,7.94 8.26,9.73 0.12,0 0.19,0.07 0.19,0.19 0.86,0.49 1.29,1.17 1.29,1.98 0,0.49 -0.31,1.23 -0.92,2.15 -2.66,3.87 -5.85,7.14 -9.73,9.79 -2.15,1.29 -4.12,2.77 -5.85,4.37 -1.73,1.66 -2.95,2.7 -3.7,3.2l-0.36 0.37c-0.74,0 -1.17,0.8 -1.3,2.41 -0.12,1.66 -0.49,2.83 -1.23,3.63 -0.74,0.73 -1.42,1.54 -1.97,2.22l-3.46 3.07c-2.89,2.41 -4.5,3.76 -4.8,4.07 -0.24,0.31 -0.56,0.49 -0.8,0.61zm-55.37 -154.39c0.49,-0.12 0.86,-0.19 1.23,-0.19 0.37,0 0.62,-0.07 0.68,-0.12 0.07,-0.07 0.13,-0.12 0.25,-0.25l0 -0.37c0.12,-0.12 0.19,-0.24 0.19,-0.36 0,-0.13 0,-0.31 0.06,-0.56 0.07,-0.24 0.25,-0.37 0.49,-0.37 0.13,0 0.44,0.19 0.99,0.56 0.55,0.37 1.04,0.56 1.53,0.56 0.25,0 0.93,-0.56 2.03,-1.73 1.17,-1.11 2.65,-1.73 4.43,-1.73 1.61,0 3.08,0.13 4.5,0.37l0.56 0c0.37,0 0.68,-0.19 0.93,-0.56 0.24,-0.31 0.55,-0.49 0.85,-0.49l1.11 0.13c1.11,0 2.03,-0.32 2.89,-1.05l0.56 -0.37c0.68,-0.61 1.42,-0.98 2.03,-1.11 0.68,-0.07 1.17,-0.19 1.54,-0.31 0.36,-0.13 0.68,-0.37 0.92,-0.74l-0.19 -1.29c0,-0.31 0.19,-0.56 0.56,-0.68 0.37,-0.12 0.68,-0.19 0.98,-0.19 0.31,0 0.43,-0.12 0.43,-0.37 0.37,-0.37 1.54,-0.73 3.46,-1.11 1.29,-0.25 2.46,-0.74 3.45,-1.6 0.12,-0.13 0.31,-0.19 0.68,-0.25 0.37,-0.07 0.56,-0.37 0.56,-0.86l0 -1.05c0,-0.36 0.43,-1.29 1.29,-2.7 0.24,-0.49 0.55,-0.74 1.04,-0.74 0.13,0.12 0.19,0.31 0.19,0.56 0,0.24 0.25,0.37 0.74,0.37 0.49,0 0.8,-0.13 0.86,-0.37l0 -0.19 -0.31 -1.29c0.8,-1.79 1.66,-2.65 2.52,-2.65l1.42 0.31 0.56 -0.19c0.12,0 0.18,-0.07 0.18,-0.12 0.25,-0.25 0.44,-0.56 0.62,-0.86 0.19,-0.31 0.43,-0.62 0.8,-0.98 0.37,-0.37 0.86,-0.68 1.49,-0.86l0.49 -0.37 -0.49 -2.9c0,-0.98 0.98,-1.84 3.07,-2.7 1.05,-0.62 2.15,-1.24 3.33,-1.79 1.11,-0.61 1.85,-1.35 2.22,-2.21 0.12,-0.31 0.31,-0.62 0.56,-0.86 0.24,-0.25 0.43,-0.49 0.61,-0.74 0.19,-0.24 0.43,-0.49 0.68,-0.8 0.19,-0.31 0.31,-0.61 0.31,-0.98 -0.12,-0.24 -0.37,-0.49 -0.8,-0.73 -0.44,-0.25 -0.62,-0.81 -0.62,-1.61 0,-0.86 0.37,-1.48 1.11,-1.85 1.29,-0.55 2.03,-1.04 2.15,-1.41l0.37 -0.56c0.8,-0.8 1.23,-1.73 1.23,-2.71l-0.55 -2.15c0,-0.73 -0.07,-1.36 -0.19,-1.97 0,-1.48 0.31,-2.58 0.92,-3.45 0.25,-0.25 0.37,-1.29 0.37,-3.27l0 -2.83c0.12,-5.29 0.56,-8.43 1.23,-9.42 0.13,-0.25 0.44,-0.43 0.93,-0.61 0.49,-0.19 0.73,-0.44 0.73,-0.8 0,-0.86 -0.43,-1.3 -1.29,-1.3 -0.8,0 -1.48,-1.11 -1.97,-3.38 0,-0.25 -0.24,-0.98 -0.73,-2.15 -0.5,-1.24 -0.99,-1.98 -1.61,-2.22l-0.37 -0.19 0.19 -0.37 0.19 -0.49c-0.24,-0.37 -0.73,-0.73 -1.41,-1.11 -0.74,-0.37 -1.48,-0.86 -2.22,-1.42 -0.12,0 -0.25,-0.06 -0.43,-0.19 -0.19,-0.12 -0.44,-0.31 -0.74,-0.49 -0.31,-0.12 -0.56,-0.24 -0.86,-0.24 -0.31,0 -0.56,-0.07 -0.73,-0.19 -0.19,-0.12 -0.32,-0.19 -0.44,-0.19 -1.11,-1.05 -1.78,-1.66 -2.03,-1.78 -0.24,-0.12 -0.43,-0.19 -0.68,-0.25 -0.24,-0.06 -0.49,-0.19 -0.73,-0.31 -3.27,-0.98 -6.53,-2.03 -9.73,-3.26 -1.61,-0.68 -4.5,-1.17 -8.87,-1.42 -8.19,0 -13.18,0.31 -14.96,0.93 -0.49,0 -0.93,0.86 -1.24,2.7 -1.11,5.98 -2.53,11.33 -4.37,16.01 -5.17,16.51 -10.16,32.95 -14.97,49.45 -2.89,10.23 -5.42,17.81 -7.57,22.73l-0.37 1.29 0 0.19 0.37 0.19c0.86,-0.12 1.66,-0.37 2.46,-0.68 0.74,-0.31 1.6,-0.43 2.59,-0.43 1.23,0 2.46,0.24 3.82,0.73 0.43,0.25 0.92,0.37 1.41,0.37l0.56 0z"/>
  </g>
 </g>
</svg>
