<svg width="30" height="30" viewBox="0 0 30 30" fill="none" xmlns="http://www.w3.org/2000/svg">
<path opacity="0.5" d="M9.05627 2.5H20.9437C22.3923 2.5 23.1166 2.5 23.7008 2.70326C24.8085 3.08869 25.6782 3.98399 26.0526 5.12433C26.25 5.72568 26.25 6.47131 26.25 7.96258V25.4677C26.25 26.5405 25.0188 27.1097 24.2399 26.397C23.7823 25.9783 23.0927 25.9783 22.6351 26.397L22.0312 26.9496C21.2293 27.6835 20.0207 27.6835 19.2188 26.9496C18.4168 26.2157 17.2082 26.2157 16.4062 26.9496C15.6043 27.6835 14.3957 27.6835 13.5938 26.9496C12.7918 26.2157 11.5832 26.2157 10.7812 26.9496C9.97927 27.6835 8.77073 27.6835 7.96875 26.9496L7.36488 26.397C6.90728 25.9783 6.21772 25.9783 5.76012 26.397C4.98125 27.1097 3.75 26.5405 3.75 25.4677V7.96258C3.75 6.47131 3.75 5.72568 3.94744 5.12433C4.32185 3.98399 5.19152 3.08869 6.29924 2.70326C6.88338 2.5 7.60768 2.5 9.05627 2.5Z" fill="#2B6A46"/>
<path d="M8.75 8.4375C8.23223 8.4375 7.8125 8.85723 7.8125 9.375C7.8125 9.89277 8.23223 10.3125 8.75 10.3125H9.375C9.89277 10.3125 10.3125 9.89277 10.3125 9.375C10.3125 8.85723 9.89277 8.4375 9.375 8.4375H8.75Z" fill="#2B6A46"/>
<path d="M13.125 8.4375C12.6072 8.4375 12.1875 8.85723 12.1875 9.375C12.1875 9.89277 12.6072 10.3125 13.125 10.3125H21.25C21.7678 10.3125 22.1875 9.89277 22.1875 9.375C22.1875 8.85723 21.7678 8.4375 21.25 8.4375H13.125Z" fill="#2B6A46"/>
<path d="M8.75 12.8125C8.23223 12.8125 7.8125 13.2322 7.8125 13.75C7.8125 14.2678 8.23223 14.6875 8.75 14.6875H9.375C9.89277 14.6875 10.3125 14.2678 10.3125 13.75C10.3125 13.2322 9.89277 12.8125 9.375 12.8125H8.75Z" fill="#2B6A46"/>
<path d="M13.125 12.8125C12.6072 12.8125 12.1875 13.2322 12.1875 13.75C12.1875 14.2678 12.6072 14.6875 13.125 14.6875H21.25C21.7678 14.6875 22.1875 14.2678 22.1875 13.75C22.1875 13.2322 21.7678 12.8125 21.25 12.8125H13.125Z" fill="#2B6A46"/>
<path d="M8.75 17.1875C8.23223 17.1875 7.8125 17.6072 7.8125 18.125C7.8125 18.6428 8.23223 19.0625 8.75 19.0625H9.375C9.89277 19.0625 10.3125 18.6428 10.3125 18.125C10.3125 17.6072 9.89277 17.1875 9.375 17.1875H8.75Z" fill="#2B6A46"/>
<path d="M13.125 17.1875C12.6072 17.1875 12.1875 17.6072 12.1875 18.125C12.1875 18.6428 12.6072 19.0625 13.125 19.0625H21.25C21.7678 19.0625 22.1875 18.6428 22.1875 18.125C22.1875 17.6072 21.7678 17.1875 21.25 17.1875H13.125Z" fill="#2B6A46"/>
</svg>
