<svg width="30" height="30" viewBox="0 0 30 30" fill="none" xmlns="http://www.w3.org/2000/svg">
<path d="M21.4014 3.59835C20.303 2.5 18.5352 2.5 14.9997 2.5C11.4642 2.5 9.69641 2.5 8.59806 3.59835C7.9826 4.21381 7.71201 5.03946 7.59305 6.26855C8.2921 6.24996 9.06478 6.24998 9.91179 6.25H20.0882C20.935 6.24998 21.7075 6.24996 22.4064 6.26854C22.2874 5.03945 22.0168 4.21381 21.4014 3.59835Z" fill="#2B6A46"/>
<path fill-rule="evenodd" clip-rule="evenodd" d="M22.5 18.125C22.5 21.6605 22.5 25.3033 21.4017 26.4017C20.3033 27.5 18.5355 27.5 15 27.5C11.4645 27.5 9.6967 27.5 8.59835 26.4017C7.5 25.3033 7.5 21.6605 7.5 18.125H22.5ZM19.6875 20.9375C19.6875 21.4553 19.2678 21.875 18.75 21.875H11.25C10.7322 21.875 10.3125 21.4553 10.3125 20.9375C10.3125 20.4197 10.7322 20 11.25 20H18.75C19.2678 20 19.6875 20.4197 19.6875 20.9375ZM17.1875 24.6875C17.1875 25.2053 16.7678 25.625 16.25 25.625H11.25C10.7322 25.625 10.3125 25.2053 10.3125 24.6875C10.3125 24.1697 10.7322 23.75 11.25 23.75H16.25C16.7678 23.75 17.1875 24.1697 17.1875 24.6875Z" fill="#2B6A46"/>
<g opacity="0.5">
<path d="M18.75 21.875C19.2678 21.875 19.6875 21.4553 19.6875 20.9375C19.6875 20.4197 19.2678 20 18.75 20H11.25C10.7322 20 10.3125 20.4197 10.3125 20.9375C10.3125 21.4553 10.7322 21.875 11.25 21.875H18.75Z" fill="#2B6A46"/>
<path d="M16.25 25.625C16.7678 25.625 17.1875 25.2053 17.1875 24.6875C17.1875 24.1697 16.7678 23.75 16.25 23.75H11.25C10.7322 23.75 10.3125 24.1697 10.3125 24.6875C10.3125 25.2053 10.7322 25.625 11.25 25.625H16.25Z" fill="#2B6A46"/>
</g>
<path opacity="0.5" d="M20 7.5H10C6.46447 7.5 4.6967 7.5 3.59835 8.59835C2.5 9.6967 2.5 11.4645 2.5 15C2.5 18.5355 2.5 20.3033 3.59835 21.4017C4.21654 22.0198 5.04679 22.2901 6.28494 22.4082C6.24997 21.5048 6.24999 19.1903 6.25 18.125C5.90482 18.125 5.625 17.8452 5.625 17.5C5.625 17.1548 5.90482 16.875 6.25 16.875H23.75C24.0952 16.875 24.375 17.1548 24.375 17.5C24.375 17.8452 24.0952 18.1254 23.75 18.1254C23.75 19.1906 23.75 21.5049 23.7151 22.4082C24.9532 22.2901 25.7835 22.0198 26.4017 21.4017C27.5 20.3033 27.5 18.5355 27.5 15C27.5 11.4645 27.5 9.6967 26.4017 8.59835C25.3033 7.5 23.5355 7.5 20 7.5Z" fill="#2B6A46"/>
<path d="M11.25 13.4375C11.7678 13.4375 12.1875 13.0178 12.1875 12.5C12.1875 11.9822 11.7678 11.5625 11.25 11.5625H7.5C6.98223 11.5625 6.5625 11.9822 6.5625 12.5C6.5625 13.0178 6.98223 13.4375 7.5 13.4375H11.25Z" fill="#2B6A46"/>
<path d="M22.5 12.5C22.5 13.1904 21.9404 13.75 21.25 13.75C20.5596 13.75 20 13.1904 20 12.5C20 11.8096 20.5596 11.25 21.25 11.25C21.9404 11.25 22.5 11.8096 22.5 12.5Z" fill="#2B6A46"/>
</svg>
