<svg width="30" height="30" viewBox="0 0 30 30" fill="none" xmlns="http://www.w3.org/2000/svg">
<path d="M21.4014 3.59835C20.303 2.5 18.5352 2.5 14.9997 2.5C11.4642 2.5 9.69641 2.5 8.59806 3.59835C7.9826 4.21381 7.71201 5.03946 7.59305 6.26855C8.2921 6.24996 9.06478 6.24998 9.91179 6.25H20.0882C20.935 6.24998 21.7075 6.24996 22.4064 6.26854C22.2874 5.03945 22.0168 4.21381 21.4014 3.59835Z" fill="#2B6A46"/>
<path d="M22.5 19.375C22.5 22.9105 22.5 25.3033 21.4017 26.4017C20.3033 27.5 18.5355 27.5 15 27.5C11.4645 27.5 9.6967 27.5 8.59835 26.4017C7.5 25.3033 7.5 22.9105 7.5 19.375H22.5Z" fill="#2B6A46"/>
<path opacity="0.5" d="M20 7.5H10C6.46447 7.5 4.6967 7.5 3.59835 8.59835C2.5 9.6967 2.5 11.4645 2.5 15C2.5 18.5355 2.5 20.3033 3.59835 21.4017C4.21654 22.0198 5.04679 22.2901 6.28494 22.4082C6.24997 21.5048 6.24999 20.4403 6.25 19.375C5.90482 19.375 5.625 19.0952 5.625 18.75C5.625 18.4048 5.90482 18.125 6.25 18.125H23.75C24.0952 18.125 24.375 18.4048 24.375 18.75C24.375 19.0952 24.0952 19.3754 23.75 19.3754C23.75 20.4406 23.75 21.5049 23.7151 22.4082C24.9532 22.2901 25.7835 22.0198 26.4017 21.4017C27.5 20.3033 27.5 18.5355 27.5 15C27.5 11.4645 27.5 9.6967 26.4017 8.59835C25.3033 7.5 23.5355 7.5 20 7.5Z" fill="#2B6A46"/>
<path d="M11.25 13.4375C11.7678 13.4375 12.1875 13.0178 12.1875 12.5C12.1875 11.9822 11.7678 11.5625 11.25 11.5625H7.5C6.98223 11.5625 6.5625 11.9822 6.5625 12.5C6.5625 13.0178 6.98223 13.4375 7.5 13.4375H11.25Z" fill="#2B6A46"/>
<path d="M22.5 12.5C22.5 13.1904 21.9404 13.75 21.25 13.75C20.5596 13.75 20 13.1904 20 12.5C20 11.8096 20.5596 11.25 21.25 11.25C21.9404 11.25 22.5 11.8096 22.5 12.5Z" fill="#2B6A46"/>
</svg>
