<svg width="24" height="24" viewBox="0 0 24 24" fill="none" xmlns="http://www.w3.org/2000/svg">
<path d="M20.2385 2L21.7055 3.46705L9.17257 16L8.2663 16.9063L3.46706 21.7055L2.00001 20.2385L4.39769 17.8408L5.01205 17.2264L17.2352 5.00327L17.8406 4.3979L20.2385 2Z" fill="#2B6A46"/>
<path fill-rule="evenodd" clip-rule="evenodd" d="M11.9998 2C14.8282 2 16.2424 2 17.1211 2.87868C17.3145 3.07209 17.4653 3.29146 17.583 3.54614L16.1291 5L16.0706 5H7.92942C7.25182 4.99998 6.63367 4.99996 6.07443 5.01484C6.1696 4.03157 6.38607 3.37105 6.87844 2.87868C7.75712 2 9.17133 2 11.9998 2ZM17.2352 5.00327C17.4744 5.00541 17.7043 5.00896 17.9251 5.01483C17.9037 4.79341 17.8761 4.58835 17.8406 4.3979L17.2352 5.00327ZM5.0028 16.1263C4.99998 15.5108 4.99999 14.897 4.99999 14.5C4.72385 14.5 4.49999 14.2761 4.49999 14C4.49999 13.7239 4.72385 13.5 4.99999 13.5H7.62911L15.1291 6H7.99999C5.17156 6 3.75735 6 2.87867 6.87868C1.99999 7.75736 1.99999 9.17157 1.99999 12C1.99999 14.8284 1.99999 16.2426 2.87867 17.1213C3.07205 17.3147 3.29136 17.4655 3.54597 17.5831L5.0028 16.1263ZM5.02794 17.9266C4.80141 17.905 4.59195 17.877 4.39769 17.8408L5.01205 17.2264C5.01595 17.5064 5.02111 17.7501 5.02794 17.9266ZM6.32852 19.9533C6.45602 20.4709 6.633 20.8757 6.87867 21.1213C7.75735 22 9.17157 22 12 22C14.8284 22 16.2426 22 17.1213 21.1213C18 20.2426 18 17.3284 18 14.5H11.7819L10.2819 16H15C15.4142 16 15.75 16.3358 15.75 16.75C15.75 17.1642 15.4142 17.5 15 17.5H8.99999C8.93325 17.5 8.86854 17.4913 8.80694 17.4749L6.32852 19.9533ZM8.99999 16H9.17257L8.2663 16.9063C8.25561 16.8559 8.24999 16.8036 8.24999 16.75C8.24999 16.3358 8.58578 16 8.99999 16ZM6.00035 15.1288L6.62911 14.5H5.99999C5.99999 14.7094 5.99999 14.9193 6.00035 15.1288ZM12.7819 13.5H19C19.2761 13.5 19.5 13.7239 19.5 14C19.5 14.2761 19.2761 14.5003 19 14.5003C19 15.3525 19 17.2039 18.972 17.9266C19.9626 17.8321 20.6268 17.6159 21.1213 17.1213C22 16.2426 22 14.8284 22 12C22 9.17157 22 7.75736 21.1213 6.87868C20.8267 6.58408 20.4719 6.38825 20.0238 6.25808L17.2503 9.03158C17.6814 9.14269 18 9.53414 18 10C18 10.5523 17.5523 11 17 11C16.5341 11 16.1427 10.6814 16.0316 10.2503L12.7819 13.5ZM8.99999 10.75C9.4142 10.75 9.74999 10.4142 9.74999 10C9.74999 9.58579 9.4142 9.25 8.99999 9.25H5.99999C5.58578 9.25 5.24999 9.58579 5.24999 10C5.24999 10.4142 5.58578 10.75 5.99999 10.75H8.99999ZM13.75 19.75C13.75 20.1642 13.4142 20.5 13 20.5H8.99999C8.58578 20.5 8.24999 20.1642 8.24999 19.75C8.24999 19.3358 8.58578 19 8.99999 19H13C13.4142 19 13.75 19.3358 13.75 19.75Z" fill="#2B6A46"/>
</svg>
