<svg width="20" height="20" viewBox="0 0 20 20" fill="none" xmlns="http://www.w3.org/2000/svg">
<path fill-rule="evenodd" clip-rule="evenodd" d="M18.9583 5.83337C18.9583 6.17855 18.6785 6.45837 18.3333 6.45837L1.66665 6.45837C1.32147 6.45837 1.04165 6.17855 1.04165 5.83337C1.04165 5.4882 1.32147 5.20837 1.66665 5.20837L18.3333 5.20837C18.6785 5.20837 18.9583 5.4882 18.9583 5.83337Z" fill="#1A2C42" fill-opacity="0.5"/>
<path fill-rule="evenodd" clip-rule="evenodd" d="M16.4583 10C16.4583 10.3452 16.1785 10.625 15.8333 10.625L4.16665 10.625C3.82147 10.625 3.54165 10.3452 3.54165 10C3.54165 9.65482 3.82147 9.375 4.16665 9.375L15.8333 9.375C16.1785 9.375 16.4583 9.65482 16.4583 10Z" fill="#1A2C42" fill-opacity="0.5"/>
<path fill-rule="evenodd" clip-rule="evenodd" d="M13.9583 14.1666C13.9583 14.5118 13.6785 14.7916 13.3333 14.7916L6.66665 14.7916C6.32147 14.7916 6.04165 14.5118 6.04165 14.1666C6.04165 13.8214 6.32147 13.5416 6.66665 13.5416H13.3333C13.6785 13.5416 13.9583 13.8214 13.9583 14.1666Z" fill="#1A2C42" fill-opacity="0.5"/>
</svg>
