<svg width="25" height="24" viewBox="0 0 25 24" fill="none" xmlns="http://www.w3.org/2000/svg">
<path fill-rule="evenodd" clip-rule="evenodd" d="M10.4436 3.25H14.5564C16.3942 3.24998 17.8498 3.24997 18.989 3.40314C20.1614 3.56076 21.1104 3.89288 21.8588 4.64124C22.6071 5.38961 22.9392 6.33856 23.0969 7.51098C23.1873 8.18385 23.2244 8.9671 23.2395 9.87428C23.2464 9.91516 23.25 9.95716 23.25 10C23.25 10.0353 23.2476 10.0699 23.2429 10.1039C23.25 10.6696 23.25 11.2818 23.25 11.9436V12C23.25 12.4142 22.9142 12.75 22.5 12.75C22.0858 12.75 21.75 12.4142 21.75 12C21.75 11.5541 21.7499 11.1384 21.748 10.75H3.25199C3.25009 11.1384 3.25 11.5541 3.25 12C3.25 13.9068 3.25159 15.2615 3.38976 16.2892C3.52502 17.2952 3.77869 17.8749 4.2019 18.2981C4.62511 18.7213 5.20476 18.975 6.21085 19.1102C7.23851 19.2484 8.59318 19.25 10.5 19.25H14.5C14.9142 19.25 15.25 19.5858 15.25 20C15.25 20.4142 14.9142 20.75 14.5 20.75H10.4436C8.60583 20.75 7.15019 20.75 6.01098 20.5969C4.83856 20.4392 3.88961 20.1071 3.14124 19.3588C2.39288 18.6104 2.06076 17.6614 1.90314 16.489C1.74997 15.3498 1.74998 13.8942 1.75 12.0564V11.9436C1.74999 11.2818 1.74999 10.6696 1.75714 10.1039C1.75243 10.0699 1.75 10.0352 1.75 10C1.75 9.95716 1.75359 9.91517 1.76049 9.87429C1.77564 8.96711 1.81267 8.18385 1.90314 7.51098C2.06076 6.33856 2.39288 5.38961 3.14124 4.64124C3.88961 3.89288 4.83856 3.56076 6.01098 3.40314C7.15019 3.24997 8.60582 3.24998 10.4436 3.25ZM3.27607 9.25H21.7239C21.7044 8.66327 21.6701 8.15634 21.6102 7.71085C21.475 6.70476 21.2213 6.12511 20.7981 5.7019C20.3749 5.27869 19.7952 5.02502 18.7892 4.88976C17.7615 4.75159 16.4068 4.75 14.5 4.75H10.5C8.59318 4.75 7.23851 4.75159 6.21085 4.88976C5.20476 5.02502 4.62511 5.27869 4.2019 5.7019C3.77869 6.12511 3.52502 6.70476 3.38976 7.71085C3.32987 8.15634 3.29564 8.66327 3.27607 9.25ZM19.5 13.25C19.9142 13.25 20.25 13.5858 20.25 14V18.1893L20.9697 17.4697C21.2626 17.1768 21.7374 17.1768 22.0303 17.4697C22.3232 17.7626 22.3232 18.2374 22.0303 18.5303L20.0303 20.5303C19.7374 20.8232 19.2626 20.8232 18.9697 20.5303L16.9697 18.5303C16.6768 18.2374 16.6768 17.7626 16.9697 17.4697C17.2626 17.1768 17.7374 17.1768 18.0303 17.4697L18.75 18.1893V14C18.75 13.5858 19.0858 13.25 19.5 13.25ZM5.75 16C5.75 15.5858 6.08579 15.25 6.5 15.25H10.5C10.9142 15.25 11.25 15.5858 11.25 16C11.25 16.4142 10.9142 16.75 10.5 16.75H6.5C6.08579 16.75 5.75 16.4142 5.75 16ZM12.25 16C12.25 15.5858 12.5858 15.25 13 15.25H13.5C13.9142 15.25 14.25 15.5858 14.25 16C14.25 16.4142 13.9142 16.75 13.5 16.75H13C12.5858 16.75 12.25 16.4142 12.25 16Z" fill="#717971"/>
</svg>
