<svg width="24" height="24" viewBox="0 0 24 24" fill="none" xmlns="http://www.w3.org/2000/svg">
<path fill-rule="evenodd" clip-rule="evenodd" d="M10.3092 2.24996H13.6907C13.9071 2.24982 14.0956 2.2497 14.2736 2.27813C14.9769 2.39043 15.5855 2.82909 15.9145 3.46078C15.9977 3.62067 16.0572 3.79955 16.1255 4.00488L16.2371 4.33978C16.256 4.39647 16.2614 4.41252 16.266 4.42516C16.4411 4.90927 16.8952 5.23653 17.4098 5.24958C17.4233 5.24992 17.4399 5.24998 17.5 5.24998H20.5C20.9142 5.24998 21.25 5.58576 21.25 5.99998C21.25 6.41419 20.9142 6.74998 20.5 6.74998H3.49988C3.08566 6.74998 2.74988 6.41419 2.74988 5.99998C2.74988 5.58576 3.08566 5.24998 3.49988 5.24998H6.49996C6.56001 5.24998 6.57658 5.24992 6.59011 5.24958C7.10476 5.23653 7.55878 4.90929 7.7339 4.42518C7.73851 4.41245 7.7438 4.39675 7.76279 4.33978L7.8744 4.0049C7.94269 3.79958 8.0022 3.62067 8.08546 3.46078C8.41441 2.82909 9.02301 2.39043 9.72631 2.27813C9.90433 2.2497 10.0928 2.24982 10.3092 2.24996ZM9.00803 5.24998C9.05954 5.14895 9.10518 5.04398 9.14445 4.93542C9.15638 4.90245 9.16807 4.86736 9.1831 4.82228L9.2829 4.52286C9.37407 4.24935 9.39506 4.19357 9.41589 4.15358C9.52554 3.94301 9.7284 3.7968 9.96284 3.75936C10.0074 3.75225 10.0669 3.74998 10.3552 3.74998H13.6447C13.933 3.74998 13.9926 3.75225 14.0371 3.75936C14.2715 3.7968 14.4744 3.94301 14.584 4.15358C14.6049 4.19357 14.6258 4.24934 14.717 4.52286L14.8168 4.8221L14.8555 4.93544C14.8947 5.04399 14.9404 5.14896 14.9919 5.24998H9.00803Z" fill="#2B6A46"/>
<path d="M5.91497 8.45009C5.88741 8.03679 5.53004 7.72409 5.11674 7.75164C4.70344 7.77919 4.39074 8.13657 4.41829 8.54987L4.88174 15.5016C4.96723 16.7843 5.03629 17.8205 5.19827 18.6336C5.36667 19.4789 5.65309 20.1849 6.24468 20.7384C6.83628 21.2919 7.55982 21.5307 8.41447 21.6425C9.2365 21.75 10.2749 21.75 11.5605 21.75H12.4394C13.7249 21.75 14.7634 21.75 15.5854 21.6425C16.4401 21.5307 17.1636 21.2919 17.7552 20.7384C18.3468 20.1849 18.6333 19.4789 18.8017 18.6336C18.9636 17.8205 19.0327 16.7844 19.1182 15.5016L19.5816 8.54987C19.6092 8.13657 19.2965 7.77919 18.8832 7.75164C18.4699 7.72409 18.1125 8.03679 18.085 8.45009L17.625 15.3492C17.5352 16.6971 17.4711 17.6349 17.3306 18.3405C17.1942 19.0249 17.0039 19.3872 16.7305 19.643C16.4571 19.8988 16.0829 20.0646 15.3909 20.1552C14.6775 20.2485 13.7375 20.25 12.3866 20.25H11.6133C10.2624 20.25 9.32243 20.2485 8.60903 20.1552C7.91703 20.0646 7.54287 19.8988 7.26946 19.643C6.99604 19.3872 6.80571 19.0249 6.66936 18.3405C6.52879 17.6349 6.46477 16.6971 6.37491 15.3492L5.91497 8.45009Z" fill="#2B6A46"/>
<path d="M9.42534 10.2537C9.8375 10.2125 10.205 10.5132 10.2462 10.9253L10.7462 15.9253C10.7875 16.3375 10.4868 16.705 10.0746 16.7463C9.66244 16.7875 9.29491 16.4868 9.25369 16.0746L8.75369 11.0746C8.71248 10.6624 9.01318 10.2949 9.42534 10.2537Z" fill="#2B6A46"/>
<path d="M14.5746 10.2537C14.9868 10.2949 15.2875 10.6624 15.2462 11.0746L14.7462 16.0746C14.705 16.4868 14.3375 16.7875 13.9253 16.7463C13.5132 16.705 13.2125 16.3375 13.2537 15.9253L13.7537 10.9253C13.7949 10.5132 14.1624 10.2125 14.5746 10.2537Z" fill="#2B6A46"/>
</svg>
