<svg width="24" height="24" viewBox="0 0 24 24" fill="none" xmlns="http://www.w3.org/2000/svg">
<path d="M19.0769 4.92798C16.9949 2.84498 14.1549 1.79398 11.1729 2.03398C7.16389 2.35598 3.64989 5.14398 2.47389 8.98998C1.63389 11.738 1.98689 14.607 3.35489 16.977L2.05889 21.28C1.93489 21.693 2.31189 22.082 2.72889 21.971L7.23289 20.764C8.69189 21.56 10.3339 21.979 12.0059 21.98H12.0099C16.2049 21.98 20.0809 19.414 21.4219 15.439C22.7279 11.563 21.7619 7.61598 19.0769 4.92798ZM16.8979 15.554C16.6899 16.137 15.6709 16.699 15.2129 16.74C14.7549 16.782 14.3259 16.947 12.2179 16.116C9.68089 15.116 8.07889 12.515 7.95489 12.349C7.82989 12.182 6.93589 10.996 6.93589 9.76798C6.93589 8.53998 7.58089 7.93598 7.80989 7.68698C8.03889 7.43698 8.30889 7.37498 8.47589 7.37498C8.64189 7.37498 8.8089 7.37498 8.9539 7.38098C9.1319 7.38798 9.32889 7.39698 9.51589 7.81198C9.73789 8.30598 10.2229 9.53998 10.2849 9.66498C10.3469 9.78998 10.3889 9.93598 10.3059 10.102C10.2229 10.268 10.1809 10.372 10.0569 10.518C9.93189 10.664 9.79489 10.843 9.68289 10.955C9.55789 11.079 9.42789 11.215 9.57289 11.464C9.71889 11.714 10.2189 12.531 10.9609 13.192C11.9149 14.042 12.7179 14.305 12.9679 14.431C13.2179 14.556 13.3629 14.535 13.5089 14.368C13.6549 14.202 14.1329 13.64 14.2989 13.39C14.4649 13.14 14.6319 13.182 14.8609 13.265C15.0899 13.348 16.3169 13.952 16.5659 14.077C16.8159 14.202 16.9819 14.264 17.0439 14.368C17.1059 14.471 17.1059 14.971 16.8979 15.554Z" fill="black"/>
</svg>
