<svg width="24" height="24" viewBox="0 0 24 24" fill="none" xmlns="http://www.w3.org/2000/svg">
<path d="M22.9892 6.00129C22.9798 5.52932 22.9418 5.05835 22.8753 4.59098C22.7964 4.1758 22.6624 3.77303 22.4768 3.39336C22.0697 2.58878 21.4166 1.935 20.6125 1.52704C20.2351 1.34193 19.8346 1.20796 19.4218 1.1287C18.9509 1.06086 18.4762 1.02212 18.0006 1.01269C17.7988 1.00537 17.5376 1.00175 17.4171 1.00175L6.58459 1C6.46455 1 6.20332 1.00363 6.00129 1.01081C5.52931 1.02009 5.05834 1.05811 4.59098 1.12467C4.17581 1.20356 3.77303 1.33757 3.39336 1.52315C2.5888 1.93032 1.93501 2.5834 1.52697 3.38752C1.34191 3.76497 1.20795 4.16539 1.12863 4.57822C1.06085 5.04913 1.02211 5.52376 1.01262 5.99942C1.00543 6.20124 1.00175 6.46241 1.00175 6.58286L1 17.4154C1 17.5354 1.00363 17.7966 1.01081 17.9987C1.02009 18.4707 1.05811 18.9417 1.12467 19.409C1.20357 19.8242 1.33758 20.227 1.52315 20.6066C1.93029 21.4112 2.58335 22.0649 3.38745 22.473C3.76493 22.658 4.16538 22.792 4.57822 22.8713C5.04912 22.9391 5.52376 22.9779 5.99942 22.9873C6.20117 22.9946 6.46241 22.9983 6.58286 22.9983L17.4154 23C17.5354 23 17.7967 22.9964 17.9986 22.9892C18.4706 22.9799 18.9416 22.9419 19.409 22.8753C19.8242 22.7964 20.2269 22.6624 20.6066 22.4769C21.4111 22.0697 22.0649 21.4166 22.473 20.6125C22.658 20.235 22.792 19.8346 22.8713 19.4218C22.9391 18.9509 22.9779 18.4762 22.9874 18.0006C22.9946 17.7988 22.9983 17.5376 22.9983 17.4171L23 6.58459C23 6.46461 22.9964 6.20332 22.9892 6.00129ZM12.2384 19.6521H12.2352C10.9259 19.652 9.63749 19.324 8.48757 18.698L4.33035 19.7881L5.4429 15.7256C4.58097 14.23 4.23652 12.4919 4.46296 10.7807C4.6894 9.06941 5.47408 7.48068 6.69534 6.26078C7.91659 5.04089 9.5062 4.25798 11.2177 4.03344C12.9292 3.80891 14.6669 4.15529 16.1615 5.01889C17.6561 5.88249 18.8241 7.21505 19.4842 8.80997C20.1444 10.4049 20.26 12.1731 19.813 13.8403C19.366 15.5076 18.3814 16.9809 17.012 18.0316C15.6425 19.0824 13.9646 19.652 12.2384 19.6521Z" fill="black"/>
<path d="M12.241 5.29126C11.0762 5.29099 9.93271 5.60276 8.92929 6.19416C7.92587 6.78556 7.09921 7.63499 6.53529 8.65411C5.97137 9.67323 5.69078 10.8248 5.72269 11.9891C5.75461 13.1534 6.09787 14.2879 6.71678 15.2746L6.87181 15.5211L6.21332 17.9256L8.68021 17.2786L8.91822 17.4199C9.92263 18.0146 11.0685 18.3283 12.2357 18.3281H12.2384C13.9657 18.3262 15.6217 17.6388 16.8426 16.4169C18.0634 15.1949 18.7494 13.5383 18.7497 11.811C18.7501 10.0837 18.0648 8.4268 16.8444 7.20435C15.624 5.9819 13.9683 5.29382 12.241 5.29126ZM16.0749 14.6083C15.9307 14.8464 15.7387 15.052 15.511 15.2123C15.2834 15.3726 15.0251 15.4841 14.7523 15.5397C14.3405 15.6101 13.9179 15.5836 13.5181 15.4621C13.1388 15.3443 12.7659 15.2065 12.401 15.0494C11.0478 14.3703 9.89426 13.351 9.05374 12.0916C8.59548 11.5085 8.31742 10.8042 8.25366 10.0653C8.24821 9.76018 8.30639 9.45731 8.42446 9.17595C8.54254 8.8946 8.71794 8.64092 8.93947 8.4311C9.00495 8.35642 9.08517 8.29609 9.17509 8.25391C9.26501 8.21172 9.36268 8.18859 9.46197 8.18598C9.59255 8.18598 9.72334 8.18719 9.83748 8.19289C9.95779 8.19887 10.1193 8.14718 10.2784 8.5292C10.4417 8.92135 10.8336 9.8855 10.8825 9.98355C10.9135 10.0349 10.9313 10.0932 10.9342 10.1531C10.937 10.213 10.9249 10.2727 10.8989 10.3268C10.8495 10.4445 10.7835 10.5546 10.7029 10.6536C10.6049 10.768 10.4971 10.909 10.409 10.9968C10.3109 11.0945 10.2088 11.2005 10.323 11.3965C10.6173 11.9003 10.9847 12.3576 11.4131 12.7535C11.8779 13.1668 12.4111 13.4958 12.9889 13.7258C13.1848 13.8239 13.2991 13.8075 13.4134 13.6768C13.5277 13.5461 13.9032 13.1048 14.0338 12.9088C14.1643 12.7127 14.295 12.7453 14.4746 12.8107C14.6542 12.8761 15.6176 13.35 15.8136 13.448C16.0096 13.5461 16.1402 13.5951 16.1891 13.6768C16.2428 13.9918 16.2031 14.3156 16.0749 14.6083Z" fill="black"/>
</svg>
